M48
; DRILL file {KiCad 7.0.2} date Mon Jul 17 22:19:40 2023
; FORMAT={-:-/ absolute / inch / decimal}
; #@! TF.CreationDate,2023-07-17T22:19:40+10:00
; #@! TF.GenerationSoftware,Kicad,Pcbnew,7.0.2
; #@! TF.FileFunction,Plated,1,2,PTH
FMAT,2
INCH
; #@! TA.AperFunction,Plated,PTH,ViaDrill
T1C0.0118
; #@! TA.AperFunction,Plated,PTH,ComponentDrill
T2C0.0138
; #@! TA.AperFunction,Plated,PTH,ViaDrill
T3C0.0197
; #@! TA.AperFunction,Plated,PTH,ComponentDrill
T4C0.0394
; #@! TA.AperFunction,Plated,PTH,ComponentDrill
T5C0.0591
; #@! TA.AperFunction,Plated,PTH,ComponentDrill
T6C0.1181
%
G90
G05
T1
X4.2805Y-2.49
X4.2805Y-2.595
X4.4205Y-3.62
X4.4205Y-3.725
X4.4205Y-4.15
X4.4205Y-4.255
X4.435Y-3.3
X4.4705Y-2.775
X4.4805Y-2.495
X4.4805Y-2.6
X4.515Y-3.3
X4.515Y-3.4
X4.5266Y-2.8833
X4.5305Y-3.62
X4.5305Y-3.725
X4.5305Y-4.15
X4.5305Y-4.255
X4.5955Y-4.31
X4.5955Y-4.415
X4.6405Y-2.595
X4.6405Y-2.7
X4.6405Y-2.78
X4.645Y-1.88
X4.645Y-1.985
X4.8305Y-4.31
X4.8305Y-4.415
X4.835Y-2.5
X4.8755Y-4.055
X4.88Y-1.88
X4.88Y-1.985
X4.8855Y-3.515
X4.8855Y-3.61
X4.95Y-2.5
X5.0055Y-3.565
X5.0105Y-3.75
X5.03Y-2.33
X5.03Y-2.395
X5.0605Y-2.66
X5.095Y-2.315
X5.11Y-2.5
X5.1205Y-4.36
X5.1205Y-4.465
X5.1255Y-4.055
X5.15Y-2.495
X5.15Y-2.97
X5.1505Y-2.715
X5.1505Y-2.765
X5.1505Y-3.555
X5.1505Y-3.635
X5.1955Y-4.145
X5.1955Y-4.25
X5.23Y-3.3
X5.23Y-3.4
X5.23Y-3.5
X5.26Y-2.66
X5.2605Y-2.715
X5.2605Y-2.765
X5.305Y-2.915
X5.3055Y-4.145
X5.3055Y-4.25
X5.32Y-3.3
X5.32Y-3.4
X5.32Y-3.5
X5.3255Y-2.6507
X5.3255Y-2.7756
X5.33Y-2.09
X5.3305Y-2.715
X5.335Y-2.17
X5.3555Y-4.36
X5.3555Y-4.465
X5.36Y-2.27
X5.3805Y-2.7756
X5.42Y-2.67
X5.435Y-2.905
X5.44Y-2.085
X5.44Y-2.16
X5.46Y-1.88
X5.46Y-1.985
X5.47Y-2.365
X5.485Y-3.34
X5.49Y-2.515
X5.49Y-3.415
X5.495Y-3.485
X5.495Y-3.56
X5.52Y-3.09
X5.535Y-2.875
X5.5655Y-3.6
X5.5655Y-4.165
X5.5806Y-2.7002
X5.5955Y-3.31
X5.6005Y-4.29
X5.6171Y-2.8133
X5.62Y-2.265
X5.625Y-3.125
X5.6486Y-2.4349
X5.675Y-2.21
X5.685Y-2.335
X5.695Y-1.88
X5.695Y-1.985
X5.7005Y-3.6
X5.7505Y-3.19
X5.7505Y-3.245
X5.7505Y-3.3
X5.765Y-2.255
X5.77Y-2.12
X5.7745Y-2.48
X5.805Y-2.435
X5.8105Y-2.895
X5.8505Y-2.475
X5.8555Y-2.855
X5.8655Y-3.655
X5.87Y-2.37
X5.8705Y-2.905
X5.8805Y-3.545
X5.8955Y-2.535
X5.9187Y-2.9718
X5.9305Y-3.025
X5.9355Y-4.465
X5.955Y-2.285
X5.97Y-2.65
X5.97Y-2.775
X5.98Y-2.61
X5.9805Y-2.925
X6.0005Y-3.08
X6.0155Y-3.655
X6.0305Y-1.97
X6.0405Y-2.635
X6.0455Y-2.86
X6.0705Y-3.07
X6.09Y-2.77
X6.115Y-3.12
X6.1605Y-2.93
X6.1705Y-2.745
X6.1705Y-4.36
X6.1705Y-4.465
X6.2055Y-2.77
X6.2105Y-2.88
X6.2405Y-2.81
X6.2805Y-1.805
X6.2805Y-1.91
X6.305Y-2.93
X6.3105Y-2.75
X6.3105Y-2.855
X6.36Y-2.12
X6.3955Y-2.75
X6.5155Y-1.805
X6.5155Y-1.91
X6.5855Y-3.31
X6.5855Y-3.345
X6.5855Y-3.38
X6.6405Y-3.565
X6.6405Y-3.635
X6.8355Y-1.805
X6.8355Y-1.91
X6.8655Y-4.36
X6.8655Y-4.465
X7.0105Y-3.395
X7.04Y-1.9686
X7.0705Y-1.805
X7.0705Y-1.91
X7.1005Y-4.36
X7.1005Y-4.465
X7.1355Y-2.55
X7.2555Y-2.795
X7.2605Y-2.645
X7.2805Y-3.3
X7.2805Y-3.405
X7.3705Y-2.55
X7.3955Y-2.755
X7.3955Y-2.86
X7.5155Y-3.3
X7.5155Y-3.405
X7.6005Y-1.805
X7.6005Y-1.91
X7.6055Y-2.55
X7.6055Y-2.655
X7.793Y-1.9775
X7.8305Y-4.36
X7.8305Y-4.465
X7.8355Y-1.805
X7.8355Y-1.91
X7.89Y-1.97
X7.9455Y-3.67
X7.9605Y-2.56
X7.9605Y-2.665
X7.9805Y-2.755
X7.9805Y-2.86
X8.0655Y-4.36
X8.0655Y-4.465
X8.1005Y-3.3
X8.1005Y-3.405
X8.1455Y-2.755
X8.1455Y-2.86
X8.1805Y-3.67
X8.1955Y-2.56
X8.1955Y-2.665
X8.3355Y-1.805
X8.3355Y-1.91
X8.3355Y-3.3
X8.3355Y-3.405
X8.425Y-1.975
X8.5063Y-1.9887
X8.5705Y-1.805
X8.5705Y-1.91
X8.6Y-1.98
X8.6655Y-3.67
X8.7055Y-2.56
X8.7055Y-2.665
X8.7355Y-2.755
X8.7355Y-2.86
X8.8355Y-3.3
X8.8355Y-3.405
X8.8705Y-4.36
X8.8705Y-4.465
X8.9005Y-2.755
X8.9005Y-2.86
X8.9005Y-3.67
X8.9405Y-2.56
X8.9405Y-2.665
X9.0705Y-3.3
X9.0705Y-3.405
X9.0905Y-1.805
X9.0905Y-1.91
X9.1055Y-4.36
X9.1055Y-4.465
X9.175Y-1.98
X9.2584Y-1.995
X9.315Y-1.98
X9.3255Y-1.805
X9.3255Y-1.91
X9.4055Y-3.67
X9.4155Y-2.56
X9.4155Y-2.665
X9.4855Y-2.755
X9.4855Y-2.86
X9.5905Y-3.3
X9.5905Y-3.405
X9.6405Y-3.67
X9.6505Y-2.56
X9.6505Y-2.665
X9.6505Y-2.755
X9.6505Y-2.86
X9.8255Y-3.3
X9.8255Y-3.405
X9.8455Y-1.805
X9.8455Y-1.91
X9.965Y-1.99
X10.0585Y-1.997
X10.0805Y-1.805
X10.0805Y-1.91
X10.095Y-1.98
X10.1905Y-3.67
X10.1955Y-2.56
X10.1955Y-2.665
X10.2355Y-2.755
X10.2355Y-2.86
X10.3755Y-3.3
X10.3755Y-3.405
X10.4005Y-2.755
X10.4005Y-2.86
X10.4255Y-3.67
X10.4305Y-2.56
X10.4305Y-2.665
X10.5705Y-1.805
X10.5705Y-1.91
X10.6105Y-3.3
X10.6105Y-3.405
X10.675Y-1.99
X10.8055Y-1.805
X10.8055Y-1.91
X10.81Y-1.99
X10.9505Y-3.67
X10.9605Y-2.56
X10.9605Y-2.665
X10.9755Y-2.755
X10.9755Y-2.86
X11.0405Y-4.355
X11.0405Y-4.46
X11.1005Y-3.3
X11.1005Y-3.405
X11.1093Y-3.5543
X11.1855Y-3.555
X11.1855Y-3.67
X11.1955Y-2.56
X11.1955Y-2.665
X11.2005Y-2.755
X11.2005Y-2.86
X11.2755Y-4.355
X11.2755Y-4.46
X11.3155Y-1.805
X11.3155Y-1.91
X11.3355Y-3.3
X11.3355Y-3.405
X11.44Y-1.995
X11.5355Y-2.755
X11.5355Y-2.86
X11.5505Y-1.805
X11.5505Y-1.91
X11.57Y-1.99
X11.6855Y-3.555
X11.6855Y-3.66
X11.8467Y-3.5717
X11.8655Y-3.3
X11.8655Y-3.405
X11.9205Y-2.755
X11.9205Y-2.86
X11.9205Y-3.555
X11.9205Y-3.66
X12.0905Y-1.805
X12.0905Y-1.91
X12.1005Y-3.3
X12.1005Y-3.405
X12.205Y-1.98
X12.3255Y-1.805
X12.3255Y-1.91
X12.36Y-1.975
X12.3755Y-2.755
X12.3755Y-2.86
X12.4655Y-3.54
X12.4655Y-3.645
X12.5055Y-4.355
X12.5055Y-4.46
X12.5605Y-2.855
X12.5605Y-2.96
X12.6105Y-3.3
X12.6105Y-3.405
X12.6433Y-3.5383
X12.7005Y-3.54
X12.7005Y-3.645
X12.7405Y-4.355
X12.7405Y-4.46
X12.7955Y-2.855
X12.7955Y-2.96
X12.8255Y-1.805
X12.8255Y-1.91
X12.8455Y-3.3
X12.8455Y-3.405
X12.96Y-1.985
X13.0605Y-1.805
X13.0605Y-1.91
X13.115Y-1.985
X13.2205Y-3.55
X13.2205Y-3.655
X13.3155Y-2.87
X13.3155Y-2.975
X13.3455Y-3.3
X13.3455Y-3.405
X13.4083Y-3.5133
X13.4555Y-3.55
X13.4555Y-3.655
X13.5505Y-2.87
X13.5505Y-2.975
X13.5705Y-1.805
X13.5705Y-1.91
X13.5805Y-3.3
X13.5805Y-3.405
X13.69Y-1.985
X13.8055Y-1.805
X13.8055Y-1.91
X13.815Y-1.98
X13.9605Y-3.54
X13.9605Y-3.645
X14.0155Y-2.87
X14.0155Y-2.975
X14.0855Y-3.3
X14.0855Y-3.405
X14.1555Y-4.36
X14.1555Y-4.465
X14.1607Y-3.5057
X14.1955Y-3.54
X14.1955Y-3.645
X14.2505Y-2.87
X14.2505Y-2.975
X14.3205Y-3.3
X14.3205Y-3.405
X14.3305Y-1.805
X14.3305Y-1.91
X14.3905Y-4.36
X14.3905Y-4.465
X14.475Y-1.975
X14.5598Y-2.0002
X14.5655Y-1.805
X14.5655Y-1.91
X14.6Y-1.975
X14.6955Y-3.54
X14.6955Y-3.645
X14.7605Y-2.87
X14.7605Y-2.975
X14.8455Y-3.3
X14.8455Y-3.405
X14.9305Y-3.54
X14.9305Y-3.645
X14.9955Y-2.87
X14.9955Y-2.975
X15.0755Y-1.805
X15.0755Y-1.91
X15.0805Y-3.3
X15.0805Y-3.405
X15.215Y-2.0
X15.2955Y-3.53
X15.2955Y-3.635
X15.3005Y-4.355
X15.3005Y-4.46
X15.3105Y-1.805
X15.3105Y-1.91
X15.3223Y-2.0132
X15.3505Y-2.87
X15.3505Y-2.975
X15.39Y-1.985
X15.4055Y-3.53
X15.4055Y-3.635
X15.5355Y-4.355
X15.5355Y-4.46
X15.5855Y-2.87
X15.5855Y-2.975
X16.0055Y-4.36
X16.0055Y-4.465
X16.1255Y-2.875
X16.1255Y-2.98
X16.16Y-2.035
X16.1755Y-3.3
X16.1755Y-3.405
X16.2405Y-4.36
X16.2405Y-4.465
X16.265Y-1.965
X16.265Y-2.015
X16.2855Y-3.3
X16.2855Y-3.405
X16.3605Y-2.875
X16.3605Y-2.98
X16.375Y-2.095
X16.385Y-2.025
X16.53Y-1.995
X16.6305Y-1.915
X16.8355Y-4.355
X16.8905Y-4.51
X17.065Y-2.03
X17.0705Y-4.355
X17.0705Y-4.46
X17.19Y-1.9586
X17.3555Y-1.92
X17.385Y-1.715
X17.42Y-2.02
X17.5205Y-2.08
X17.5205Y-2.185
X17.5205Y-2.86
X17.5205Y-2.965
X17.5205Y-3.61
X17.5205Y-3.715
X17.6063Y-4.0508
X17.7555Y-2.08
X17.7555Y-2.185
X17.7555Y-2.86
X17.7555Y-2.965
X17.7555Y-3.61
X17.7555Y-3.715
X17.8505Y-1.795
X17.8505Y-1.83
X17.8505Y-1.865
X17.8855Y-1.92
X17.8855Y-4.195
X17.8855Y-4.3
X17.91Y-2.035
X18.1205Y-4.195
X18.1205Y-4.3
X18.2305Y-2.08
X18.2305Y-2.185
X18.2605Y-2.86
X18.2605Y-2.965
X18.2755Y-3.61
X18.2755Y-3.715
X18.4016Y-4.065
X18.4655Y-2.08
X18.4655Y-2.185
X18.4955Y-2.86
X18.4955Y-2.965
X18.5105Y-3.61
X18.5105Y-3.715
X18.5955Y-1.81
X18.5955Y-1.845
X18.5955Y-1.88
X18.695Y-1.835
X18.725Y-2.055
X18.9905Y-2.055
X18.9905Y-2.16
X19.0005Y-4.17
X19.0005Y-4.275
X19.0005Y-4.385
X19.0005Y-4.49
X19.0055Y-2.86
X19.0055Y-2.965
X19.0105Y-3.61
X19.0105Y-3.715
X19.2255Y-2.055
X19.2255Y-2.16
X19.2355Y-4.17
X19.2355Y-4.275
X19.2355Y-4.385
X19.2355Y-4.49
X19.2405Y-2.86
X19.2405Y-2.965
X19.2455Y-3.61
X19.2455Y-3.715
X19.7355Y-2.055
X19.7355Y-2.16
X19.9705Y-2.055
X19.9705Y-2.16
T2
X5.6298Y-2.6811
X5.6298Y-2.7312
X5.6298Y-2.7814
X5.68Y-2.6811
X5.68Y-2.7312
X5.68Y-2.7814
X5.7302Y-2.6811
X5.7302Y-2.7312
X5.7302Y-2.7814
T3
X15.71Y-1.885
X15.805Y-1.8415
T4
X4.3355Y-2.52
X4.3355Y-2.62
X4.3355Y-2.72
X4.3355Y-2.82
X4.3355Y-2.92
T5
X4.4742Y-3.0875
X4.475Y-1.5875
X4.475Y-2.3375
X4.475Y-3.8375
X4.475Y-4.5875
X4.7242Y-2.9875
X4.725Y-1.4875
X4.725Y-2.2375
X4.725Y-3.7375
X4.725Y-4.4875
X5.225Y-1.5875
X5.225Y-2.3375
X5.225Y-3.0875
X5.225Y-3.8375
X5.225Y-4.5875
X5.475Y-1.4875
X5.475Y-2.2375
X5.475Y-2.9875
X5.475Y-3.7375
X5.475Y-4.4875
X6.1625Y-1.5875
X6.2562Y-3.0875
X6.2562Y-3.8375
X6.35Y-2.3375
X6.35Y-4.5875
X6.4125Y-1.4875
X6.4437Y-3.0875
X6.5062Y-2.9875
X6.5062Y-3.7375
X6.6Y-2.2375
X6.6Y-4.4875
X6.6312Y-3.8375
X6.6937Y-2.9875
X6.8812Y-3.7375
X6.9125Y-1.5875
X7.1Y-3.8375
X7.1625Y-1.4875
X7.2875Y-2.3375
X7.35Y-3.7375
X7.475Y-3.0875
X7.5375Y-2.2375
X7.6625Y-1.5875
X7.725Y-2.9875
X7.85Y-3.8375
X7.9125Y-1.4875
X8.0375Y-2.3375
X8.1Y-3.7375
X8.225Y-3.0875
X8.225Y-4.5875
X8.2875Y-2.2375
X8.4125Y-1.5875
X8.475Y-2.9875
X8.475Y-4.4875
X8.6Y-3.8375
X8.6625Y-1.4875
X8.7875Y-2.3375
X8.85Y-3.7375
X8.975Y-3.0875
X9.0375Y-2.2375
X9.1625Y-1.5875
X9.225Y-2.9875
X9.35Y-3.8375
X9.4125Y-1.4875
X9.5375Y-2.3375
X9.6Y-3.7375
X9.725Y-3.0875
X9.7875Y-2.2375
X9.9125Y-1.5875
X9.975Y-2.9875
X10.1Y-3.8375
X10.1625Y-1.4875
X10.2875Y-2.3375
X10.35Y-3.7375
X10.475Y-3.0875
X10.5375Y-2.2375
X10.6625Y-1.5875
X10.725Y-2.9875
X10.85Y-3.8375
X10.9125Y-1.4875
X11.0375Y-2.3375
X11.1Y-3.7375
X11.225Y-3.0875
X11.2875Y-2.2375
X11.4125Y-1.5875
X11.4125Y-4.5868
X11.475Y-2.9875
X11.6Y-3.8375
X11.6625Y-1.4875
X11.6625Y-4.4868
X11.7875Y-2.3375
X11.85Y-3.7375
X11.975Y-3.0875
X12.0375Y-2.2375
X12.1625Y-1.5875
X12.225Y-2.9875
X12.35Y-3.8375
X12.4125Y-1.4875
X12.5375Y-2.3375
X12.6Y-3.7375
X12.725Y-3.0875
X12.7875Y-2.2375
X12.9125Y-1.5875
X12.975Y-2.9875
X13.1Y-3.8375
X13.1625Y-1.4875
X13.2875Y-2.3375
X13.35Y-3.7375
X13.475Y-3.0875
X13.5375Y-2.2375
X13.6625Y-1.5875
X13.725Y-2.9875
X13.85Y-3.8375
X13.9125Y-1.4875
X14.0375Y-2.3375
X14.1Y-3.7375
X14.225Y-3.0875
X14.2875Y-2.2375
X14.4125Y-1.5875
X14.475Y-2.9875
X14.6Y-3.8375
X14.6Y-4.5875
X14.6625Y-1.4875
X14.7875Y-2.3375
X14.85Y-3.7375
X14.85Y-4.4875
X14.975Y-3.0875
X15.0375Y-2.2375
X15.1625Y-1.5875
X15.225Y-2.9875
X15.4125Y-1.4875
X15.5375Y-2.3375
X15.6312Y-3.8375
X15.7875Y-2.2375
X15.8812Y-3.7375
X15.9125Y-1.5875
X16.0062Y-3.8375
X16.1625Y-1.4875
X16.1925Y-3.0875
X16.2562Y-3.7375
X16.2875Y-1.5875
X16.4425Y-2.9875
X16.475Y-2.3375
X16.475Y-4.5875
X16.5375Y-1.4875
X16.66Y-3.8375
X16.6625Y-1.5875
X16.725Y-2.2375
X16.725Y-4.4875
X16.91Y-3.7375
X16.9125Y-1.4875
X17.6Y-1.5875
X17.6Y-2.3375
X17.6Y-3.0875
X17.6Y-3.8375
X17.6Y-4.5875
X17.85Y-1.4875
X17.85Y-2.2375
X17.85Y-2.9875
X17.85Y-3.7375
X17.85Y-4.4875
X17.975Y-4.5875
X18.225Y-4.4875
X18.35Y-1.5875
X18.35Y-2.3375
X18.35Y-3.0875
X18.35Y-3.8375
X18.35Y-4.5875
X18.6Y-1.4875
X18.6Y-2.2375
X18.6Y-2.9875
X18.6Y-3.7375
X18.6Y-4.4875
X19.1Y-1.5875
X19.1Y-2.3375
X19.1Y-3.0875
X19.1Y-3.8375
X19.1Y-4.5875
X19.35Y-1.4875
X19.35Y-2.2375
X19.35Y-2.9875
X19.35Y-3.7375
X19.35Y-4.4875
X19.8Y-2.3375
X19.8Y-2.7125
X19.8Y-3.0875
X19.8Y-3.8375
X19.8Y-4.2125
X19.8Y-4.5875
X19.85Y-1.5875
X19.9Y-2.5875
X19.9Y-2.9625
X19.9Y-3.3375
X19.9Y-4.0875
X19.9Y-4.4625
X19.9Y-4.8375
X20.1Y-1.4875
T6
X4.8748Y-1.1935
X5.1555Y-5.1799
X6.2496Y-5.1805
X6.3122Y-1.1939
X9.1248Y-5.1799
X9.4404Y-1.1939
X12.9333Y-1.1935
X13.9992Y-5.1803
X15.9372Y-5.1797
X16.437Y-1.1937
X18.1555Y-5.1801
X18.1563Y-1.1945
X19.4994Y-5.1797
X19.8744Y-1.1941
T0
M30
