%TF.GenerationSoftware,KiCad,Pcbnew,7.0.2*%
%TF.CreationDate,2023-07-26T10:20:05+10:00*%
%TF.ProjectId,W1-AT PCB,57312d41-5420-4504-9342-2e6b69636164,rev?*%
%TF.SameCoordinates,Original*%
%TF.FileFunction,Profile,NP*%
%FSLAX46Y46*%
G04 Gerber Fmt 4.6, Leading zero omitted, Abs format (unit mm)*
G04 Created by KiCad (PCBNEW 7.0.2) date 2023-07-26 10:20:05*
%MOMM*%
%LPD*%
G01*
G04 APERTURE LIST*
%TA.AperFunction,Profile*%
%ADD10C,0.500000*%
%TD*%
%TA.AperFunction,Profile*%
%ADD11C,0.120000*%
%TD*%
G04 APERTURE END LIST*
D10*
X283954820Y-90740514D02*
G75*
G03*
X285364327Y-91727495I1409680J513214D01*
G01*
X36666410Y-87372445D02*
X37892292Y-90740526D01*
X345619960Y-91727526D02*
G75*
G03*
X347029500Y-90740521I40J1499926D01*
G01*
X374442323Y-90740513D02*
G75*
G03*
X375851835Y-91727492I1409677J513213D01*
G01*
X347029509Y14535542D02*
G75*
G03*
X345619954Y15522504I-1409609J-513142D01*
G01*
X20404610Y-85727500D02*
G75*
G03*
X18055381Y-87372444I-210J-2499700D01*
G01*
X-6902828Y9083161D02*
X-9024145Y6961843D01*
X35904670Y9522499D02*
X13260851Y9522500D01*
X301963696Y15522505D02*
X298064319Y15522504D01*
X117635753Y-90740523D02*
X118861636Y-87372442D01*
X212976205Y15522503D02*
X209076826Y15522503D01*
X373216414Y-87372442D02*
X374442295Y-90740523D01*
X126886621Y11167451D02*
X125660740Y14535533D01*
X2967281Y14535530D02*
X1741400Y11167449D01*
X245035853Y-85727433D02*
G75*
G03*
X242686640Y-87372441I-53J-2499867D01*
G01*
X110917322Y-90740515D02*
G75*
G03*
X112326835Y-91727494I1409678J513215D01*
G01*
X40889322Y15522545D02*
G75*
G03*
X39479783Y14535531I-22J-1499945D01*
G01*
X43201209Y-91727498D02*
G75*
G03*
X44610749Y-90740525I-209J1500298D01*
G01*
X118942285Y14535532D02*
X117716402Y11167450D01*
X397440865Y9083166D02*
G75*
G03*
X396380206Y9522508I-1060665J-1060666D01*
G01*
X399562186Y6961846D02*
X397440866Y9083167D01*
X339085160Y-87372442D02*
X340311042Y-90740523D01*
X-6902814Y-85288144D02*
G75*
G03*
X-5842165Y-85727497I1060714J1060744D01*
G01*
X112326835Y-91727494D02*
X116226213Y-91727494D01*
X48185862Y-85727495D02*
X107342182Y-85727493D01*
X-9024129Y6961827D02*
G75*
G03*
X-9463484Y5901183I1060529J-1060627D01*
G01*
X44788700Y15522502D02*
X40889322Y15522501D01*
X282728906Y-87372444D02*
G75*
G03*
X280379674Y-85727494I-2349306J-855156D01*
G01*
X241460756Y-90740522D02*
X242686640Y-87372441D01*
X391911616Y11167450D02*
G75*
G03*
X394260867Y9522507I2349084J854850D01*
G01*
X396380206Y9522508D02*
X394260867Y9522507D01*
X381160753Y-90740521D02*
X382386636Y-87372440D01*
X385376837Y15522477D02*
G75*
G03*
X383967298Y14535537I-237J-1499677D01*
G01*
X8276198Y15522501D02*
X4376820Y15522500D01*
X-607832Y9522474D02*
G75*
G03*
X1741399Y11167449I-168J2500226D01*
G01*
X290673245Y-90740524D02*
X291899128Y-87372442D01*
X215611613Y11167449D02*
G75*
G03*
X217960855Y9522504I2349087J854851D01*
G01*
X348255372Y11167454D02*
X347029491Y14535535D01*
X400001526Y-82106173D02*
X400001525Y5901185D01*
X293079667Y9522503D02*
X217960855Y9522504D01*
X341720575Y15522562D02*
G75*
G03*
X340311036Y14535534I-75J-1499862D01*
G01*
X304599115Y11167453D02*
X303373234Y14535535D01*
X236151838Y-91727493D02*
X240051216Y-91727493D01*
X115367170Y9522463D02*
G75*
G03*
X117716401Y11167450I30J2499937D01*
G01*
X340311099Y-90740502D02*
G75*
G03*
X341720582Y-91727492I1409401J512802D01*
G01*
X375851835Y-91727492D02*
X379751213Y-91727492D01*
X399562185Y-83166831D02*
G75*
G03*
X400001526Y-82106173I-1060585J1060631D01*
G01*
X11520579Y-91727496D02*
X15419956Y-91727497D01*
X285364327Y-91727495D02*
X289263705Y-91727495D01*
X400001525Y5901185D02*
G75*
G03*
X399562186Y6961846I-1499725J115D01*
G01*
X209076826Y15522448D02*
G75*
G03*
X207667287Y14535533I-126J-1499848D01*
G01*
X380392184Y9522450D02*
G75*
G03*
X382741416Y11167453I16J2499950D01*
G01*
X125660688Y14535514D02*
G75*
G03*
X124251202Y15522503I-1409688J-513214D01*
G01*
X8885157Y-87372447D02*
X10111039Y-90740528D01*
X380392184Y9522504D02*
X350604604Y9522505D01*
X336735923Y9522479D02*
G75*
G03*
X339085155Y11167452I-23J2500021D01*
G01*
X339085192Y-87372430D02*
G75*
G03*
X336735930Y-85727493I-2349092J-854870D01*
G01*
X379751213Y-91727481D02*
G75*
G03*
X381160752Y-90740521I87J1499881D01*
G01*
X345619954Y15522504D02*
X341720575Y15522504D01*
X126886611Y11167448D02*
G75*
G03*
X129235854Y9522502I2349089J854852D01*
G01*
X10111062Y-90740520D02*
G75*
G03*
X11520579Y-91727496I1409538J513020D01*
G01*
X296654780Y14535534D02*
X295428899Y11167452D01*
X10911619Y11167449D02*
X9685736Y14535531D01*
X36666432Y-87372437D02*
G75*
G03*
X34317179Y-85727495I-2349232J-855063D01*
G01*
X37892295Y-90740525D02*
G75*
G03*
X39301832Y-91727495I1409605J513125D01*
G01*
X389276216Y15522507D02*
X385376837Y15522507D01*
X-5842167Y9522465D02*
G75*
G03*
X-6902828Y9083161I-133J-1499765D01*
G01*
X383967298Y14535537D02*
X382741416Y11167453D01*
X233516470Y-87372424D02*
G75*
G03*
X231167185Y-85727493I-2349370J-855276D01*
G01*
X303373250Y14535541D02*
G75*
G03*
X301963696Y15522505I-1409750J-513341D01*
G01*
X397440866Y-85288151D02*
X399562186Y-83166832D01*
X204092174Y9522563D02*
G75*
G03*
X206441405Y11167451I-74J2500137D01*
G01*
X16829496Y-90740526D02*
X18055380Y-87372444D01*
X48185862Y-85727519D02*
G75*
G03*
X45836631Y-87372443I-162J-2499781D01*
G01*
X47424119Y11167450D02*
X46198238Y14535532D01*
X289263705Y-91727531D02*
G75*
G03*
X290673244Y-90740524I-105J1500131D01*
G01*
X298064319Y15522511D02*
G75*
G03*
X296654781Y14535534I81J-1500111D01*
G01*
X47424075Y11167434D02*
G75*
G03*
X49773352Y9522501I2349225J855066D01*
G01*
X124251202Y15522503D02*
X120351824Y15522502D01*
X215611623Y11167453D02*
X214385742Y14535534D01*
X207667287Y14535533D02*
X206441406Y11167451D01*
X294248359Y-85727554D02*
G75*
G03*
X291899129Y-87372442I-59J-2499946D01*
G01*
X293079667Y9522466D02*
G75*
G03*
X295428899Y11167452I33J2499934D01*
G01*
X121210865Y-85727493D02*
X231167185Y-85727493D01*
X384735866Y-85727533D02*
G75*
G03*
X382386637Y-87372440I34J-2500067D01*
G01*
X390685745Y14535535D02*
G75*
G03*
X389276216Y15522507I-1409545J-513035D01*
G01*
X245035853Y-85727492D02*
X280379674Y-85727494D01*
X340311036Y14535534D02*
X339085155Y11167452D01*
X204092174Y9522502D02*
X129235854Y9522502D01*
X121210865Y-85727533D02*
G75*
G03*
X118861636Y-87372442I35J-2500067D01*
G01*
X120351824Y15522478D02*
G75*
G03*
X118942285Y14535532I-24J-1499978D01*
G01*
X234742323Y-90740515D02*
G75*
G03*
X236151838Y-91727493I1409677J513215D01*
G01*
X350604612Y-85727482D02*
G75*
G03*
X348255383Y-87372440I88J-2500118D01*
G01*
X341720582Y-91727492D02*
X345619960Y-91727492D01*
X294248359Y-85727494D02*
X336735930Y-85727493D01*
X233516417Y-87372443D02*
X234742298Y-90740524D01*
X39479783Y14535531D02*
X38253902Y11167450D01*
X4376820Y15522546D02*
G75*
G03*
X2967282Y14535530I-20J-1499946D01*
G01*
X-9024145Y-83166836D02*
X-6902826Y-85288156D01*
X8885163Y-87372445D02*
G75*
G03*
X6535927Y-85727497I-2349163J-854955D01*
G01*
X115367170Y9522500D02*
X49773352Y9522501D01*
X384735866Y-85727492D02*
X396380205Y-85727492D01*
X-9463484Y5901183D02*
X-9463485Y-82106176D01*
X396380205Y-85727521D02*
G75*
G03*
X397440865Y-85288150I-205J1500421D01*
G01*
X46198249Y14535536D02*
G75*
G03*
X44788700Y15522502I-1409749J-513336D01*
G01*
X304599130Y11167458D02*
G75*
G03*
X306948347Y9522504I2349370J855242D01*
G01*
X10911575Y11167433D02*
G75*
G03*
X13260851Y9522500I2349225J855067D01*
G01*
X336735923Y9522503D02*
X306948347Y9522504D01*
X391911634Y11167457D02*
X390685753Y14535538D01*
X39301832Y-91727495D02*
X43201209Y-91727496D01*
X214385741Y14535534D02*
G75*
G03*
X212976205Y15522503I-1409541J-513034D01*
G01*
X-607832Y9522499D02*
X-5842167Y9522500D01*
X282728905Y-87372444D02*
X283954787Y-90740526D01*
X15419956Y-91727552D02*
G75*
G03*
X16829496Y-90740526I-56J1500052D01*
G01*
X44610749Y-90740525D02*
X45836631Y-87372443D01*
X109691469Y-87372423D02*
G75*
G03*
X107342182Y-85727493I-2349369J-855277D01*
G01*
X350604612Y-85727492D02*
X370867182Y-85727491D01*
X-9463484Y-82106176D02*
G75*
G03*
X-9024145Y-83166836I1500184J76D01*
G01*
X348255372Y11167454D02*
G75*
G03*
X350604604Y9522505I2349228J855046D01*
G01*
X109691413Y-87372443D02*
X110917295Y-90740525D01*
X373216471Y-87372421D02*
G75*
G03*
X370867182Y-85727491I-2349371J-855279D01*
G01*
X35904670Y9522472D02*
G75*
G03*
X38253902Y11167450I-170J2500228D01*
G01*
X9685748Y14535535D02*
G75*
G03*
X8276198Y15522501I-1409748J-513335D01*
G01*
X240051216Y-91727485D02*
G75*
G03*
X241460756Y-90740522I84J1499885D01*
G01*
X116226213Y-91727482D02*
G75*
G03*
X117635752Y-90740523I87J1499882D01*
G01*
X20404610Y-85727496D02*
X34317179Y-85727495D01*
X347029500Y-90740521D02*
X348255382Y-87372440D01*
X-5842165Y-85727497D02*
X6535927Y-85727497D01*
D11*
%TO.C,D93*%
X334375000Y-3968750D02*
G75*
G03*
X334375000Y-3968750I-1000000J0D01*
G01*
%TO.C,D92*%
X48625000Y-42068750D02*
G75*
G03*
X48625000Y-42068750I-1000000J0D01*
G01*
%TO.C,D94*%
X353425000Y-3968750D02*
G75*
G03*
X353425000Y-3968750I-1000000J0D01*
G01*
%TD*%
M02*
