M48
; DRILL file {KiCad 7.0.2} date Sun Jul  2 01:29:10 2023
; FORMAT={-:-/ absolute / inch / decimal}
; #@! TF.CreationDate,2023-07-02T01:29:10+10:00
; #@! TF.GenerationSoftware,Kicad,Pcbnew,7.0.2
; #@! TF.FileFunction,NonPlated,1,2,NPTH
FMAT,2
INCH
; #@! TA.AperFunction,NonPlated,NPTH,ComponentDrill
T1C0.0689
; #@! TA.AperFunction,NonPlated,NPTH,ComponentDrill
T2C0.1200
; #@! TA.AperFunction,NonPlated,NPTH,ComponentDrill
T3C0.1570
; #@! TA.AperFunction,NonPlated,NPTH,ComponentDrill
T4C0.1575
%
G90
G05
T1
X4.425Y-1.6875
X4.425Y-2.4375
X4.425Y-3.1875
X4.425Y-3.9375
X4.425Y-4.6875
X4.825Y-1.6875
X4.825Y-2.4375
X4.825Y-3.1875
X4.825Y-3.9375
X4.825Y-4.6875
X5.175Y-1.6875
X5.175Y-2.4375
X5.175Y-3.1875
X5.175Y-3.9375
X5.175Y-4.6875
X5.575Y-1.6875
X5.575Y-2.4375
X5.575Y-3.1875
X5.575Y-3.9375
X5.575Y-4.6875
X6.1125Y-1.6875
X6.2062Y-3.1875
X6.2062Y-3.9375
X6.3Y-2.4375
X6.3Y-4.6875
X6.3937Y-3.1875
X6.5125Y-1.6875
X6.5812Y-3.9375
X6.6063Y-3.1875
X6.6063Y-3.9375
X6.7Y-2.4375
X6.7Y-4.6875
X6.7938Y-3.1875
X6.8625Y-1.6875
X6.9813Y-3.9375
X7.05Y-3.9375
X7.2375Y-2.4375
X7.2625Y-1.6875
X7.425Y-3.1875
X7.45Y-3.9375
X7.6125Y-1.6875
X7.6375Y-2.4375
X7.8Y-3.9375
X7.825Y-3.1875
X7.9875Y-2.4375
X8.0125Y-1.6875
X8.175Y-3.1875
X8.175Y-4.6875
X8.2Y-3.9375
X8.3625Y-1.6875
X8.3875Y-2.4375
X8.55Y-3.9375
X8.575Y-3.1875
X8.575Y-4.6875
X8.7375Y-2.4375
X8.7625Y-1.6875
X8.925Y-3.1875
X8.95Y-3.9375
X9.1125Y-1.6875
X9.1375Y-2.4375
X9.3Y-3.9375
X9.325Y-3.1875
X9.4875Y-2.4375
X9.5125Y-1.6875
X9.675Y-3.1875
X9.7Y-3.9375
X9.8625Y-1.6875
X9.8875Y-2.4375
X10.05Y-3.9375
X10.075Y-3.1875
X10.2375Y-2.4375
X10.2625Y-1.6875
X10.425Y-3.1875
X10.45Y-3.9375
X10.6125Y-1.6875
X10.6375Y-2.4375
X10.8Y-3.9375
X10.825Y-3.1875
X10.9875Y-2.4375
X11.0125Y-1.6875
X11.175Y-3.1875
X11.2Y-3.9375
X11.3625Y-1.6875
X11.3625Y-4.6868
X11.3875Y-2.4375
X11.55Y-3.9375
X11.575Y-3.1875
X11.7375Y-2.4375
X11.7625Y-1.6875
X11.7625Y-4.6868
X11.925Y-3.1875
X11.95Y-3.9375
X12.1125Y-1.6875
X12.1375Y-2.4375
X12.3Y-3.9375
X12.325Y-3.1875
X12.4875Y-2.4375
X12.5125Y-1.6875
X12.675Y-3.1875
X12.7Y-3.9375
X12.8625Y-1.6875
X12.8875Y-2.4375
X13.05Y-3.9375
X13.075Y-3.1875
X13.2375Y-2.4375
X13.2625Y-1.6875
X13.425Y-3.1875
X13.45Y-3.9375
X13.6125Y-1.6875
X13.6375Y-2.4375
X13.8Y-3.9375
X13.825Y-3.1875
X13.9875Y-2.4375
X14.0125Y-1.6875
X14.175Y-3.1875
X14.2Y-3.9375
X14.3625Y-1.6875
X14.3875Y-2.4375
X14.55Y-3.9375
X14.55Y-4.6875
X14.575Y-3.1875
X14.7375Y-2.4375
X14.7625Y-1.6875
X14.925Y-3.1875
X14.95Y-3.9375
X14.95Y-4.6875
X15.1125Y-1.6875
X15.1375Y-2.4375
X15.325Y-3.1875
X15.4875Y-2.4375
X15.5125Y-1.6875
X15.5812Y-3.9375
X15.8625Y-1.6875
X15.8875Y-2.4375
X15.9562Y-3.9375
X15.9812Y-3.9375
X16.1425Y-3.1875
X16.2375Y-1.6875
X16.2625Y-1.6875
X16.3562Y-3.9375
X16.425Y-2.4375
X16.425Y-4.6875
X16.5425Y-3.1875
X16.61Y-3.9375
X16.6125Y-1.6875
X16.6375Y-1.6875
X16.825Y-2.4375
X16.825Y-4.6875
X17.01Y-3.9375
X17.0125Y-1.6875
X17.55Y-1.6875
X17.55Y-2.4375
X17.55Y-3.1875
X17.55Y-3.9375
X17.55Y-4.6875
X17.925Y-4.6875
X17.95Y-1.6875
X17.95Y-2.4375
X17.95Y-3.1875
X17.95Y-3.9375
X17.95Y-4.6875
X18.3Y-1.6875
X18.3Y-2.4375
X18.3Y-3.1875
X18.3Y-3.9375
X18.3Y-4.6875
X18.325Y-4.6875
X18.7Y-1.6875
X18.7Y-2.4375
X18.7Y-3.1875
X18.7Y-3.9375
X18.7Y-4.6875
X19.05Y-1.6875
X19.05Y-2.4375
X19.05Y-3.1875
X19.05Y-3.9375
X19.05Y-4.6875
X19.45Y-1.6875
X19.45Y-2.4375
X19.45Y-3.1875
X19.45Y-3.9375
X19.45Y-4.6875
X19.8Y-1.6875
X20.0Y-2.2375
X20.0Y-2.6125
X20.0Y-2.6375
X20.0Y-2.9875
X20.0Y-3.0125
X20.0Y-3.3875
X20.0Y-3.7375
X20.0Y-4.1125
X20.0Y-4.1375
X20.0Y-4.4875
X20.0Y-4.5125
X20.0Y-4.8875
X20.2Y-1.6875
T2
X6.3113Y-3.6625
X7.2512Y-3.6625
X9.3125Y-4.9618
X13.8125Y-4.9618
X15.6862Y-3.6625
X15.8725Y-3.4625
X15.9675Y-1.4125
X16.6262Y-3.6625
X16.8125Y-3.4625
X16.9075Y-1.4125
X17.655Y-4.9625
X18.595Y-4.9625
X20.275Y-2.3425
X20.275Y-3.2825
X20.275Y-3.8425
X20.275Y-4.7825
T3
X6.3113Y-4.2613
X7.2512Y-4.2613
X9.3125Y-4.363
X13.8125Y-4.363
X15.6862Y-4.2613
X15.8725Y-2.8637
X15.9675Y-2.0113
X16.6262Y-4.2613
X16.8125Y-2.8637
X16.9075Y-2.0113
X17.655Y-4.3637
X18.595Y-4.3637
X19.6762Y-2.3425
X19.6762Y-3.2825
X19.6762Y-3.8425
X19.6762Y-4.7825
T4
X4.625Y-1.6875
X4.625Y-2.4375
X4.625Y-3.1875
X4.625Y-3.9375
X4.625Y-4.6875
X5.375Y-1.6875
X5.375Y-2.4375
X5.375Y-3.1875
X5.375Y-3.9375
X5.375Y-4.6875
X6.3125Y-1.6875
X6.4062Y-3.1875
X6.4062Y-3.9375
X6.5Y-2.4375
X6.5Y-4.6875
X6.5938Y-3.1875
X6.7812Y-3.9375
X7.0625Y-1.6875
X7.25Y-3.9375
X7.4375Y-2.4375
X7.625Y-3.1875
X7.8125Y-1.6875
X8.0Y-3.9375
X8.1875Y-2.4375
X8.375Y-3.1875
X8.375Y-4.6875
X8.5625Y-1.6875
X8.75Y-3.9375
X8.9375Y-2.4375
X9.125Y-3.1875
X9.3125Y-1.6875
X9.5Y-3.9375
X9.6875Y-2.4375
X9.875Y-3.1875
X10.0625Y-1.6875
X10.25Y-3.9375
X10.4375Y-2.4375
X10.625Y-3.1875
X10.8125Y-1.6875
X11.0Y-3.9375
X11.1875Y-2.4375
X11.375Y-3.1875
X11.5625Y-1.6875
X11.5625Y-4.6868
X11.75Y-3.9375
X11.9375Y-2.4375
X12.125Y-3.1875
X12.3125Y-1.6875
X12.5Y-3.9375
X12.6875Y-2.4375
X12.875Y-3.1875
X13.0625Y-1.6875
X13.25Y-3.9375
X13.4375Y-2.4375
X13.625Y-3.1875
X13.8125Y-1.6875
X14.0Y-3.9375
X14.1875Y-2.4375
X14.375Y-3.1875
X14.5625Y-1.6875
X14.75Y-3.9375
X14.75Y-4.6875
X14.9375Y-2.4375
X15.125Y-3.1875
X15.3125Y-1.6875
X15.6875Y-2.4375
X15.7812Y-3.9375
X16.0625Y-1.6875
X16.1562Y-3.9375
X16.3425Y-3.1875
X16.4375Y-1.6875
X16.625Y-2.4375
X16.625Y-4.6875
X16.81Y-3.9375
X16.8125Y-1.6875
X17.75Y-1.6875
X17.75Y-2.4375
X17.75Y-3.1875
X17.75Y-3.9375
X17.75Y-4.6875
X18.125Y-4.6875
X18.5Y-1.6875
X18.5Y-2.4375
X18.5Y-3.1875
X18.5Y-3.9375
X18.5Y-4.6875
X19.25Y-1.6875
X19.25Y-2.4375
X19.25Y-3.1875
X19.25Y-3.9375
X19.25Y-4.6875
X20.0Y-1.6875
X20.0Y-2.4375
X20.0Y-2.8125
X20.0Y-3.1875
X20.0Y-3.9375
X20.0Y-4.3125
X20.0Y-4.6875
T0
M30
