M48
; DRILL file {KiCad 7.0.2} date Wed Jul 26 10:20:05 2023
; FORMAT={-:-/ absolute / inch / decimal}
; #@! TF.CreationDate,2023-07-26T10:20:05+10:00
; #@! TF.GenerationSoftware,Kicad,Pcbnew,7.0.2
; #@! TF.FileFunction,Plated,1,2,PTH
FMAT,2
INCH
; #@! TA.AperFunction,Plated,PTH,ViaDrill
T1C0.0118
; #@! TA.AperFunction,Plated,PTH,ComponentDrill
T2C0.0138
; #@! TA.AperFunction,Plated,PTH,ViaDrill
T3C0.0197
; #@! TA.AperFunction,Plated,PTH,ComponentDrill
T4C0.0394
; #@! TA.AperFunction,Plated,PTH,ComponentDrill
T5C0.0600
; #@! TA.AperFunction,Plated,PTH,ComponentDrill
T6C0.1181
; #@! TA.AperFunction,Plated,PTH,ComponentDrill
T7C0.1200
%
G90
G05
T1
X-0.3445Y-0.8025
X-0.3445Y-0.9075
X-0.2045Y-1.9325
X-0.2045Y-2.0375
X-0.2045Y-2.4625
X-0.2045Y-2.5675
X-0.19Y-1.6125
X-0.1545Y-1.0875
X-0.1445Y-0.8075
X-0.1445Y-0.9125
X-0.11Y-1.6125
X-0.11Y-1.7125
X-0.0984Y-1.1958
X-0.0945Y-1.9325
X-0.0945Y-2.0375
X-0.0945Y-2.4625
X-0.0945Y-2.5675
X-0.0295Y-2.6225
X-0.0295Y-2.7275
X0.0155Y-0.9075
X0.0155Y-1.0125
X0.0155Y-1.0925
X0.02Y-0.1925
X0.02Y-0.2975
X0.2055Y-2.6225
X0.2055Y-2.7275
X0.21Y-0.8125
X0.2505Y-2.3675
X0.255Y-0.1925
X0.255Y-0.2975
X0.2605Y-1.8275
X0.2605Y-1.9225
X0.325Y-0.8125
X0.3805Y-1.8775
X0.3855Y-2.0625
X0.405Y-0.6425
X0.405Y-0.7075
X0.4355Y-0.9725
X0.47Y-0.6275
X0.485Y-0.8125
X0.4955Y-2.6725
X0.4955Y-2.7775
X0.5005Y-2.3675
X0.525Y-0.8075
X0.525Y-1.2825
X0.5255Y-1.0275
X0.5255Y-1.0775
X0.5255Y-1.8675
X0.5255Y-1.9475
X0.5705Y-2.4575
X0.5705Y-2.5625
X0.605Y-1.6125
X0.605Y-1.7125
X0.605Y-1.8125
X0.635Y-0.9725
X0.6355Y-1.0275
X0.6355Y-1.0775
X0.68Y-1.2275
X0.6805Y-2.4575
X0.6805Y-2.5625
X0.695Y-1.6125
X0.695Y-1.7125
X0.695Y-1.8125
X0.7005Y-0.9632
X0.7005Y-1.0881
X0.705Y-0.4025
X0.7055Y-1.0275
X0.71Y-0.4825
X0.7305Y-2.6725
X0.7305Y-2.7775
X0.735Y-0.5825
X0.7555Y-1.0881
X0.795Y-0.9825
X0.81Y-1.2175
X0.815Y-0.3975
X0.815Y-0.4725
X0.835Y-0.1925
X0.835Y-0.2975
X0.845Y-0.6775
X0.86Y-1.6525
X0.865Y-0.8275
X0.865Y-1.7275
X0.87Y-1.7975
X0.87Y-1.8725
X0.895Y-1.4025
X0.91Y-1.1875
X0.9405Y-1.9125
X0.9405Y-2.4775
X0.9556Y-1.0127
X0.9705Y-1.6225
X0.9755Y-2.6025
X0.9921Y-1.1258
X0.995Y-0.5775
X1.0Y-1.4375
X1.0236Y-0.7474
X1.05Y-0.5225
X1.06Y-0.6475
X1.07Y-0.1925
X1.07Y-0.2975
X1.0755Y-1.9125
X1.1255Y-1.5025
X1.1255Y-1.5575
X1.1255Y-1.6125
X1.14Y-0.5675
X1.145Y-0.4325
X1.1495Y-0.7925
X1.18Y-0.7475
X1.1855Y-1.2075
X1.2255Y-0.7875
X1.2305Y-1.1675
X1.2405Y-1.9675
X1.245Y-0.6825
X1.2455Y-1.2175
X1.2555Y-1.8575
X1.2705Y-0.8475
X1.2937Y-1.2843
X1.3055Y-1.3375
X1.3105Y-2.7775
X1.33Y-0.5975
X1.345Y-0.9625
X1.345Y-1.0875
X1.355Y-0.9225
X1.3555Y-1.2375
X1.3755Y-1.3925
X1.3905Y-1.9675
X1.4055Y-0.2825
X1.4155Y-0.9475
X1.4205Y-1.1725
X1.4455Y-1.3825
X1.465Y-1.0825
X1.49Y-1.4325
X1.5355Y-1.2425
X1.5455Y-1.0575
X1.5455Y-2.6725
X1.5455Y-2.7775
X1.5805Y-1.0825
X1.5855Y-1.1925
X1.6155Y-1.1225
X1.6555Y-0.1175
X1.6555Y-0.2225
X1.68Y-1.2425
X1.6855Y-1.0625
X1.6855Y-1.1675
X1.735Y-0.4325
X1.7705Y-1.0625
X1.8905Y-0.1175
X1.8905Y-0.2225
X1.9605Y-1.6225
X1.9605Y-1.6575
X1.9605Y-1.6925
X2.0155Y-1.8775
X2.0155Y-1.9475
X2.2105Y-0.1175
X2.2105Y-0.2225
X2.2405Y-2.6725
X2.2405Y-2.7775
X2.3855Y-1.7075
X2.415Y-0.2811
X2.4455Y-0.1175
X2.4455Y-0.2225
X2.4755Y-2.6725
X2.4755Y-2.7775
X2.5105Y-0.8625
X2.6305Y-1.1075
X2.6355Y-0.9575
X2.6555Y-1.6125
X2.6555Y-1.7175
X2.7455Y-0.8625
X2.7705Y-1.0675
X2.7705Y-1.1725
X2.8905Y-1.6125
X2.8905Y-1.7175
X2.9755Y-0.1175
X2.9755Y-0.2225
X2.9805Y-0.8625
X2.9805Y-0.9675
X3.168Y-0.29
X3.2055Y-2.6725
X3.2055Y-2.7775
X3.2105Y-0.1175
X3.2105Y-0.2225
X3.265Y-0.2825
X3.3205Y-1.9825
X3.3355Y-0.8725
X3.3355Y-0.9775
X3.3555Y-1.0675
X3.3555Y-1.1725
X3.4405Y-2.6725
X3.4405Y-2.7775
X3.4755Y-1.6125
X3.4755Y-1.7175
X3.5205Y-1.0675
X3.5205Y-1.1725
X3.5555Y-1.9825
X3.5705Y-0.8725
X3.5705Y-0.9775
X3.7105Y-0.1175
X3.7105Y-0.2225
X3.7105Y-1.6125
X3.7105Y-1.7175
X3.8Y-0.2875
X3.8813Y-0.3012
X3.9455Y-0.1175
X3.9455Y-0.2225
X3.975Y-0.2925
X4.0405Y-1.9825
X4.0805Y-0.8725
X4.0805Y-0.9775
X4.1105Y-1.0675
X4.1105Y-1.1725
X4.2105Y-1.6125
X4.2105Y-1.7175
X4.2455Y-2.6725
X4.2455Y-2.7775
X4.2755Y-1.0675
X4.2755Y-1.1725
X4.2755Y-1.9825
X4.3155Y-0.8725
X4.3155Y-0.9775
X4.4455Y-1.6125
X4.4455Y-1.7175
X4.4655Y-0.1175
X4.4655Y-0.2225
X4.4805Y-2.6725
X4.4805Y-2.7775
X4.55Y-0.2925
X4.6334Y-0.3075
X4.69Y-0.2925
X4.7005Y-0.1175
X4.7005Y-0.2225
X4.7805Y-1.9825
X4.7905Y-0.8725
X4.7905Y-0.9775
X4.8605Y-1.0675
X4.8605Y-1.1725
X4.9655Y-1.6125
X4.9655Y-1.7175
X5.0155Y-1.9825
X5.0255Y-0.8725
X5.0255Y-0.9775
X5.0255Y-1.0675
X5.0255Y-1.1725
X5.2005Y-1.6125
X5.2005Y-1.7175
X5.2205Y-0.1175
X5.2205Y-0.2225
X5.34Y-0.3025
X5.4335Y-0.3095
X5.4555Y-0.1175
X5.4555Y-0.2225
X5.47Y-0.2925
X5.5655Y-1.9825
X5.5705Y-0.8725
X5.5705Y-0.9775
X5.6105Y-1.0675
X5.6105Y-1.1725
X5.7505Y-1.6125
X5.7505Y-1.7175
X5.7755Y-1.0675
X5.7755Y-1.1725
X5.8005Y-1.9825
X5.8055Y-0.8725
X5.8055Y-0.9775
X5.9455Y-0.1175
X5.9455Y-0.2225
X5.9855Y-1.6125
X5.9855Y-1.7175
X6.05Y-0.3025
X6.1805Y-0.1175
X6.1805Y-0.2225
X6.185Y-0.3025
X6.3255Y-1.9825
X6.3355Y-0.8725
X6.3355Y-0.9775
X6.3505Y-1.0675
X6.3505Y-1.1725
X6.4155Y-2.6675
X6.4155Y-2.7725
X6.4755Y-1.6125
X6.4755Y-1.7175
X6.4843Y-1.8668
X6.5605Y-1.8675
X6.5605Y-1.9825
X6.5705Y-0.8725
X6.5705Y-0.9775
X6.5755Y-1.0675
X6.5755Y-1.1725
X6.6505Y-2.6675
X6.6505Y-2.7725
X6.6905Y-0.1175
X6.6905Y-0.2225
X6.7105Y-1.6125
X6.7105Y-1.7175
X6.815Y-0.3075
X6.9105Y-1.0675
X6.9105Y-1.1725
X6.9255Y-0.1175
X6.9255Y-0.2225
X6.945Y-0.3025
X7.0605Y-1.8675
X7.0605Y-1.9725
X7.2217Y-1.8842
X7.2405Y-1.6125
X7.2405Y-1.7175
X7.2955Y-1.0675
X7.2955Y-1.1725
X7.2955Y-1.8675
X7.2955Y-1.9725
X7.4655Y-0.1175
X7.4655Y-0.2225
X7.4755Y-1.6125
X7.4755Y-1.7175
X7.58Y-0.2925
X7.7005Y-0.1175
X7.7005Y-0.2225
X7.735Y-0.2875
X7.7505Y-1.0675
X7.7505Y-1.1725
X7.8405Y-1.8525
X7.8405Y-1.9575
X7.8805Y-2.6675
X7.8805Y-2.7725
X7.9355Y-1.1675
X7.9355Y-1.2725
X7.9855Y-1.6125
X7.9855Y-1.7175
X8.0183Y-1.8508
X8.0755Y-1.8525
X8.0755Y-1.9575
X8.1155Y-2.6675
X8.1155Y-2.7725
X8.1705Y-1.1675
X8.1705Y-1.2725
X8.2005Y-0.1175
X8.2005Y-0.2225
X8.2205Y-1.6125
X8.2205Y-1.7175
X8.335Y-0.2975
X8.4355Y-0.1175
X8.4355Y-0.2225
X8.49Y-0.2975
X8.5955Y-1.8625
X8.5955Y-1.9675
X8.6905Y-1.1825
X8.6905Y-1.2875
X8.7205Y-1.6125
X8.7205Y-1.7175
X8.7833Y-1.8258
X8.8305Y-1.8625
X8.8305Y-1.9675
X8.9255Y-1.1825
X8.9255Y-1.2875
X8.9455Y-0.1175
X8.9455Y-0.2225
X8.9555Y-1.6125
X8.9555Y-1.7175
X9.065Y-0.2975
X9.1805Y-0.1175
X9.1805Y-0.2225
X9.19Y-0.2925
X9.3355Y-1.8525
X9.3355Y-1.9575
X9.3905Y-1.1825
X9.3905Y-1.2875
X9.4605Y-1.6125
X9.4605Y-1.7175
X9.5305Y-2.6725
X9.5305Y-2.7775
X9.5357Y-1.8182
X9.5705Y-1.8525
X9.5705Y-1.9575
X9.6255Y-1.1825
X9.6255Y-1.2875
X9.6955Y-1.6125
X9.6955Y-1.7175
X9.7055Y-0.1175
X9.7055Y-0.2225
X9.7655Y-2.6725
X9.7655Y-2.7775
X9.85Y-0.2875
X9.9348Y-0.3127
X9.9405Y-0.1175
X9.9405Y-0.2225
X9.975Y-0.2875
X10.0705Y-1.8525
X10.0705Y-1.9575
X10.1355Y-1.1825
X10.1355Y-1.2875
X10.2205Y-1.6125
X10.2205Y-1.7175
X10.3055Y-1.8525
X10.3055Y-1.9575
X10.3705Y-1.1825
X10.3705Y-1.2875
X10.4505Y-0.1175
X10.4505Y-0.2225
X10.4555Y-1.6125
X10.4555Y-1.7175
X10.59Y-0.3125
X10.6705Y-1.8425
X10.6705Y-1.9475
X10.6755Y-2.6675
X10.6755Y-2.7725
X10.6855Y-0.1175
X10.6855Y-0.2225
X10.6973Y-0.3257
X10.7255Y-1.1825
X10.7255Y-1.2875
X10.765Y-0.2975
X10.7805Y-1.8425
X10.7805Y-1.9475
X10.9105Y-2.6675
X10.9105Y-2.7725
X10.9605Y-1.1825
X10.9605Y-1.2875
X11.3805Y-2.6725
X11.3805Y-2.7775
X11.5005Y-1.1875
X11.5005Y-1.2925
X11.535Y-0.3475
X11.5505Y-1.6125
X11.5505Y-1.7175
X11.6155Y-2.6725
X11.6155Y-2.7775
X11.64Y-0.2775
X11.64Y-0.3275
X11.6605Y-1.6125
X11.6605Y-1.7175
X11.7355Y-1.1875
X11.7355Y-1.2925
X11.75Y-0.4075
X11.76Y-0.3375
X11.905Y-0.3075
X12.0055Y-0.2275
X12.2105Y-2.6675
X12.2655Y-2.8225
X12.44Y-0.3425
X12.4455Y-2.6675
X12.4455Y-2.7725
X12.565Y-0.2711
X12.7305Y-0.2325
X12.76Y-0.0275
X12.795Y-0.3325
X12.8955Y-0.3925
X12.8955Y-0.4975
X12.8955Y-1.1725
X12.8955Y-1.2775
X12.8955Y-1.9225
X12.8955Y-2.0275
X12.9813Y-2.3633
X13.1305Y-0.3925
X13.1305Y-0.4975
X13.1305Y-1.1725
X13.1305Y-1.2775
X13.1305Y-1.9225
X13.1305Y-2.0275
X13.2255Y-0.1075
X13.2255Y-0.1425
X13.2255Y-0.1775
X13.2605Y-0.2325
X13.2605Y-2.5075
X13.2605Y-2.6125
X13.285Y-0.3475
X13.4955Y-2.5075
X13.4955Y-2.6125
X13.6055Y-0.3925
X13.6055Y-0.4975
X13.6355Y-1.1725
X13.6355Y-1.2775
X13.6505Y-1.9225
X13.6505Y-2.0275
X13.7766Y-2.3775
X13.8405Y-0.3925
X13.8405Y-0.4975
X13.8705Y-1.1725
X13.8705Y-1.2775
X13.8855Y-1.9225
X13.8855Y-2.0275
X13.9705Y-0.1225
X13.9705Y-0.1575
X13.9705Y-0.1925
X14.07Y-0.1475
X14.1Y-0.3675
X14.3655Y-0.3675
X14.3655Y-0.4725
X14.3755Y-2.4825
X14.3755Y-2.5875
X14.3755Y-2.6975
X14.3755Y-2.8025
X14.3805Y-1.1725
X14.3805Y-1.2775
X14.3855Y-1.9225
X14.3855Y-2.0275
X14.6005Y-0.3675
X14.6005Y-0.4725
X14.6105Y-2.4825
X14.6105Y-2.5875
X14.6105Y-2.6975
X14.6105Y-2.8025
X14.6155Y-1.1725
X14.6155Y-1.2775
X14.6205Y-1.9225
X14.6205Y-2.0275
X15.1105Y-0.3675
X15.1105Y-0.4725
X15.3455Y-0.3675
X15.3455Y-0.4725
T2
X1.0048Y-0.9936
X1.0048Y-1.0437
X1.0048Y-1.0939
X1.055Y-0.9936
X1.055Y-1.0437
X1.055Y-1.0939
X1.1052Y-0.9936
X1.1052Y-1.0437
X1.1052Y-1.0939
T3
X11.085Y-0.1975
X11.18Y-0.154
T4
X-0.2895Y-0.8325
X-0.2895Y-0.9325
X-0.2895Y-1.0325
X-0.2895Y-1.1325
X-0.2895Y-1.2325
T5
X-0.1508Y-1.4
X-0.1508Y-2.15
X-0.1508Y-2.9
X-0.15Y0.1
X-0.15Y-0.65
X0.0992Y-1.3
X0.0992Y-2.05
X0.0992Y-2.8
X0.1Y0.2
X0.1Y-0.55
X0.6Y0.1
X0.6Y-0.65
X0.6Y-1.4
X0.6Y-2.15
X0.6Y-2.9
X0.85Y0.2
X0.85Y-0.55
X0.85Y-1.3
X0.85Y-2.05
X0.85Y-2.8
X1.5375Y0.1
X1.6312Y-1.4
X1.6312Y-2.15
X1.725Y-0.65
X1.725Y-2.9
X1.7875Y0.2
X1.8187Y-1.4
X1.8812Y-1.3
X1.8812Y-2.05
X1.975Y-0.55
X1.975Y-2.8
X2.0063Y-2.15
X2.0688Y-1.3
X2.2563Y-2.05
X2.2875Y0.1
X2.475Y-2.15
X2.5375Y0.2
X2.6625Y-0.65
X2.725Y-2.05
X2.85Y-1.4
X2.9125Y-0.55
X3.0375Y0.1
X3.1Y-1.3
X3.225Y-2.15
X3.2875Y0.2
X3.4125Y-0.65
X3.475Y-2.05
X3.6Y-1.4
X3.6Y-2.9
X3.6625Y-0.55
X3.7875Y0.1
X3.85Y-1.3
X3.85Y-2.8
X3.975Y-2.15
X4.0375Y0.2
X4.1625Y-0.65
X4.225Y-2.05
X4.35Y-1.4
X4.4125Y-0.55
X4.5375Y0.1
X4.6Y-1.3
X4.725Y-2.15
X4.7875Y0.2
X4.9125Y-0.65
X4.975Y-2.05
X5.1Y-1.4
X5.1625Y-0.55
X5.2875Y0.1
X5.35Y-1.3
X5.475Y-2.15
X5.5375Y0.2
X5.6625Y-0.65
X5.725Y-2.05
X5.85Y-1.4
X5.9125Y-0.55
X6.0375Y0.1
X6.1Y-1.3
X6.225Y-2.15
X6.2875Y0.2
X6.4125Y-0.65
X6.475Y-2.05
X6.6Y-1.4
X6.6625Y-0.55
X6.7875Y0.1
X6.7875Y-2.8993
X6.85Y-1.3
X6.975Y-2.15
X7.0375Y0.2
X7.0375Y-2.7993
X7.1625Y-0.65
X7.225Y-2.05
X7.35Y-1.4
X7.4125Y-0.55
X7.5375Y0.1
X7.6Y-1.3
X7.725Y-2.15
X7.7875Y0.2
X7.9125Y-0.65
X7.975Y-2.05
X8.1Y-1.4
X8.1625Y-0.55
X8.2875Y0.1
X8.35Y-1.3
X8.475Y-2.15
X8.5375Y0.2
X8.6625Y-0.65
X8.725Y-2.05
X8.85Y-1.4
X8.9125Y-0.55
X9.0375Y0.1
X9.1Y-1.3
X9.225Y-2.15
X9.2875Y0.2
X9.4125Y-0.65
X9.475Y-2.05
X9.6Y-1.4
X9.6625Y-0.55
X9.7875Y0.1
X9.85Y-1.3
X9.975Y-2.15
X9.975Y-2.9
X10.0375Y0.2
X10.1625Y-0.65
X10.225Y-2.05
X10.225Y-2.8
X10.35Y-1.4
X10.4125Y-0.55
X10.5375Y0.1
X10.6Y-1.3
X10.7875Y0.2
X10.9125Y-0.65
X11.0062Y-2.15
X11.1625Y-0.55
X11.2562Y-2.05
X11.2875Y0.1
X11.3812Y-2.15
X11.5375Y0.2
X11.5675Y-1.4
X11.6312Y-2.05
X11.6625Y0.1
X11.8175Y-1.3
X11.8492Y-0.65
X11.8492Y-2.9
X11.9125Y0.2
X12.0367Y0.1
X12.0367Y-2.15
X12.0992Y-0.55
X12.0992Y-2.8
X12.2867Y0.2
X12.2867Y-2.05
X12.975Y0.1
X12.975Y-0.65
X12.975Y-1.4
X12.975Y-2.15
X12.975Y-2.9
X13.225Y0.2
X13.225Y-0.55
X13.225Y-1.3
X13.225Y-2.05
X13.225Y-2.8
X13.35Y-2.9
X13.6Y-2.8
X13.725Y0.1
X13.725Y-0.65
X13.725Y-1.4
X13.725Y-2.15
X13.725Y-2.9
X13.975Y0.2
X13.975Y-0.55
X13.975Y-1.3
X13.975Y-2.05
X13.975Y-2.8
X14.475Y0.1
X14.475Y-0.65
X14.475Y-1.4
X14.475Y-2.15
X14.475Y-2.9
X14.725Y0.2
X14.725Y-0.55
X14.725Y-1.3
X14.725Y-2.05
X14.725Y-2.8
X15.175Y-0.65
X15.175Y-1.025
X15.175Y-1.4
X15.175Y-2.15
X15.175Y-2.525
X15.175Y-2.9
X15.225Y0.1
X15.275Y-0.9
X15.275Y-1.275
X15.275Y-1.65
X15.275Y-2.4
X15.275Y-2.775
X15.275Y-3.15
X15.475Y0.2
T6
X0.2498Y0.494
X0.5305Y-3.4924
X1.6246Y-3.493
X1.6872Y0.4936
X4.4998Y-3.4924
X4.8154Y0.4936
X8.3083Y0.494
X9.3742Y-3.4928
X11.3122Y-3.4922
X11.812Y0.4938
X13.5305Y-3.4926
X13.5313Y0.493
X14.8744Y-3.4922
X15.2494Y0.4934
T7
X1.6875Y-1.975
X2.625Y-1.975
X4.6875Y-3.2743
X9.1875Y-3.2743
X11.0617Y-1.975
X11.2492Y-1.775
X11.343Y0.275
X11.9992Y-1.975
X12.1867Y-1.775
X12.2805Y0.275
X13.0312Y-3.275
X13.9688Y-3.275
X15.65Y-0.6562
X15.65Y-1.5938
X15.65Y-2.1562
X15.65Y-3.0938
T0
M30
