%TF.GenerationSoftware,KiCad,Pcbnew,7.0.2*%
%TF.CreationDate,2023-07-26T10:20:05+10:00*%
%TF.ProjectId,W1-AT PCB,57312d41-5420-4504-9342-2e6b69636164,rev?*%
%TF.SameCoordinates,Original*%
%TF.FileFunction,Paste,Bot*%
%TF.FilePolarity,Positive*%
%FSLAX46Y46*%
G04 Gerber Fmt 4.6, Leading zero omitted, Abs format (unit mm)*
G04 Created by KiCad (PCBNEW 7.0.2) date 2023-07-26 10:20:05*
%MOMM*%
%LPD*%
G01*
G04 APERTURE LIST*
G04 Aperture macros list*
%AMRoundRect*
0 Rectangle with rounded corners*
0 $1 Rounding radius*
0 $2 $3 $4 $5 $6 $7 $8 $9 X,Y pos of 4 corners*
0 Add a 4 corners polygon primitive as box body*
4,1,4,$2,$3,$4,$5,$6,$7,$8,$9,$2,$3,0*
0 Add four circle primitives for the rounded corners*
1,1,$1+$1,$2,$3*
1,1,$1+$1,$4,$5*
1,1,$1+$1,$6,$7*
1,1,$1+$1,$8,$9*
0 Add four rect primitives between the rounded corners*
20,1,$1+$1,$2,$3,$4,$5,0*
20,1,$1+$1,$4,$5,$6,$7,0*
20,1,$1+$1,$6,$7,$8,$9,0*
20,1,$1+$1,$8,$9,$2,$3,0*%
G04 Aperture macros list end*
%ADD10RoundRect,0.225000X0.375000X-0.225000X0.375000X0.225000X-0.375000X0.225000X-0.375000X-0.225000X0*%
%ADD11RoundRect,0.250000X-0.375000X-0.625000X0.375000X-0.625000X0.375000X0.625000X-0.375000X0.625000X0*%
%ADD12RoundRect,0.225000X-0.375000X0.225000X-0.375000X-0.225000X0.375000X-0.225000X0.375000X0.225000X0*%
%ADD13RoundRect,0.150000X-0.150000X-0.275000X0.150000X-0.275000X0.150000X0.275000X-0.150000X0.275000X0*%
%ADD14RoundRect,0.175000X-0.175000X-0.225000X0.175000X-0.225000X0.175000X0.225000X-0.175000X0.225000X0*%
%ADD15RoundRect,0.250000X0.292217X-0.292217X0.292217X0.292217X-0.292217X0.292217X-0.292217X-0.292217X0*%
%ADD16RoundRect,0.050000X0.050000X-0.387500X0.050000X0.387500X-0.050000X0.387500X-0.050000X-0.387500X0*%
%ADD17RoundRect,0.050000X0.387500X-0.050000X0.387500X0.050000X-0.387500X0.050000X-0.387500X-0.050000X0*%
%ADD18RoundRect,0.135000X0.135000X0.185000X-0.135000X0.185000X-0.135000X-0.185000X0.135000X-0.185000X0*%
%ADD19RoundRect,0.135000X-0.185000X0.135000X-0.185000X-0.135000X0.185000X-0.135000X0.185000X0.135000X0*%
%ADD20RoundRect,0.140000X-0.170000X0.140000X-0.170000X-0.140000X0.170000X-0.140000X0.170000X0.140000X0*%
%ADD21RoundRect,0.150000X0.150000X-0.600000X0.150000X0.600000X-0.150000X0.600000X-0.150000X-0.600000X0*%
%ADD22RoundRect,0.225000X-0.225000X-0.375000X0.225000X-0.375000X0.225000X0.375000X-0.225000X0.375000X0*%
%ADD23RoundRect,0.140000X-0.140000X-0.170000X0.140000X-0.170000X0.140000X0.170000X-0.140000X0.170000X0*%
%ADD24RoundRect,0.140000X-0.219203X-0.021213X-0.021213X-0.219203X0.219203X0.021213X0.021213X0.219203X0*%
%ADD25RoundRect,0.140000X0.170000X-0.140000X0.170000X0.140000X-0.170000X0.140000X-0.170000X-0.140000X0*%
%ADD26RoundRect,0.135000X0.226274X0.035355X0.035355X0.226274X-0.226274X-0.035355X-0.035355X-0.226274X0*%
%ADD27RoundRect,0.150000X0.150000X-0.475000X0.150000X0.475000X-0.150000X0.475000X-0.150000X-0.475000X0*%
%ADD28RoundRect,0.140000X0.219203X0.021213X0.021213X0.219203X-0.219203X-0.021213X-0.021213X-0.219203X0*%
%ADD29RoundRect,0.075000X-0.318198X-0.212132X-0.212132X-0.318198X0.318198X0.212132X0.212132X0.318198X0*%
%ADD30RoundRect,0.062500X0.494975X-0.583363X0.583363X-0.494975X-0.494975X0.583363X-0.583363X0.494975X0*%
%ADD31RoundRect,0.137500X0.612500X-0.137500X0.612500X0.137500X-0.612500X0.137500X-0.612500X-0.137500X0*%
%ADD32RoundRect,0.140000X0.021213X-0.219203X0.219203X-0.021213X-0.021213X0.219203X-0.219203X0.021213X0*%
%ADD33RoundRect,0.135000X0.185000X-0.135000X0.185000X0.135000X-0.185000X0.135000X-0.185000X-0.135000X0*%
%ADD34RoundRect,0.150000X-0.587500X-0.150000X0.587500X-0.150000X0.587500X0.150000X-0.587500X0.150000X0*%
%ADD35O,1.900000X0.400000*%
%ADD36RoundRect,0.100000X0.850000X-0.100000X0.850000X0.100000X-0.850000X0.100000X-0.850000X-0.100000X0*%
G04 APERTURE END LIST*
D10*
%TO.C,D11*%
X51054000Y-6539500D03*
X51054000Y-3239500D03*
%TD*%
D11*
%TO.C,F2*%
X179067000Y-24447500D03*
X181867000Y-24447500D03*
%TD*%
D10*
%TO.C,D15*%
X55003670Y-79437500D03*
X55003670Y-76137500D03*
%TD*%
D12*
%TO.C,D56*%
X255587500Y-30893750D03*
X255587500Y-34193750D03*
%TD*%
D10*
%TO.C,D67*%
X341312500Y-6412500D03*
X341312500Y-3112500D03*
%TD*%
D12*
%TO.C,D28*%
X112712500Y-48356250D03*
X112712500Y-51656250D03*
%TD*%
D13*
%TO.C,J3*%
X192002000Y-27592500D03*
X193202000Y-27592500D03*
X194402000Y-27592500D03*
X195602000Y-27592500D03*
D14*
X190852000Y-23817500D03*
X196752000Y-23817500D03*
%TD*%
D12*
%TO.C,D57*%
X246062500Y-48356250D03*
X246062500Y-51656250D03*
%TD*%
D10*
%TO.C,D83*%
X383032000Y-6412500D03*
X383032000Y-3112500D03*
%TD*%
%TO.C,D73*%
X360553000Y-6412500D03*
X360553000Y-3112500D03*
%TD*%
D12*
%TO.C,D80*%
X377952000Y-31433500D03*
X377952000Y-34733500D03*
%TD*%
D15*
%TO.C,U4*%
X26159500Y-27148750D03*
X27434500Y-27148750D03*
X26159500Y-25873750D03*
X27434500Y-25873750D03*
D16*
X29397000Y-29948750D03*
X28997000Y-29948750D03*
X28597000Y-29948750D03*
X28197000Y-29948750D03*
X27797000Y-29948750D03*
X27397000Y-29948750D03*
X26997000Y-29948750D03*
X26597000Y-29948750D03*
X26197000Y-29948750D03*
X25797000Y-29948750D03*
X25397000Y-29948750D03*
X24997000Y-29948750D03*
X24597000Y-29948750D03*
X24197000Y-29948750D03*
D17*
X23359500Y-29111250D03*
X23359500Y-28711250D03*
X23359500Y-28311250D03*
X23359500Y-27911250D03*
X23359500Y-27511250D03*
X23359500Y-27111250D03*
X23359500Y-26711250D03*
X23359500Y-26311250D03*
X23359500Y-25911250D03*
X23359500Y-25511250D03*
X23359500Y-25111250D03*
X23359500Y-24711250D03*
X23359500Y-24311250D03*
X23359500Y-23911250D03*
D16*
X24197000Y-23073750D03*
X24597000Y-23073750D03*
X24997000Y-23073750D03*
X25397000Y-23073750D03*
X25797000Y-23073750D03*
X26197000Y-23073750D03*
X26597000Y-23073750D03*
X26997000Y-23073750D03*
X27397000Y-23073750D03*
X27797000Y-23073750D03*
X28197000Y-23073750D03*
X28597000Y-23073750D03*
X28997000Y-23073750D03*
X29397000Y-23073750D03*
D17*
X30234500Y-23911250D03*
X30234500Y-24311250D03*
X30234500Y-24711250D03*
X30234500Y-25111250D03*
X30234500Y-25511250D03*
X30234500Y-25911250D03*
X30234500Y-26311250D03*
X30234500Y-26711250D03*
X30234500Y-27111250D03*
X30234500Y-27511250D03*
X30234500Y-27911250D03*
X30234500Y-28311250D03*
X30234500Y-28711250D03*
X30234500Y-29111250D03*
%TD*%
D12*
%TO.C,D47*%
X212725000Y-11050000D03*
X212725000Y-14350000D03*
%TD*%
%TO.C,D39*%
X174625000Y-11050000D03*
X174625000Y-14350000D03*
%TD*%
%TO.C,D27*%
X122428000Y-31433500D03*
X122428000Y-34733500D03*
%TD*%
%TO.C,D64*%
X291306250Y-11050000D03*
X291306250Y-14350000D03*
%TD*%
D10*
%TO.C,D42*%
X183769000Y-6539500D03*
X183769000Y-3239500D03*
%TD*%
%TO.C,D33*%
X145796000Y-6539500D03*
X145796000Y-3239500D03*
%TD*%
D18*
%TO.C,R4*%
X38241670Y-25844500D03*
X37221670Y-25844500D03*
%TD*%
D12*
%TO.C,D76*%
X360426000Y-50229500D03*
X360426000Y-53529500D03*
%TD*%
%TO.C,D43*%
X193675000Y-11050000D03*
X193675000Y-14350000D03*
%TD*%
D19*
%TO.C,R7*%
X24650670Y-43368500D03*
X24650670Y-44388500D03*
%TD*%
D20*
%TO.C,C10*%
X25539670Y-32522956D03*
X25539670Y-33482956D03*
%TD*%
D12*
%TO.C,D69*%
X315912500Y-11050000D03*
X315912500Y-14350000D03*
%TD*%
D10*
%TO.C,D63*%
X278892000Y-6412500D03*
X278892000Y-3112500D03*
%TD*%
D21*
%TO.C,D93*%
X331975000Y-3968750D03*
X334775000Y-3968750D03*
%TD*%
D12*
%TO.C,D14*%
X60325000Y-48356250D03*
X60325000Y-51656250D03*
%TD*%
%TO.C,D34*%
X155575000Y-11050000D03*
X155575000Y-14350000D03*
%TD*%
D22*
%TO.C,D84*%
X382399000Y-10350500D03*
X385699000Y-10350500D03*
%TD*%
D12*
%TO.C,D52*%
X236728000Y-31433500D03*
X236728000Y-34733500D03*
%TD*%
%TO.C,D88*%
X341249000Y-11113500D03*
X341249000Y-14413500D03*
%TD*%
%TO.C,D85*%
X380619000Y-31433500D03*
X380619000Y-34733500D03*
%TD*%
%TO.C,D23*%
X103378000Y-31433500D03*
X103378000Y-34733500D03*
%TD*%
%TO.C,D89*%
X341312500Y-30893750D03*
X341312500Y-34193750D03*
%TD*%
D22*
%TO.C,D86*%
X382652000Y-49593500D03*
X385952000Y-49593500D03*
%TD*%
D10*
%TO.C,D6*%
X27178000Y-6539500D03*
X27178000Y-3239500D03*
%TD*%
D12*
%TO.C,D48*%
X217678000Y-31433500D03*
X217678000Y-34733500D03*
%TD*%
D10*
%TO.C,D78*%
X379857000Y-6412500D03*
X379857000Y-3112500D03*
%TD*%
D21*
%TO.C,D92*%
X46225000Y-42068750D03*
X49025000Y-42068750D03*
%TD*%
D19*
%TO.C,R6*%
X-4813330Y-24445500D03*
X-4813330Y-25465500D03*
%TD*%
D23*
%TO.C,C6*%
X33302000Y-26733500D03*
X34262000Y-26733500D03*
%TD*%
D10*
%TO.C,D20*%
X102997000Y-79437500D03*
X102997000Y-76137500D03*
%TD*%
D12*
%TO.C,D74*%
X360362500Y-11050000D03*
X360362500Y-14350000D03*
%TD*%
%TO.C,D79*%
X378618750Y-10256250D03*
X378618750Y-13556250D03*
%TD*%
D10*
%TO.C,D58*%
X260223000Y-6539500D03*
X260223000Y-3239500D03*
%TD*%
D12*
%TO.C,D71*%
X317500000Y-50229500D03*
X317500000Y-53529500D03*
%TD*%
D10*
%TO.C,D8*%
X11557000Y-39432500D03*
X11557000Y-36132500D03*
%TD*%
D12*
%TO.C,D10*%
X27178000Y-69914500D03*
X27178000Y-73214500D03*
%TD*%
%TO.C,D81*%
X378460000Y-50102500D03*
X378460000Y-53402500D03*
%TD*%
D24*
%TO.C,C4*%
X30902589Y-31474089D03*
X31581411Y-32152911D03*
%TD*%
D20*
%TO.C,C11*%
X35306000Y-26634500D03*
X35306000Y-27594500D03*
%TD*%
D25*
%TO.C,C3*%
X33401000Y-24391500D03*
X33401000Y-23431500D03*
%TD*%
D26*
%TO.C,R2*%
X38587624Y-40175124D03*
X37866376Y-39453876D03*
%TD*%
D12*
%TO.C,D7*%
X12446000Y-11112500D03*
X12446000Y-14412500D03*
%TD*%
D10*
%TO.C,D50*%
X222504000Y-6539500D03*
X222504000Y-3239500D03*
%TD*%
D25*
%TO.C,C8*%
X19558000Y-25562500D03*
X19558000Y-24602500D03*
%TD*%
D12*
%TO.C,D24*%
X93662500Y-48356250D03*
X93662500Y-51656250D03*
%TD*%
D25*
%TO.C,C9*%
X31381670Y-22260500D03*
X31381670Y-21300500D03*
%TD*%
D10*
%TO.C,D46*%
X203454000Y-6539500D03*
X203454000Y-3239500D03*
%TD*%
D12*
%TO.C,D70*%
X304546000Y-31306500D03*
X304546000Y-34606500D03*
%TD*%
D10*
%TO.C,D68*%
X282575000Y-6412500D03*
X282575000Y-3112500D03*
%TD*%
D27*
%TO.C,U3*%
X181925000Y-29559500D03*
X180975000Y-29559500D03*
X180025000Y-29634500D03*
X180025000Y-27209500D03*
X180975000Y-27209500D03*
X181925000Y-27209500D03*
%TD*%
D10*
%TO.C,D38*%
X164973000Y-6539500D03*
X164973000Y-3239500D03*
%TD*%
D12*
%TO.C,D91*%
X323088000Y-70168500D03*
X323088000Y-73468500D03*
%TD*%
D18*
%TO.C,R5*%
X38241670Y-24828500D03*
X37221670Y-24828500D03*
%TD*%
D10*
%TO.C,D25*%
X107442000Y-6539500D03*
X107442000Y-3239500D03*
%TD*%
D12*
%TO.C,D5*%
X8128000Y-69914500D03*
X8128000Y-73214500D03*
%TD*%
%TO.C,D90*%
X342900000Y-50229500D03*
X342900000Y-53529500D03*
%TD*%
%TO.C,D87*%
X381381000Y-70168500D03*
X381381000Y-73468500D03*
%TD*%
D10*
%TO.C,D1*%
X8267670Y-6540500D03*
X8267670Y-3240500D03*
%TD*%
D12*
%TO.C,D77*%
X360426000Y-70168500D03*
X360426000Y-73468500D03*
%TD*%
%TO.C,D17*%
X79375000Y-11050000D03*
X79375000Y-14350000D03*
%TD*%
D10*
%TO.C,D54*%
X241300000Y-6539500D03*
X241300000Y-3239500D03*
%TD*%
D12*
%TO.C,D59*%
X269875000Y-11050000D03*
X269875000Y-14350000D03*
%TD*%
D21*
%TO.C,D94*%
X351025000Y-3968750D03*
X353825000Y-3968750D03*
%TD*%
D10*
%TO.C,D3*%
X8001000Y-39431500D03*
X8001000Y-36131500D03*
%TD*%
D12*
%TO.C,D32*%
X131762500Y-48356250D03*
X131762500Y-51656250D03*
%TD*%
%TO.C,D26*%
X117475000Y-11050000D03*
X117475000Y-14350000D03*
%TD*%
D25*
%TO.C,C5*%
X30365670Y-22260500D03*
X30365670Y-21300500D03*
%TD*%
D12*
%TO.C,D41*%
X169862500Y-48324500D03*
X169862500Y-51624500D03*
%TD*%
%TO.C,D53*%
X227012500Y-48324500D03*
X227012500Y-51624500D03*
%TD*%
%TO.C,D82*%
X378841000Y-70168500D03*
X378841000Y-73468500D03*
%TD*%
D28*
%TO.C,C17*%
X39595081Y-30882911D03*
X38916259Y-30204089D03*
%TD*%
D20*
%TO.C,C15*%
X176542670Y-24447500D03*
X176542670Y-25407500D03*
%TD*%
D12*
%TO.C,D2*%
X8731250Y-11050000D03*
X8731250Y-14350000D03*
%TD*%
%TO.C,D45*%
X188912500Y-48324500D03*
X188912500Y-51624500D03*
%TD*%
D19*
%TO.C,R1*%
X16903670Y-25586501D03*
X16903670Y-26606501D03*
%TD*%
D10*
%TO.C,D37*%
X184416670Y-79437500D03*
X184416670Y-76137500D03*
%TD*%
D25*
%TO.C,C16*%
X170192670Y-23530500D03*
X170192670Y-22570500D03*
%TD*%
D12*
%TO.C,D51*%
X231775000Y-11050000D03*
X231775000Y-14350000D03*
%TD*%
D10*
%TO.C,D72*%
X312813670Y-79437500D03*
X312813670Y-76137500D03*
%TD*%
D12*
%TO.C,D75*%
X360553000Y-31433500D03*
X360553000Y-34733500D03*
%TD*%
D23*
%TO.C,C7*%
X31397000Y-23685500D03*
X32357000Y-23685500D03*
%TD*%
D12*
%TO.C,D18*%
X84328000Y-31433500D03*
X84328000Y-34733500D03*
%TD*%
D10*
%TO.C,D62*%
X265188670Y-79437500D03*
X265188670Y-76137500D03*
%TD*%
D12*
%TO.C,D40*%
X179578000Y-31433500D03*
X179578000Y-34733500D03*
%TD*%
D25*
%TO.C,C13*%
X18542000Y-25534500D03*
X18542000Y-24574500D03*
%TD*%
D12*
%TO.C,D12*%
X55562500Y-11050000D03*
X55562500Y-14350000D03*
%TD*%
D10*
%TO.C,D65*%
X319278000Y-12634500D03*
X319278000Y-9334500D03*
%TD*%
D12*
%TO.C,D30*%
X136525000Y-11050000D03*
X136525000Y-14350000D03*
%TD*%
%TO.C,D22*%
X98425000Y-11050000D03*
X98425000Y-14350000D03*
%TD*%
D20*
%TO.C,C14*%
X36322000Y-26634500D03*
X36322000Y-27594500D03*
%TD*%
D12*
%TO.C,D60*%
X274637500Y-30893750D03*
X274637500Y-34193750D03*
%TD*%
%TO.C,D4*%
X8128000Y-50356500D03*
X8128000Y-53656500D03*
%TD*%
D29*
%TO.C,U5*%
X35923431Y-33076059D03*
X35569878Y-32722506D03*
X35216324Y-32368952D03*
X34862771Y-32015399D03*
X36842670Y-30035500D03*
X37196223Y-30389053D03*
X37549777Y-30742607D03*
X37903330Y-31096160D03*
D30*
X36383050Y-31555779D03*
%TD*%
D31*
%TO.C,SW1*%
X19824670Y-46773500D03*
X19824670Y-43523500D03*
%TD*%
D12*
%TO.C,D19*%
X74612500Y-48356250D03*
X74612500Y-51656250D03*
%TD*%
D32*
%TO.C,C12*%
X25441589Y-17928911D03*
X26120411Y-17250089D03*
%TD*%
D12*
%TO.C,D66*%
X300037500Y-48356250D03*
X300037500Y-51656250D03*
%TD*%
D33*
%TO.C,R3*%
X329311000Y-4508500D03*
X329311000Y-3488500D03*
%TD*%
D12*
%TO.C,D44*%
X198628000Y-31433500D03*
X198628000Y-34733500D03*
%TD*%
%TO.C,D49*%
X207962500Y-48324500D03*
X207962500Y-51624500D03*
%TD*%
%TO.C,D31*%
X141478000Y-31433500D03*
X141478000Y-34733500D03*
%TD*%
D10*
%TO.C,D29*%
X126238000Y-6539500D03*
X126238000Y-3239500D03*
%TD*%
D12*
%TO.C,D35*%
X160528000Y-31433500D03*
X160528000Y-34733500D03*
%TD*%
D10*
%TO.C,D21*%
X88646000Y-6539500D03*
X88646000Y-3239500D03*
%TD*%
D34*
%TO.C,U1*%
X172496000Y-25397500D03*
X172496000Y-23497500D03*
X174371000Y-24447500D03*
%TD*%
D12*
%TO.C,D36*%
X150812500Y-48356250D03*
X150812500Y-51656250D03*
%TD*%
D33*
%TO.C,R8*%
X348488000Y-4381500D03*
X348488000Y-3361500D03*
%TD*%
D10*
%TO.C,D16*%
X69723000Y-6539500D03*
X69723000Y-3239500D03*
%TD*%
D12*
%TO.C,D13*%
X57277000Y-32322500D03*
X57277000Y-35622500D03*
%TD*%
D35*
%TO.C,Y2*%
X14912142Y-27952000D03*
D36*
X14912142Y-26752000D03*
X14912142Y-25552000D03*
%TD*%
D12*
%TO.C,D55*%
X250825000Y-11050000D03*
X250825000Y-14350000D03*
%TD*%
%TO.C,D9*%
X11176000Y-50356500D03*
X11176000Y-53656500D03*
%TD*%
%TO.C,D61*%
X265112500Y-48356250D03*
X265112500Y-51656250D03*
%TD*%
M02*
