%TF.GenerationSoftware,KiCad,Pcbnew,7.0.2*%
%TF.CreationDate,2023-07-26T10:20:05+10:00*%
%TF.ProjectId,W1-AT PCB,57312d41-5420-4504-9342-2e6b69636164,rev?*%
%TF.SameCoordinates,Original*%
%TF.FileFunction,Soldermask,Top*%
%TF.FilePolarity,Negative*%
%FSLAX46Y46*%
G04 Gerber Fmt 4.6, Leading zero omitted, Abs format (unit mm)*
G04 Created by KiCad (PCBNEW 7.0.2) date 2023-07-26 10:20:05*
%MOMM*%
%LPD*%
G01*
G04 APERTURE LIST*
%ADD10C,1.750000*%
%ADD11C,3.987800*%
%ADD12C,4.000000*%
%ADD13R,1.700000X1.700000*%
%ADD14O,1.700000X1.700000*%
G04 APERTURE END LIST*
D10*
%TO.C,SW2*%
X-5080000Y0D03*
D11*
X0Y0D03*
D10*
X5080000Y0D03*
%TD*%
%TO.C,SW56*%
X237807500Y-19050000D03*
D11*
X242887500Y-19050000D03*
D10*
X247967500Y-19050000D03*
%TD*%
D11*
%TO.C,S1*%
X233362500Y-67928097D03*
X119062500Y-67928097D03*
%TD*%
D10*
%TO.C,SW33*%
X118745000Y-57150000D03*
D11*
X123825000Y-57150000D03*
D10*
X128905000Y-57150000D03*
%TD*%
%TO.C,SW49*%
X204470000Y-38100000D03*
D11*
X209550000Y-38100000D03*
D10*
X214630000Y-38100000D03*
%TD*%
%TO.C,SW78*%
X390525000Y-81280000D03*
D11*
X390525000Y-76200000D03*
D10*
X390525000Y-71120000D03*
%TD*%
D11*
%TO.C,S3*%
X42862500Y-65405000D03*
X66675000Y-65405000D03*
%TD*%
%TO.C,S4*%
X288112170Y-8255000D03*
X311924670Y-8255000D03*
%TD*%
D10*
%TO.C,SW63*%
X252095000Y-76200000D03*
D11*
X257175000Y-76200000D03*
D10*
X262255000Y-76200000D03*
%TD*%
%TO.C,SW51*%
X209232500Y0D03*
D11*
X214312500Y0D03*
D10*
X219392500Y0D03*
%TD*%
%TO.C,SW52*%
X218757500Y-19050000D03*
D11*
X223837500Y-19050000D03*
D10*
X228917500Y-19050000D03*
%TD*%
%TO.C,SW7*%
X13970000Y0D03*
D11*
X19050000Y0D03*
D10*
X24130000Y0D03*
%TD*%
D12*
%TO.C,H5*%
X114294670Y-88707501D03*
%TD*%
%TO.C,H2*%
X343674670Y-88712879D03*
%TD*%
D10*
%TO.C,SW97*%
X337820000Y-76200000D03*
D11*
X342900000Y-76200000D03*
D10*
X347980000Y-76200000D03*
%TD*%
%TO.C,SW70*%
X299700920Y-19050000D03*
D11*
X304780920Y-19050000D03*
D10*
X309860920Y-19050000D03*
%TD*%
%TO.C,SW30*%
X113982500Y0D03*
D11*
X119062500Y0D03*
D10*
X124142500Y0D03*
%TD*%
%TO.C,SW37*%
X137795000Y-57150000D03*
D11*
X142875000Y-57150000D03*
D10*
X147955000Y-57150000D03*
%TD*%
%TO.C,SW81*%
X366395000Y-38100000D03*
D11*
X371475000Y-38100000D03*
D10*
X376555000Y-38100000D03*
%TD*%
%TO.C,SW14*%
X44926250Y-38100000D03*
D11*
X50006250Y-38100000D03*
D10*
X55086250Y-38100000D03*
%TD*%
D12*
%TO.C,H7*%
X343694670Y12522499D03*
%TD*%
D10*
%TO.C,SW31*%
X123507500Y-19050000D03*
D11*
X128587500Y-19050000D03*
D10*
X133667500Y-19050000D03*
%TD*%
%TO.C,SW40*%
X161607500Y-19050000D03*
D11*
X166687500Y-19050000D03*
D10*
X171767500Y-19050000D03*
%TD*%
%TO.C,SW6*%
X-5099080Y-76200000D03*
D11*
X-19080Y-76200000D03*
D10*
X5060920Y-76200000D03*
%TD*%
%TO.C,SW93*%
X328295000Y-38100000D03*
D11*
X333375000Y-38100000D03*
D10*
X338455000Y-38100000D03*
%TD*%
%TO.C,SW19*%
X71120000Y-38100000D03*
D11*
X76200000Y-38100000D03*
D10*
X81280000Y-38100000D03*
%TD*%
%TO.C,SW92*%
X278288750Y-57150000D03*
D11*
X283368750Y-57150000D03*
D10*
X288448750Y-57150000D03*
%TD*%
%TO.C,SW18*%
X66357500Y-19050000D03*
D11*
X71437500Y-19050000D03*
D10*
X76517500Y-19050000D03*
%TD*%
%TO.C,SW58*%
X233045000Y-57150000D03*
D11*
X238125000Y-57150000D03*
D10*
X243205000Y-57150000D03*
%TD*%
%TO.C,SW3*%
X-5080000Y-19050000D03*
D11*
X0Y-19050000D03*
D10*
X5080000Y-19050000D03*
%TD*%
%TO.C,SW83*%
X347345000Y-76200000D03*
D11*
X352425000Y-76200000D03*
D10*
X357505000Y-76200000D03*
%TD*%
D12*
%TO.C,H10*%
X238104670Y-88717501D03*
%TD*%
%TO.C,H11*%
X6344670Y12547121D03*
%TD*%
D10*
%TO.C,SW41*%
X166370000Y-38100000D03*
D11*
X171450000Y-38100000D03*
D10*
X176530000Y-38100000D03*
%TD*%
%TO.C,SW16*%
X42545000Y-76200000D03*
D11*
X47625000Y-76200000D03*
D10*
X52705000Y-76200000D03*
%TD*%
%TO.C,SW45*%
X185420000Y-38100000D03*
D11*
X190500000Y-38100000D03*
D10*
X195580000Y-38100000D03*
%TD*%
%TO.C,SW44*%
X180657500Y-19050000D03*
D11*
X185737500Y-19050000D03*
D10*
X190817500Y-19050000D03*
%TD*%
%TO.C,SW24*%
X90170000Y-38100000D03*
D11*
X95250000Y-38100000D03*
D10*
X100330000Y-38100000D03*
%TD*%
%TO.C,SW35*%
X142557500Y-19050000D03*
D11*
X147637500Y-19050000D03*
D10*
X152717500Y-19050000D03*
%TD*%
%TO.C,SW10*%
X13970000Y-57150000D03*
D11*
X19050000Y-57150000D03*
D10*
X24130000Y-57150000D03*
%TD*%
D11*
%TO.C,S8*%
X382270000Y-16668750D03*
X382270000Y-40481250D03*
%TD*%
D10*
%TO.C,SW48*%
X199707500Y-19050000D03*
D11*
X204787500Y-19050000D03*
D10*
X209867500Y-19050000D03*
%TD*%
%TO.C,SW68*%
X287813750Y-57150000D03*
D11*
X292893750Y-57150000D03*
D10*
X297973750Y-57150000D03*
%TD*%
%TO.C,SW84*%
X385445000Y0D03*
D11*
X390525000Y0D03*
D10*
X395605000Y0D03*
%TD*%
D11*
%TO.C,S5*%
X309543420Y-29845000D03*
X285730920Y-29845000D03*
%TD*%
D10*
%TO.C,SW77*%
X347345000Y-57150000D03*
D11*
X352425000Y-57150000D03*
D10*
X357505000Y-57150000D03*
%TD*%
%TO.C,SW74*%
X347345000Y0D03*
D11*
X352425000Y0D03*
D10*
X357505000Y0D03*
%TD*%
%TO.C,SW86*%
X390525000Y-43180000D03*
D11*
X390525000Y-38100000D03*
D10*
X390525000Y-33020000D03*
%TD*%
D11*
%TO.C,S6*%
X280968420Y-65405000D03*
X304780920Y-65405000D03*
%TD*%
D10*
%TO.C,SW75*%
X347345000Y-19050000D03*
D11*
X352425000Y-19050000D03*
D10*
X357505000Y-19050000D03*
%TD*%
%TO.C,SW54*%
X213995000Y-57150000D03*
D11*
X219075000Y-57150000D03*
D10*
X224155000Y-57150000D03*
%TD*%
D11*
%TO.C,S7*%
X354806250Y-67945000D03*
X330993750Y-67945000D03*
%TD*%
D10*
%TO.C,SW50*%
X194945000Y-57150000D03*
D11*
X200025000Y-57150000D03*
D10*
X205105000Y-57150000D03*
%TD*%
D12*
%TO.C,H3*%
X13474670Y-88707501D03*
%TD*%
D10*
%TO.C,SW42*%
X156845000Y-57150000D03*
D11*
X161925000Y-57150000D03*
D10*
X167005000Y-57150000D03*
%TD*%
%TO.C,SW28*%
X109220000Y-38100000D03*
D11*
X114300000Y-38100000D03*
D10*
X119380000Y-38100000D03*
%TD*%
%TO.C,SW23*%
X85407500Y-19050000D03*
D11*
X90487500Y-19050000D03*
D10*
X95567500Y-19050000D03*
%TD*%
%TO.C,SW38*%
X171132500Y-76183097D03*
D11*
X176212500Y-76183097D03*
D10*
X181292500Y-76183097D03*
%TD*%
%TO.C,SW20*%
X61595000Y-57150000D03*
D11*
X66675000Y-57150000D03*
D10*
X71755000Y-57150000D03*
%TD*%
%TO.C,SW47*%
X190182500Y0D03*
D11*
X195262500Y0D03*
D10*
X200342500Y0D03*
%TD*%
%TO.C,SW73*%
X299700920Y-76200000D03*
D11*
X304780920Y-76200000D03*
D10*
X309860920Y-76200000D03*
%TD*%
%TO.C,SW87*%
X390525000Y-71755000D03*
D11*
X390525000Y-66675000D03*
D10*
X390525000Y-61595000D03*
%TD*%
%TO.C,SW12*%
X37782500Y0D03*
D11*
X42862500Y0D03*
D10*
X47942500Y0D03*
%TD*%
D12*
%TO.C,H8*%
X377809972Y-88702879D03*
%TD*%
D10*
%TO.C,SW62*%
X252095000Y-57150000D03*
D11*
X257175000Y-57150000D03*
D10*
X262255000Y-57150000D03*
%TD*%
D12*
%TO.C,H9*%
X287329972Y-88702879D03*
%TD*%
D10*
%TO.C,SW22*%
X75882500Y0D03*
D11*
X80962500Y0D03*
D10*
X86042500Y0D03*
%TD*%
%TO.C,SW89*%
X40163750Y-38100000D03*
D11*
X45243750Y-38100000D03*
D10*
X50323750Y-38100000D03*
%TD*%
D12*
%TO.C,H14*%
X387334670Y12532499D03*
%TD*%
D10*
%TO.C,SW76*%
X347345000Y-38100000D03*
D11*
X352425000Y-38100000D03*
D10*
X357505000Y-38100000D03*
%TD*%
D12*
%TO.C,H1*%
X300024670Y12542499D03*
%TD*%
D10*
%TO.C,SW21*%
X90170000Y-76200000D03*
D11*
X95250000Y-76200000D03*
D10*
X100330000Y-76200000D03*
%TD*%
%TO.C,SW82*%
X366395000Y-57150000D03*
D11*
X371475000Y-57150000D03*
D10*
X376555000Y-57150000D03*
%TD*%
D11*
%TO.C,S9*%
X382270000Y-54768750D03*
X382270000Y-78581250D03*
%TD*%
D10*
%TO.C,SW91*%
X328295000Y-19050000D03*
D11*
X333375000Y-19050000D03*
D10*
X338455000Y-19050000D03*
%TD*%
%TO.C,SW65*%
X275907500Y-19050000D03*
D11*
X280987500Y-19050000D03*
D10*
X286067500Y-19050000D03*
%TD*%
%TO.C,SW96*%
X328295000Y-57150000D03*
D11*
X333375000Y-57150000D03*
D10*
X338455000Y-57150000D03*
%TD*%
%TO.C,SW69*%
X285432500Y0D03*
D11*
X290512500Y0D03*
D10*
X295592500Y0D03*
%TD*%
%TO.C,SW34*%
X133032500Y0D03*
D11*
X138112500Y0D03*
D10*
X143192500Y0D03*
%TD*%
%TO.C,SW79*%
X366395000Y0D03*
D11*
X371475000Y0D03*
D10*
X376555000Y0D03*
%TD*%
%TO.C,SW60*%
X256857500Y-19050000D03*
D11*
X261937500Y-19050000D03*
D10*
X267017500Y-19050000D03*
%TD*%
%TO.C,SW15*%
X49688750Y-57150000D03*
D11*
X54768750Y-57150000D03*
D10*
X59848750Y-57150000D03*
%TD*%
%TO.C,SW39*%
X152082500Y0D03*
D11*
X157162500Y0D03*
D10*
X162242500Y0D03*
%TD*%
%TO.C,SW67*%
X328295000Y0D03*
D11*
X333375000Y0D03*
D10*
X338455000Y0D03*
%TD*%
D12*
%TO.C,H13*%
X211029972Y12547121D03*
%TD*%
%TO.C,H4*%
X41264670Y-88722879D03*
%TD*%
D10*
%TO.C,SW72*%
X304463420Y-57150000D03*
D11*
X309543420Y-57150000D03*
D10*
X314623420Y-57150000D03*
%TD*%
%TO.C,SW27*%
X104457500Y-19050000D03*
D11*
X109537500Y-19050000D03*
D10*
X114617500Y-19050000D03*
%TD*%
%TO.C,SW95*%
X390525000Y-62230000D03*
D11*
X390525000Y-57150000D03*
D10*
X390525000Y-52070000D03*
%TD*%
%TO.C,SW5*%
X-5099080Y-57150000D03*
D11*
X-19080Y-57150000D03*
D10*
X5060920Y-57150000D03*
%TD*%
%TO.C,SW80*%
X366395000Y-19050000D03*
D11*
X371475000Y-19050000D03*
D10*
X376555000Y-19050000D03*
%TD*%
%TO.C,SW94*%
X390525000Y-24130000D03*
D11*
X390525000Y-19050000D03*
D10*
X390525000Y-13970000D03*
%TD*%
%TO.C,SW26*%
X94932500Y0D03*
D11*
X100012500Y0D03*
D10*
X105092500Y0D03*
%TD*%
%TO.C,SW4*%
X-5099080Y-38100000D03*
D11*
X-19080Y-38100000D03*
D10*
X5060920Y-38100000D03*
%TD*%
%TO.C,SW46*%
X175895000Y-57150000D03*
D11*
X180975000Y-57150000D03*
D10*
X186055000Y-57150000D03*
%TD*%
%TO.C,SW98*%
X328295000Y-76200000D03*
D11*
X333375000Y-76200000D03*
D10*
X338455000Y-76200000D03*
%TD*%
%TO.C,SW61*%
X261620000Y-38100000D03*
D11*
X266700000Y-38100000D03*
D10*
X271780000Y-38100000D03*
%TD*%
%TO.C,SW11*%
X13970000Y-76200000D03*
D11*
X19050000Y-76200000D03*
D10*
X24130000Y-76200000D03*
%TD*%
%TO.C,SW43*%
X171132500Y0D03*
D11*
X176212500Y0D03*
D10*
X181292500Y0D03*
%TD*%
D12*
%TO.C,H12*%
X42854670Y12537121D03*
%TD*%
D10*
%TO.C,SW85*%
X390525000Y-33655000D03*
D11*
X390525000Y-28575000D03*
D10*
X390525000Y-23495000D03*
%TD*%
%TO.C,SW53*%
X223520000Y-38100000D03*
D11*
X228600000Y-38100000D03*
D10*
X233680000Y-38100000D03*
%TD*%
%TO.C,SW32*%
X128270000Y-38100000D03*
D11*
X133350000Y-38100000D03*
D10*
X138430000Y-38100000D03*
%TD*%
%TO.C,SW36*%
X147320000Y-38100000D03*
D11*
X152400000Y-38100000D03*
D10*
X157480000Y-38100000D03*
%TD*%
D12*
%TO.C,H6*%
X122309972Y12537121D03*
%TD*%
D10*
%TO.C,SW71*%
X292544500Y-38100000D03*
D11*
X297624500Y-38100000D03*
D10*
X302704500Y-38100000D03*
%TD*%
%TO.C,SW64*%
X266382500Y0D03*
D11*
X271462500Y0D03*
D10*
X276542500Y0D03*
%TD*%
%TO.C,SW88*%
X366395000Y-76200000D03*
D11*
X371475000Y-76200000D03*
D10*
X376555000Y-76200000D03*
%TD*%
%TO.C,SW29*%
X99695000Y-57150000D03*
D11*
X104775000Y-57150000D03*
D10*
X109855000Y-57150000D03*
%TD*%
%TO.C,SW99*%
X304463420Y0D03*
D11*
X309543420Y0D03*
D10*
X314623420Y0D03*
%TD*%
%TO.C,SW17*%
X56832500Y0D03*
D11*
X61912500Y0D03*
D10*
X66992500Y0D03*
%TD*%
%TO.C,SW55*%
X228282500Y0D03*
D11*
X233362500Y0D03*
D10*
X238442500Y0D03*
%TD*%
%TO.C,SW25*%
X80645000Y-57150000D03*
D11*
X85725000Y-57150000D03*
D10*
X90805000Y-57150000D03*
%TD*%
%TO.C,SW9*%
X13970000Y-38100000D03*
D11*
X19050000Y-38100000D03*
D10*
X24130000Y-38100000D03*
%TD*%
%TO.C,SW57*%
X242570000Y-38100000D03*
D11*
X247650000Y-38100000D03*
D10*
X252730000Y-38100000D03*
%TD*%
%TO.C,SW59*%
X247332500Y0D03*
D11*
X252412500Y0D03*
D10*
X257492500Y0D03*
%TD*%
%TO.C,SW8*%
X13970000Y-19050000D03*
D11*
X19050000Y-19050000D03*
D10*
X24130000Y-19050000D03*
%TD*%
%TO.C,SW13*%
X42545000Y-19050000D03*
D11*
X47625000Y-19050000D03*
D10*
X52705000Y-19050000D03*
%TD*%
%TO.C,SW90*%
X40163750Y-57150000D03*
D11*
X45243750Y-57150000D03*
D10*
X50323750Y-57150000D03*
%TD*%
%TO.C,SW66*%
X294957500Y0D03*
D11*
X300037500Y0D03*
D10*
X305117500Y0D03*
%TD*%
D13*
%TO.C,J2*%
X-7353330Y-21145500D03*
D14*
X-7353330Y-23685500D03*
X-7353330Y-26225500D03*
X-7353330Y-28765500D03*
X-7353330Y-31305500D03*
%TD*%
M02*
