%TF.GenerationSoftware,KiCad,Pcbnew,7.0.2*%
%TF.CreationDate,2023-07-17T22:19:40+10:00*%
%TF.ProjectId,W1-AT PCB,57312d41-5420-4504-9342-2e6b69636164,rev?*%
%TF.SameCoordinates,Original*%
%TF.FileFunction,Soldermask,Bot*%
%TF.FilePolarity,Negative*%
%FSLAX46Y46*%
G04 Gerber Fmt 4.6, Leading zero omitted, Abs format (unit mm)*
G04 Created by KiCad (PCBNEW 7.0.2) date 2023-07-17 22:19:40*
%MOMM*%
%LPD*%
G01*
G04 APERTURE LIST*
G04 Aperture macros list*
%AMRoundRect*
0 Rectangle with rounded corners*
0 $1 Rounding radius*
0 $2 $3 $4 $5 $6 $7 $8 $9 X,Y pos of 4 corners*
0 Add a 4 corners polygon primitive as box body*
4,1,4,$2,$3,$4,$5,$6,$7,$8,$9,$2,$3,0*
0 Add four circle primitives for the rounded corners*
1,1,$1+$1,$2,$3*
1,1,$1+$1,$4,$5*
1,1,$1+$1,$6,$7*
1,1,$1+$1,$8,$9*
0 Add four rect primitives between the rounded corners*
20,1,$1+$1,$2,$3,$4,$5,0*
20,1,$1+$1,$4,$5,$6,$7,0*
20,1,$1+$1,$6,$7,$8,$9,0*
20,1,$1+$1,$8,$9,$2,$3,0*%
G04 Aperture macros list end*
%ADD10C,1.750000*%
%ADD11C,4.000000*%
%ADD12C,2.500000*%
%ADD13C,3.048000*%
%ADD14C,3.987800*%
%ADD15RoundRect,0.225000X0.375000X-0.225000X0.375000X0.225000X-0.375000X0.225000X-0.375000X-0.225000X0*%
%ADD16RoundRect,0.250000X-0.375000X-0.625000X0.375000X-0.625000X0.375000X0.625000X-0.375000X0.625000X0*%
%ADD17RoundRect,0.225000X-0.375000X0.225000X-0.375000X-0.225000X0.375000X-0.225000X0.375000X0.225000X0*%
%ADD18RoundRect,0.150000X-0.150000X-0.275000X0.150000X-0.275000X0.150000X0.275000X-0.150000X0.275000X0*%
%ADD19RoundRect,0.175000X-0.175000X-0.225000X0.175000X-0.225000X0.175000X0.225000X-0.175000X0.225000X0*%
%ADD20RoundRect,0.050000X0.050000X-0.387500X0.050000X0.387500X-0.050000X0.387500X-0.050000X-0.387500X0*%
%ADD21RoundRect,0.050000X0.387500X-0.050000X0.387500X0.050000X-0.387500X0.050000X-0.387500X-0.050000X0*%
%ADD22RoundRect,0.144000X1.456000X-1.456000X1.456000X1.456000X-1.456000X1.456000X-1.456000X-1.456000X0*%
%ADD23RoundRect,0.135000X0.135000X0.185000X-0.135000X0.185000X-0.135000X-0.185000X0.135000X-0.185000X0*%
%ADD24R,1.700000X1.700000*%
%ADD25O,1.700000X1.700000*%
%ADD26RoundRect,0.135000X-0.185000X0.135000X-0.185000X-0.135000X0.185000X-0.135000X0.185000X0.135000X0*%
%ADD27RoundRect,0.140000X-0.170000X0.140000X-0.170000X-0.140000X0.170000X-0.140000X0.170000X0.140000X0*%
%ADD28RoundRect,0.150000X0.150000X-0.600000X0.150000X0.600000X-0.150000X0.600000X-0.150000X-0.600000X0*%
%ADD29RoundRect,0.225000X-0.225000X-0.375000X0.225000X-0.375000X0.225000X0.375000X-0.225000X0.375000X0*%
%ADD30RoundRect,0.140000X-0.140000X-0.170000X0.140000X-0.170000X0.140000X0.170000X-0.140000X0.170000X0*%
%ADD31RoundRect,0.140000X-0.219203X-0.021213X-0.021213X-0.219203X0.219203X0.021213X0.021213X0.219203X0*%
%ADD32RoundRect,0.140000X0.170000X-0.140000X0.170000X0.140000X-0.170000X0.140000X-0.170000X-0.140000X0*%
%ADD33RoundRect,0.135000X0.226274X0.035355X0.035355X0.226274X-0.226274X-0.035355X-0.035355X-0.226274X0*%
%ADD34RoundRect,0.150000X0.150000X-0.475000X0.150000X0.475000X-0.150000X0.475000X-0.150000X-0.475000X0*%
%ADD35RoundRect,0.137500X0.612500X-0.137500X0.612500X0.137500X-0.612500X0.137500X-0.612500X-0.137500X0*%
%ADD36RoundRect,0.140000X0.021213X-0.219203X0.219203X-0.021213X-0.021213X0.219203X-0.219203X0.021213X0*%
%ADD37RoundRect,0.135000X0.185000X-0.135000X0.185000X0.135000X-0.185000X0.135000X-0.185000X-0.135000X0*%
%ADD38RoundRect,0.150000X-0.587500X-0.150000X0.587500X-0.150000X0.587500X0.150000X-0.587500X0.150000X0*%
%ADD39O,1.900000X0.400000*%
%ADD40RoundRect,0.100000X0.850000X-0.100000X0.850000X0.100000X-0.850000X0.100000X-0.850000X-0.100000X0*%
%ADD41RoundRect,0.075000X-0.318198X-0.212132X-0.212132X-0.318198X0.318198X0.212132X0.212132X0.318198X0*%
%ADD42RoundRect,0.062500X0.494975X-0.583363X0.583363X-0.494975X-0.494975X0.583363X-0.583363X0.494975X0*%
G04 APERTURE END LIST*
D10*
%TO.C,SW2*%
X112395000Y-42862500D03*
D11*
X117475000Y-42862500D03*
D10*
X122555000Y-42862500D03*
D12*
X113665000Y-40322500D03*
X120015000Y-37782500D03*
%TD*%
D10*
%TO.C,SW56*%
X355282500Y-61912500D03*
D11*
X360362500Y-61912500D03*
D10*
X365442500Y-61912500D03*
D12*
X356552500Y-59372500D03*
X362902500Y-56832500D03*
%TD*%
D13*
%TO.C,S1*%
X160305750Y-93027500D03*
D14*
X160305750Y-108237500D03*
D13*
X184181750Y-93027500D03*
D14*
X184181750Y-108237500D03*
%TD*%
D10*
%TO.C,SW33*%
X236220000Y-100012500D03*
D11*
X241300000Y-100012500D03*
D10*
X246380000Y-100012500D03*
D12*
X237490000Y-97472500D03*
X243840000Y-94932500D03*
%TD*%
D10*
%TO.C,SW49*%
X321945000Y-80962500D03*
D11*
X327025000Y-80962500D03*
D10*
X332105000Y-80962500D03*
D12*
X323215000Y-78422500D03*
X329565000Y-75882500D03*
%TD*%
D10*
%TO.C,SW78*%
X508000000Y-124142500D03*
D11*
X508000000Y-119062500D03*
D10*
X508000000Y-113982500D03*
D12*
X505460000Y-122872500D03*
X502920000Y-116522500D03*
%TD*%
D13*
%TO.C,S4*%
X405574500Y-35877500D03*
D14*
X405574500Y-51087500D03*
D13*
X429450500Y-35877500D03*
D14*
X429450500Y-51087500D03*
%TD*%
D10*
%TO.C,SW63*%
X369570000Y-119062500D03*
D11*
X374650000Y-119062500D03*
D10*
X379730000Y-119062500D03*
D12*
X370840000Y-116522500D03*
X377190000Y-113982500D03*
%TD*%
D10*
%TO.C,SW51*%
X326707500Y-42862500D03*
D11*
X331787500Y-42862500D03*
D10*
X336867500Y-42862500D03*
D12*
X327977500Y-40322500D03*
X334327500Y-37782500D03*
%TD*%
D10*
%TO.C,SW52*%
X336232500Y-61912500D03*
D11*
X341312500Y-61912500D03*
D10*
X346392500Y-61912500D03*
D12*
X337502500Y-59372500D03*
X343852500Y-56832500D03*
%TD*%
D10*
%TO.C,SW7*%
X131445000Y-42862500D03*
D11*
X136525000Y-42862500D03*
D10*
X141605000Y-42862500D03*
D12*
X132715000Y-40322500D03*
X139065000Y-37782500D03*
%TD*%
D11*
%TO.C,H5*%
X231769670Y-131570001D03*
%TD*%
%TO.C,H2*%
X461149670Y-131575379D03*
%TD*%
D10*
%TO.C,SW97*%
X455295000Y-119062500D03*
D11*
X460375000Y-119062500D03*
D10*
X465455000Y-119062500D03*
D12*
X456565000Y-116522500D03*
X462915000Y-113982500D03*
%TD*%
D10*
%TO.C,SW70*%
X417195000Y-61912500D03*
D11*
X422275000Y-61912500D03*
D10*
X427355000Y-61912500D03*
D12*
X418465000Y-59372500D03*
X424815000Y-56832500D03*
%TD*%
D10*
%TO.C,SW30*%
X231457500Y-42862500D03*
D11*
X236537500Y-42862500D03*
D10*
X241617500Y-42862500D03*
D12*
X232727500Y-40322500D03*
X239077500Y-37782500D03*
%TD*%
D10*
%TO.C,SW37*%
X255270000Y-100012500D03*
D11*
X260350000Y-100012500D03*
D10*
X265430000Y-100012500D03*
D12*
X256540000Y-97472500D03*
X262890000Y-94932500D03*
%TD*%
D10*
%TO.C,SW81*%
X483870000Y-80962500D03*
D11*
X488950000Y-80962500D03*
D10*
X494030000Y-80962500D03*
D12*
X485140000Y-78422500D03*
X491490000Y-75882500D03*
%TD*%
D10*
%TO.C,SW14*%
X162401250Y-80962500D03*
D11*
X167481250Y-80962500D03*
D10*
X172561250Y-80962500D03*
D12*
X163671250Y-78422500D03*
X170021250Y-75882500D03*
%TD*%
D11*
%TO.C,H7*%
X461169670Y-30340001D03*
%TD*%
D10*
%TO.C,SW31*%
X240982500Y-61912500D03*
D11*
X246062500Y-61912500D03*
D10*
X251142500Y-61912500D03*
D12*
X242252500Y-59372500D03*
X248602500Y-56832500D03*
%TD*%
D10*
%TO.C,SW40*%
X279082500Y-61912500D03*
D11*
X284162500Y-61912500D03*
D10*
X289242500Y-61912500D03*
D12*
X280352500Y-59372500D03*
X286702500Y-56832500D03*
%TD*%
D10*
%TO.C,SW6*%
X112395000Y-119062500D03*
D11*
X117475000Y-119062500D03*
D10*
X122555000Y-119062500D03*
D12*
X113665000Y-116522500D03*
X120015000Y-113982500D03*
%TD*%
D10*
%TO.C,SW93*%
X445770000Y-80962500D03*
D11*
X450850000Y-80962500D03*
D10*
X455930000Y-80962500D03*
D12*
X447040000Y-78422500D03*
X453390000Y-75882500D03*
%TD*%
D10*
%TO.C,SW19*%
X188595000Y-80962500D03*
D11*
X193675000Y-80962500D03*
D10*
X198755000Y-80962500D03*
D12*
X189865000Y-78422500D03*
X196215000Y-75882500D03*
%TD*%
D10*
%TO.C,SW92*%
X395763750Y-100012500D03*
D11*
X400843750Y-100012500D03*
D10*
X405923750Y-100012500D03*
D12*
X397033750Y-97472500D03*
X403383750Y-94932500D03*
%TD*%
D10*
%TO.C,SW18*%
X183832500Y-61912500D03*
D11*
X188912500Y-61912500D03*
D10*
X193992500Y-61912500D03*
D12*
X185102500Y-59372500D03*
X191452500Y-56832500D03*
%TD*%
D10*
%TO.C,SW58*%
X350520000Y-100012500D03*
D11*
X355600000Y-100012500D03*
D10*
X360680000Y-100012500D03*
D12*
X351790000Y-97472500D03*
X358140000Y-94932500D03*
%TD*%
D10*
%TO.C,SW3*%
X112395000Y-61912500D03*
D11*
X117475000Y-61912500D03*
D10*
X122555000Y-61912500D03*
D12*
X113665000Y-59372500D03*
X120015000Y-56832500D03*
%TD*%
D10*
%TO.C,SW83*%
X464820000Y-119062500D03*
D11*
X469900000Y-119062500D03*
D10*
X474980000Y-119062500D03*
D12*
X466090000Y-116522500D03*
X472440000Y-113982500D03*
%TD*%
D11*
%TO.C,H10*%
X355579670Y-131580001D03*
%TD*%
%TO.C,H11*%
X123819670Y-30315379D03*
%TD*%
D10*
%TO.C,SW41*%
X283845000Y-80962500D03*
D11*
X288925000Y-80962500D03*
D10*
X294005000Y-80962500D03*
D12*
X285115000Y-78422500D03*
X291465000Y-75882500D03*
%TD*%
D10*
%TO.C,SW16*%
X160020000Y-119062500D03*
D11*
X165100000Y-119062500D03*
D10*
X170180000Y-119062500D03*
D12*
X161290000Y-116522500D03*
X167640000Y-113982500D03*
%TD*%
D10*
%TO.C,SW45*%
X302895000Y-80962500D03*
D11*
X307975000Y-80962500D03*
D10*
X313055000Y-80962500D03*
D12*
X304165000Y-78422500D03*
X310515000Y-75882500D03*
%TD*%
D10*
%TO.C,SW44*%
X298132500Y-61912500D03*
D11*
X303212500Y-61912500D03*
D10*
X308292500Y-61912500D03*
D12*
X299402500Y-59372500D03*
X305752500Y-56832500D03*
%TD*%
D10*
%TO.C,SW24*%
X207645000Y-80962500D03*
D11*
X212725000Y-80962500D03*
D10*
X217805000Y-80962500D03*
D12*
X208915000Y-78422500D03*
X215265000Y-75882500D03*
%TD*%
D10*
%TO.C,SW35*%
X260032500Y-61912500D03*
D11*
X265112500Y-61912500D03*
D10*
X270192500Y-61912500D03*
D12*
X261302500Y-59372500D03*
X267652500Y-56832500D03*
%TD*%
D10*
%TO.C,SW10*%
X131445000Y-100012500D03*
D11*
X136525000Y-100012500D03*
D10*
X141605000Y-100012500D03*
D12*
X132715000Y-97472500D03*
X139065000Y-94932500D03*
%TD*%
D13*
%TO.C,S8*%
X514985000Y-59499500D03*
D14*
X499775000Y-59499500D03*
D13*
X514985000Y-83375500D03*
D14*
X499775000Y-83375500D03*
%TD*%
D10*
%TO.C,SW48*%
X317182500Y-61912500D03*
D11*
X322262500Y-61912500D03*
D10*
X327342500Y-61912500D03*
D12*
X318452500Y-59372500D03*
X324802500Y-56832500D03*
%TD*%
D10*
%TO.C,SW68*%
X405288750Y-100012500D03*
D11*
X410368750Y-100012500D03*
D10*
X415448750Y-100012500D03*
D12*
X406558750Y-97472500D03*
X412908750Y-94932500D03*
%TD*%
D10*
%TO.C,SW84*%
X502920000Y-42862500D03*
D11*
X508000000Y-42862500D03*
D10*
X513080000Y-42862500D03*
D12*
X504190000Y-40322500D03*
X510540000Y-37782500D03*
%TD*%
D13*
%TO.C,S5*%
X427037500Y-87947500D03*
D14*
X427037500Y-72737500D03*
D13*
X403161500Y-87947500D03*
D14*
X403161500Y-72737500D03*
%TD*%
D10*
%TO.C,SW77*%
X464820000Y-100012500D03*
D11*
X469900000Y-100012500D03*
D10*
X474980000Y-100012500D03*
D12*
X466090000Y-97472500D03*
X472440000Y-94932500D03*
%TD*%
D10*
%TO.C,SW74*%
X464820000Y-42862500D03*
D11*
X469900000Y-42862500D03*
D10*
X474980000Y-42862500D03*
D12*
X466090000Y-40322500D03*
X472440000Y-37782500D03*
%TD*%
D10*
%TO.C,SW86*%
X508000000Y-86042500D03*
D11*
X508000000Y-80962500D03*
D10*
X508000000Y-75882500D03*
D12*
X505460000Y-84772500D03*
X502920000Y-78422500D03*
%TD*%
D13*
%TO.C,S6*%
X398430750Y-93027500D03*
D14*
X398430750Y-108237500D03*
D13*
X422306750Y-93027500D03*
D14*
X422306750Y-108237500D03*
%TD*%
D10*
%TO.C,SW75*%
X464820000Y-61912500D03*
D11*
X469900000Y-61912500D03*
D10*
X474980000Y-61912500D03*
D12*
X466090000Y-59372500D03*
X472440000Y-56832500D03*
%TD*%
D10*
%TO.C,SW54*%
X331470000Y-100012500D03*
D11*
X336550000Y-100012500D03*
D10*
X341630000Y-100012500D03*
D12*
X332740000Y-97472500D03*
X339090000Y-94932500D03*
%TD*%
D13*
%TO.C,S7*%
X472313000Y-126047500D03*
D14*
X472313000Y-110837500D03*
D13*
X448437000Y-126047500D03*
D14*
X448437000Y-110837500D03*
%TD*%
D10*
%TO.C,SW50*%
X312420000Y-100012500D03*
D11*
X317500000Y-100012500D03*
D10*
X322580000Y-100012500D03*
D12*
X313690000Y-97472500D03*
X320040000Y-94932500D03*
%TD*%
D11*
%TO.C,H3*%
X130949670Y-131570001D03*
%TD*%
D10*
%TO.C,SW42*%
X274320000Y-100012500D03*
D11*
X279400000Y-100012500D03*
D10*
X284480000Y-100012500D03*
D12*
X275590000Y-97472500D03*
X281940000Y-94932500D03*
%TD*%
D10*
%TO.C,SW28*%
X226695000Y-80962500D03*
D11*
X231775000Y-80962500D03*
D10*
X236855000Y-80962500D03*
D12*
X227965000Y-78422500D03*
X234315000Y-75882500D03*
%TD*%
D10*
%TO.C,SW23*%
X202882500Y-61912500D03*
D11*
X207962500Y-61912500D03*
D10*
X213042500Y-61912500D03*
D12*
X204152500Y-59372500D03*
X210502500Y-56832500D03*
%TD*%
D10*
%TO.C,SW38*%
X288607500Y-119045597D03*
D11*
X293687500Y-119045597D03*
D10*
X298767500Y-119045597D03*
D12*
X289877500Y-116505597D03*
X296227500Y-113965597D03*
%TD*%
D10*
%TO.C,SW20*%
X179070000Y-100012500D03*
D11*
X184150000Y-100012500D03*
D10*
X189230000Y-100012500D03*
D12*
X180340000Y-97472500D03*
X186690000Y-94932500D03*
%TD*%
D10*
%TO.C,SW47*%
X307657500Y-42862500D03*
D11*
X312737500Y-42862500D03*
D10*
X317817500Y-42862500D03*
D12*
X308927500Y-40322500D03*
X315277500Y-37782500D03*
%TD*%
D10*
%TO.C,SW73*%
X417195000Y-119062500D03*
D11*
X422275000Y-119062500D03*
D10*
X427355000Y-119062500D03*
D12*
X418465000Y-116522500D03*
X424815000Y-113982500D03*
%TD*%
D10*
%TO.C,SW87*%
X508000000Y-114617500D03*
D11*
X508000000Y-109537500D03*
D10*
X508000000Y-104457500D03*
D12*
X505460000Y-113347500D03*
X502920000Y-106997500D03*
%TD*%
D10*
%TO.C,SW12*%
X155257500Y-42862500D03*
D11*
X160337500Y-42862500D03*
D10*
X165417500Y-42862500D03*
D12*
X156527500Y-40322500D03*
X162877500Y-37782500D03*
%TD*%
D11*
%TO.C,H8*%
X495284972Y-131565379D03*
%TD*%
D10*
%TO.C,SW62*%
X369570000Y-100012500D03*
D11*
X374650000Y-100012500D03*
D10*
X379730000Y-100012500D03*
D12*
X370840000Y-97472500D03*
X377190000Y-94932500D03*
%TD*%
D11*
%TO.C,H9*%
X404804972Y-131565379D03*
%TD*%
D10*
%TO.C,SW22*%
X193357500Y-42862500D03*
D11*
X198437500Y-42862500D03*
D10*
X203517500Y-42862500D03*
D12*
X194627500Y-40322500D03*
X200977500Y-37782500D03*
%TD*%
D10*
%TO.C,SW89*%
X157638750Y-80962500D03*
D11*
X162718750Y-80962500D03*
D10*
X167798750Y-80962500D03*
D12*
X158908750Y-78422500D03*
X165258750Y-75882500D03*
%TD*%
D11*
%TO.C,H14*%
X504809670Y-30330001D03*
%TD*%
D10*
%TO.C,SW76*%
X464820000Y-80962500D03*
D11*
X469900000Y-80962500D03*
D10*
X474980000Y-80962500D03*
D12*
X466090000Y-78422500D03*
X472440000Y-75882500D03*
%TD*%
D11*
%TO.C,H1*%
X417499670Y-30320001D03*
%TD*%
D10*
%TO.C,SW21*%
X207645000Y-119062500D03*
D11*
X212725000Y-119062500D03*
D10*
X217805000Y-119062500D03*
D12*
X208915000Y-116522500D03*
X215265000Y-113982500D03*
%TD*%
D10*
%TO.C,SW82*%
X483870000Y-100012500D03*
D11*
X488950000Y-100012500D03*
D10*
X494030000Y-100012500D03*
D12*
X485140000Y-97472500D03*
X491490000Y-94932500D03*
%TD*%
D13*
%TO.C,S9*%
X514985000Y-97599500D03*
D14*
X499775000Y-97599500D03*
D13*
X514985000Y-121475500D03*
D14*
X499775000Y-121475500D03*
%TD*%
D10*
%TO.C,SW91*%
X445770000Y-61912500D03*
D11*
X450850000Y-61912500D03*
D10*
X455930000Y-61912500D03*
D12*
X447040000Y-59372500D03*
X453390000Y-56832500D03*
%TD*%
D10*
%TO.C,SW65*%
X393382500Y-61912500D03*
D11*
X398462500Y-61912500D03*
D10*
X403542500Y-61912500D03*
D12*
X394652500Y-59372500D03*
X401002500Y-56832500D03*
%TD*%
D10*
%TO.C,SW96*%
X445770000Y-100012500D03*
D11*
X450850000Y-100012500D03*
D10*
X455930000Y-100012500D03*
D12*
X447040000Y-97472500D03*
X453390000Y-94932500D03*
%TD*%
D10*
%TO.C,SW69*%
X402907500Y-42862500D03*
D11*
X407987500Y-42862500D03*
D10*
X413067500Y-42862500D03*
D12*
X404177500Y-40322500D03*
X410527500Y-37782500D03*
%TD*%
D10*
%TO.C,SW34*%
X250507500Y-42862500D03*
D11*
X255587500Y-42862500D03*
D10*
X260667500Y-42862500D03*
D12*
X251777500Y-40322500D03*
X258127500Y-37782500D03*
%TD*%
D10*
%TO.C,SW79*%
X483870000Y-42862500D03*
D11*
X488950000Y-42862500D03*
D10*
X494030000Y-42862500D03*
D12*
X485140000Y-40322500D03*
X491490000Y-37782500D03*
%TD*%
D10*
%TO.C,SW60*%
X374332500Y-61912500D03*
D11*
X379412500Y-61912500D03*
D10*
X384492500Y-61912500D03*
D12*
X375602500Y-59372500D03*
X381952500Y-56832500D03*
%TD*%
D10*
%TO.C,SW15*%
X167163750Y-100012500D03*
D11*
X172243750Y-100012500D03*
D10*
X177323750Y-100012500D03*
D12*
X168433750Y-97472500D03*
X174783750Y-94932500D03*
%TD*%
D10*
%TO.C,SW39*%
X269557500Y-42862500D03*
D11*
X274637500Y-42862500D03*
D10*
X279717500Y-42862500D03*
D12*
X270827500Y-40322500D03*
X277177500Y-37782500D03*
%TD*%
D10*
%TO.C,SW67*%
X445770000Y-42862500D03*
D11*
X450850000Y-42862500D03*
D10*
X455930000Y-42862500D03*
D12*
X447040000Y-40322500D03*
X453390000Y-37782500D03*
%TD*%
D11*
%TO.C,H13*%
X328504972Y-30315379D03*
%TD*%
%TO.C,H4*%
X158739670Y-131585379D03*
%TD*%
D10*
%TO.C,SW72*%
X421894000Y-100012500D03*
D11*
X426974000Y-100012500D03*
D10*
X432054000Y-100012500D03*
D12*
X423164000Y-97472500D03*
X429514000Y-94932500D03*
%TD*%
D10*
%TO.C,SW27*%
X221932500Y-61912500D03*
D11*
X227012500Y-61912500D03*
D10*
X232092500Y-61912500D03*
D12*
X223202500Y-59372500D03*
X229552500Y-56832500D03*
%TD*%
D10*
%TO.C,SW95*%
X508000000Y-105092500D03*
D11*
X508000000Y-100012500D03*
D10*
X508000000Y-94932500D03*
D12*
X505460000Y-103822500D03*
X502920000Y-97472500D03*
%TD*%
D10*
%TO.C,SW5*%
X112395000Y-100012500D03*
D11*
X117475000Y-100012500D03*
D10*
X122555000Y-100012500D03*
D12*
X113665000Y-97472500D03*
X120015000Y-94932500D03*
%TD*%
D10*
%TO.C,SW80*%
X483870000Y-61912500D03*
D11*
X488950000Y-61912500D03*
D10*
X494030000Y-61912500D03*
D12*
X485140000Y-59372500D03*
X491490000Y-56832500D03*
%TD*%
D10*
%TO.C,SW94*%
X508000000Y-66992500D03*
D11*
X508000000Y-61912500D03*
D10*
X508000000Y-56832500D03*
D12*
X505460000Y-65722500D03*
X502920000Y-59372500D03*
%TD*%
D10*
%TO.C,SW26*%
X212407500Y-42862500D03*
D11*
X217487500Y-42862500D03*
D10*
X222567500Y-42862500D03*
D12*
X213677500Y-40322500D03*
X220027500Y-37782500D03*
%TD*%
D10*
%TO.C,SW4*%
X112375920Y-80962500D03*
D11*
X117455920Y-80962500D03*
D10*
X122535920Y-80962500D03*
D12*
X113645920Y-78422500D03*
X119995920Y-75882500D03*
%TD*%
D13*
%TO.C,S3*%
X350837500Y-126030597D03*
D14*
X350837500Y-110820597D03*
D13*
X236537500Y-126030597D03*
D14*
X236537500Y-110820597D03*
%TD*%
D10*
%TO.C,SW46*%
X293370000Y-100012500D03*
D11*
X298450000Y-100012500D03*
D10*
X303530000Y-100012500D03*
D12*
X294640000Y-97472500D03*
X300990000Y-94932500D03*
%TD*%
D10*
%TO.C,SW98*%
X445770000Y-119062500D03*
D11*
X450850000Y-119062500D03*
D10*
X455930000Y-119062500D03*
D12*
X447040000Y-116522500D03*
X453390000Y-113982500D03*
%TD*%
D10*
%TO.C,SW61*%
X379095000Y-80962500D03*
D11*
X384175000Y-80962500D03*
D10*
X389255000Y-80962500D03*
D12*
X380365000Y-78422500D03*
X386715000Y-75882500D03*
%TD*%
D10*
%TO.C,SW11*%
X131445000Y-119062500D03*
D11*
X136525000Y-119062500D03*
D10*
X141605000Y-119062500D03*
D12*
X132715000Y-116522500D03*
X139065000Y-113982500D03*
%TD*%
D10*
%TO.C,SW43*%
X288607500Y-42862500D03*
D11*
X293687500Y-42862500D03*
D10*
X298767500Y-42862500D03*
D12*
X289877500Y-40322500D03*
X296227500Y-37782500D03*
%TD*%
D11*
%TO.C,H12*%
X160329670Y-30325379D03*
%TD*%
D10*
%TO.C,SW85*%
X508000000Y-76517500D03*
D11*
X508000000Y-71437500D03*
D10*
X508000000Y-66357500D03*
D12*
X505460000Y-75247500D03*
X502920000Y-68897500D03*
%TD*%
D10*
%TO.C,SW53*%
X340995000Y-80962500D03*
D11*
X346075000Y-80962500D03*
D10*
X351155000Y-80962500D03*
D12*
X342265000Y-78422500D03*
X348615000Y-75882500D03*
%TD*%
D10*
%TO.C,SW32*%
X245745000Y-80962500D03*
D11*
X250825000Y-80962500D03*
D10*
X255905000Y-80962500D03*
D12*
X247015000Y-78422500D03*
X253365000Y-75882500D03*
%TD*%
D10*
%TO.C,SW36*%
X264795000Y-80962500D03*
D11*
X269875000Y-80962500D03*
D10*
X274955000Y-80962500D03*
D12*
X266065000Y-78422500D03*
X272415000Y-75882500D03*
%TD*%
D11*
%TO.C,H6*%
X239784972Y-30325379D03*
%TD*%
D10*
%TO.C,SW71*%
X410019500Y-80962500D03*
D11*
X415099500Y-80962500D03*
D10*
X420179500Y-80962500D03*
D12*
X411289500Y-78422500D03*
X417639500Y-75882500D03*
%TD*%
D10*
%TO.C,SW64*%
X383857500Y-42862500D03*
D11*
X388937500Y-42862500D03*
D10*
X394017500Y-42862500D03*
D12*
X385127500Y-40322500D03*
X391477500Y-37782500D03*
%TD*%
D10*
%TO.C,SW88*%
X483870000Y-119062500D03*
D11*
X488950000Y-119062500D03*
D10*
X494030000Y-119062500D03*
D12*
X485140000Y-116522500D03*
X491490000Y-113982500D03*
%TD*%
D10*
%TO.C,SW29*%
X217170000Y-100012500D03*
D11*
X222250000Y-100012500D03*
D10*
X227330000Y-100012500D03*
D12*
X218440000Y-97472500D03*
X224790000Y-94932500D03*
%TD*%
D10*
%TO.C,SW99*%
X421957500Y-42862500D03*
D11*
X427037500Y-42862500D03*
D10*
X432117500Y-42862500D03*
D12*
X423227500Y-40322500D03*
X429577500Y-37782500D03*
%TD*%
D10*
%TO.C,SW17*%
X174307500Y-42862500D03*
D11*
X179387500Y-42862500D03*
D10*
X184467500Y-42862500D03*
D12*
X175577500Y-40322500D03*
X181927500Y-37782500D03*
%TD*%
D10*
%TO.C,SW55*%
X345757500Y-42862500D03*
D11*
X350837500Y-42862500D03*
D10*
X355917500Y-42862500D03*
D12*
X347027500Y-40322500D03*
X353377500Y-37782500D03*
%TD*%
D10*
%TO.C,SW25*%
X198120000Y-100012500D03*
D11*
X203200000Y-100012500D03*
D10*
X208280000Y-100012500D03*
D12*
X199390000Y-97472500D03*
X205740000Y-94932500D03*
%TD*%
D10*
%TO.C,SW9*%
X131445000Y-80962500D03*
D11*
X136525000Y-80962500D03*
D10*
X141605000Y-80962500D03*
D12*
X132715000Y-78422500D03*
X139065000Y-75882500D03*
%TD*%
D10*
%TO.C,SW57*%
X360045000Y-80962500D03*
D11*
X365125000Y-80962500D03*
D10*
X370205000Y-80962500D03*
D12*
X361315000Y-78422500D03*
X367665000Y-75882500D03*
%TD*%
D10*
%TO.C,SW59*%
X364807500Y-42862500D03*
D11*
X369887500Y-42862500D03*
D10*
X374967500Y-42862500D03*
D12*
X366077500Y-40322500D03*
X372427500Y-37782500D03*
%TD*%
D10*
%TO.C,SW8*%
X131445000Y-61912500D03*
D11*
X136525000Y-61912500D03*
D10*
X141605000Y-61912500D03*
D12*
X132715000Y-59372500D03*
X139065000Y-56832500D03*
%TD*%
D10*
%TO.C,SW13*%
X160020000Y-61912500D03*
D11*
X165100000Y-61912500D03*
D10*
X170180000Y-61912500D03*
D12*
X161290000Y-59372500D03*
X167640000Y-56832500D03*
%TD*%
D10*
%TO.C,SW90*%
X157638750Y-100012500D03*
D11*
X162718750Y-100012500D03*
D10*
X167798750Y-100012500D03*
D12*
X158908750Y-97472500D03*
X165258750Y-94932500D03*
%TD*%
D10*
%TO.C,SW66*%
X412432500Y-42862500D03*
D11*
X417512500Y-42862500D03*
D10*
X422592500Y-42862500D03*
D12*
X413702500Y-40322500D03*
X420052500Y-37782500D03*
%TD*%
D15*
%TO.C,D11*%
X168529000Y-49402000D03*
X168529000Y-46102000D03*
%TD*%
D16*
%TO.C,F2*%
X296542000Y-67310000D03*
X299342000Y-67310000D03*
%TD*%
D15*
%TO.C,D15*%
X172478670Y-122300000D03*
X172478670Y-119000000D03*
%TD*%
D17*
%TO.C,D56*%
X373062500Y-73756250D03*
X373062500Y-77056250D03*
%TD*%
D15*
%TO.C,D67*%
X458787500Y-49275000D03*
X458787500Y-45975000D03*
%TD*%
D17*
%TO.C,D28*%
X230187500Y-91218750D03*
X230187500Y-94518750D03*
%TD*%
D18*
%TO.C,J3*%
X309477000Y-70455000D03*
X310677000Y-70455000D03*
X311877000Y-70455000D03*
X313077000Y-70455000D03*
D19*
X308327000Y-66680000D03*
X314227000Y-66680000D03*
%TD*%
D17*
%TO.C,D57*%
X363537500Y-91218750D03*
X363537500Y-94518750D03*
%TD*%
D15*
%TO.C,D83*%
X500507000Y-49275000D03*
X500507000Y-45975000D03*
%TD*%
%TO.C,D73*%
X478028000Y-49275000D03*
X478028000Y-45975000D03*
%TD*%
D17*
%TO.C,D80*%
X495427000Y-74296000D03*
X495427000Y-77596000D03*
%TD*%
D20*
%TO.C,U4*%
X146872000Y-72811250D03*
X146472000Y-72811250D03*
X146072000Y-72811250D03*
X145672000Y-72811250D03*
X145272000Y-72811250D03*
X144872000Y-72811250D03*
X144472000Y-72811250D03*
X144072000Y-72811250D03*
X143672000Y-72811250D03*
X143272000Y-72811250D03*
X142872000Y-72811250D03*
X142472000Y-72811250D03*
X142072000Y-72811250D03*
X141672000Y-72811250D03*
D21*
X140834500Y-71973750D03*
X140834500Y-71573750D03*
X140834500Y-71173750D03*
X140834500Y-70773750D03*
X140834500Y-70373750D03*
X140834500Y-69973750D03*
X140834500Y-69573750D03*
X140834500Y-69173750D03*
X140834500Y-68773750D03*
X140834500Y-68373750D03*
X140834500Y-67973750D03*
X140834500Y-67573750D03*
X140834500Y-67173750D03*
X140834500Y-66773750D03*
D20*
X141672000Y-65936250D03*
X142072000Y-65936250D03*
X142472000Y-65936250D03*
X142872000Y-65936250D03*
X143272000Y-65936250D03*
X143672000Y-65936250D03*
X144072000Y-65936250D03*
X144472000Y-65936250D03*
X144872000Y-65936250D03*
X145272000Y-65936250D03*
X145672000Y-65936250D03*
X146072000Y-65936250D03*
X146472000Y-65936250D03*
X146872000Y-65936250D03*
D21*
X147709500Y-66773750D03*
X147709500Y-67173750D03*
X147709500Y-67573750D03*
X147709500Y-67973750D03*
X147709500Y-68373750D03*
X147709500Y-68773750D03*
X147709500Y-69173750D03*
X147709500Y-69573750D03*
X147709500Y-69973750D03*
X147709500Y-70373750D03*
X147709500Y-70773750D03*
X147709500Y-71173750D03*
X147709500Y-71573750D03*
X147709500Y-71973750D03*
D22*
X144272000Y-69373750D03*
%TD*%
D17*
%TO.C,D47*%
X330200000Y-53912500D03*
X330200000Y-57212500D03*
%TD*%
%TO.C,D39*%
X292100000Y-53912500D03*
X292100000Y-57212500D03*
%TD*%
%TO.C,D27*%
X239903000Y-74296000D03*
X239903000Y-77596000D03*
%TD*%
%TO.C,D64*%
X408781250Y-53912500D03*
X408781250Y-57212500D03*
%TD*%
D15*
%TO.C,D42*%
X301244000Y-49402000D03*
X301244000Y-46102000D03*
%TD*%
%TO.C,D33*%
X263271000Y-49402000D03*
X263271000Y-46102000D03*
%TD*%
D23*
%TO.C,R4*%
X155716670Y-68707000D03*
X154696670Y-68707000D03*
%TD*%
D17*
%TO.C,D76*%
X477901000Y-93092000D03*
X477901000Y-96392000D03*
%TD*%
%TO.C,D43*%
X311150000Y-53912500D03*
X311150000Y-57212500D03*
%TD*%
D24*
%TO.C,J2*%
X110121670Y-64008000D03*
D25*
X110121670Y-66548000D03*
X110121670Y-69088000D03*
X110121670Y-71628000D03*
X110121670Y-74168000D03*
%TD*%
D26*
%TO.C,R7*%
X142125670Y-86231000D03*
X142125670Y-87251000D03*
%TD*%
D27*
%TO.C,C10*%
X143014670Y-75385456D03*
X143014670Y-76345456D03*
%TD*%
D17*
%TO.C,D69*%
X433387500Y-53912500D03*
X433387500Y-57212500D03*
%TD*%
D15*
%TO.C,D63*%
X396367000Y-49275000D03*
X396367000Y-45975000D03*
%TD*%
D28*
%TO.C,D93*%
X449450000Y-46831250D03*
X452250000Y-46831250D03*
%TD*%
D17*
%TO.C,D14*%
X177800000Y-91218750D03*
X177800000Y-94518750D03*
%TD*%
%TO.C,D34*%
X273050000Y-53912500D03*
X273050000Y-57212500D03*
%TD*%
D29*
%TO.C,D84*%
X499874000Y-53213000D03*
X503174000Y-53213000D03*
%TD*%
D17*
%TO.C,D52*%
X354203000Y-74296000D03*
X354203000Y-77596000D03*
%TD*%
%TO.C,D88*%
X458724000Y-53976000D03*
X458724000Y-57276000D03*
%TD*%
%TO.C,D85*%
X498094000Y-74296000D03*
X498094000Y-77596000D03*
%TD*%
%TO.C,D23*%
X220853000Y-74296000D03*
X220853000Y-77596000D03*
%TD*%
%TO.C,D89*%
X458787500Y-73756250D03*
X458787500Y-77056250D03*
%TD*%
D29*
%TO.C,D86*%
X500127000Y-92456000D03*
X503427000Y-92456000D03*
%TD*%
D15*
%TO.C,D6*%
X144653000Y-49402000D03*
X144653000Y-46102000D03*
%TD*%
D17*
%TO.C,D48*%
X335153000Y-74296000D03*
X335153000Y-77596000D03*
%TD*%
D15*
%TO.C,D78*%
X497332000Y-49275000D03*
X497332000Y-45975000D03*
%TD*%
D28*
%TO.C,D92*%
X163700000Y-84931250D03*
X166500000Y-84931250D03*
%TD*%
D26*
%TO.C,R6*%
X112661670Y-67308000D03*
X112661670Y-68328000D03*
%TD*%
D30*
%TO.C,C6*%
X150777000Y-69596000D03*
X151737000Y-69596000D03*
%TD*%
D15*
%TO.C,D20*%
X220472000Y-122300000D03*
X220472000Y-119000000D03*
%TD*%
D17*
%TO.C,D74*%
X477837500Y-53912500D03*
X477837500Y-57212500D03*
%TD*%
%TO.C,D79*%
X496093750Y-53118750D03*
X496093750Y-56418750D03*
%TD*%
D15*
%TO.C,D58*%
X377698000Y-49402000D03*
X377698000Y-46102000D03*
%TD*%
D17*
%TO.C,D71*%
X434975000Y-93092000D03*
X434975000Y-96392000D03*
%TD*%
D15*
%TO.C,D8*%
X129032000Y-82295000D03*
X129032000Y-78995000D03*
%TD*%
D17*
%TO.C,D10*%
X144653000Y-112777000D03*
X144653000Y-116077000D03*
%TD*%
%TO.C,D81*%
X495935000Y-92965000D03*
X495935000Y-96265000D03*
%TD*%
D31*
%TO.C,C4*%
X148377589Y-74336589D03*
X149056411Y-75015411D03*
%TD*%
D27*
%TO.C,C11*%
X152781000Y-69497000D03*
X152781000Y-70457000D03*
%TD*%
D32*
%TO.C,C3*%
X150876000Y-67254000D03*
X150876000Y-66294000D03*
%TD*%
D33*
%TO.C,R2*%
X156062624Y-83037624D03*
X155341376Y-82316376D03*
%TD*%
D17*
%TO.C,D7*%
X129921000Y-53975000D03*
X129921000Y-57275000D03*
%TD*%
D15*
%TO.C,D50*%
X339979000Y-49402000D03*
X339979000Y-46102000D03*
%TD*%
D32*
%TO.C,C8*%
X137033000Y-68425000D03*
X137033000Y-67465000D03*
%TD*%
D17*
%TO.C,D24*%
X211137500Y-91218750D03*
X211137500Y-94518750D03*
%TD*%
D32*
%TO.C,C9*%
X148856670Y-65123000D03*
X148856670Y-64163000D03*
%TD*%
D15*
%TO.C,D46*%
X320929000Y-49402000D03*
X320929000Y-46102000D03*
%TD*%
D17*
%TO.C,D70*%
X422021000Y-74169000D03*
X422021000Y-77469000D03*
%TD*%
D15*
%TO.C,D68*%
X400050000Y-49275000D03*
X400050000Y-45975000D03*
%TD*%
D34*
%TO.C,U3*%
X299400000Y-72422000D03*
X298450000Y-72422000D03*
X297500000Y-72497000D03*
X297500000Y-70072000D03*
X298450000Y-70072000D03*
X299400000Y-70072000D03*
%TD*%
D15*
%TO.C,D38*%
X282448000Y-49402000D03*
X282448000Y-46102000D03*
%TD*%
D17*
%TO.C,D91*%
X440563000Y-113031000D03*
X440563000Y-116331000D03*
%TD*%
D23*
%TO.C,R5*%
X155716670Y-67691000D03*
X154696670Y-67691000D03*
%TD*%
D15*
%TO.C,D25*%
X224917000Y-49402000D03*
X224917000Y-46102000D03*
%TD*%
D17*
%TO.C,D5*%
X125603000Y-112777000D03*
X125603000Y-116077000D03*
%TD*%
%TO.C,D90*%
X460375000Y-93092000D03*
X460375000Y-96392000D03*
%TD*%
%TO.C,D87*%
X498856000Y-113031000D03*
X498856000Y-116331000D03*
%TD*%
D15*
%TO.C,D1*%
X125742670Y-49403000D03*
X125742670Y-46103000D03*
%TD*%
D17*
%TO.C,D77*%
X477901000Y-113031000D03*
X477901000Y-116331000D03*
%TD*%
%TO.C,D17*%
X196850000Y-53912500D03*
X196850000Y-57212500D03*
%TD*%
D15*
%TO.C,D54*%
X358775000Y-49402000D03*
X358775000Y-46102000D03*
%TD*%
D17*
%TO.C,D59*%
X387350000Y-53912500D03*
X387350000Y-57212500D03*
%TD*%
D28*
%TO.C,D94*%
X468500000Y-46831250D03*
X471300000Y-46831250D03*
%TD*%
D15*
%TO.C,D3*%
X125476000Y-82294000D03*
X125476000Y-78994000D03*
%TD*%
D17*
%TO.C,D32*%
X249237500Y-91218750D03*
X249237500Y-94518750D03*
%TD*%
%TO.C,D26*%
X234950000Y-53912500D03*
X234950000Y-57212500D03*
%TD*%
D32*
%TO.C,C5*%
X147840670Y-65123000D03*
X147840670Y-64163000D03*
%TD*%
D17*
%TO.C,D41*%
X287337500Y-91187000D03*
X287337500Y-94487000D03*
%TD*%
%TO.C,D53*%
X344487500Y-91187000D03*
X344487500Y-94487000D03*
%TD*%
%TO.C,D82*%
X496316000Y-113031000D03*
X496316000Y-116331000D03*
%TD*%
D31*
%TO.C,C17*%
X156391259Y-73066589D03*
X157070081Y-73745411D03*
%TD*%
D27*
%TO.C,C15*%
X294017670Y-67310000D03*
X294017670Y-68270000D03*
%TD*%
D17*
%TO.C,D2*%
X126206250Y-53912500D03*
X126206250Y-57212500D03*
%TD*%
%TO.C,D45*%
X306387500Y-91187000D03*
X306387500Y-94487000D03*
%TD*%
D26*
%TO.C,R1*%
X134378670Y-68449001D03*
X134378670Y-69469001D03*
%TD*%
D15*
%TO.C,D37*%
X301891670Y-122300000D03*
X301891670Y-119000000D03*
%TD*%
D32*
%TO.C,C16*%
X287667670Y-66393000D03*
X287667670Y-65433000D03*
%TD*%
D17*
%TO.C,D51*%
X349250000Y-53912500D03*
X349250000Y-57212500D03*
%TD*%
D15*
%TO.C,D72*%
X430288670Y-122300000D03*
X430288670Y-119000000D03*
%TD*%
D17*
%TO.C,D75*%
X478028000Y-74296000D03*
X478028000Y-77596000D03*
%TD*%
D30*
%TO.C,C7*%
X148872000Y-66548000D03*
X149832000Y-66548000D03*
%TD*%
D17*
%TO.C,D18*%
X201803000Y-74296000D03*
X201803000Y-77596000D03*
%TD*%
D15*
%TO.C,D62*%
X382663670Y-122300000D03*
X382663670Y-119000000D03*
%TD*%
D17*
%TO.C,D40*%
X297053000Y-74296000D03*
X297053000Y-77596000D03*
%TD*%
D32*
%TO.C,C13*%
X136017000Y-68397000D03*
X136017000Y-67437000D03*
%TD*%
D17*
%TO.C,D12*%
X173037500Y-53912500D03*
X173037500Y-57212500D03*
%TD*%
D15*
%TO.C,D65*%
X436753000Y-55497000D03*
X436753000Y-52197000D03*
%TD*%
D17*
%TO.C,D30*%
X254000000Y-53912500D03*
X254000000Y-57212500D03*
%TD*%
%TO.C,D22*%
X215900000Y-53912500D03*
X215900000Y-57212500D03*
%TD*%
D27*
%TO.C,C14*%
X153797000Y-69497000D03*
X153797000Y-70457000D03*
%TD*%
D17*
%TO.C,D60*%
X392112500Y-73756250D03*
X392112500Y-77056250D03*
%TD*%
%TO.C,D4*%
X125603000Y-93219000D03*
X125603000Y-96519000D03*
%TD*%
D35*
%TO.C,SW1*%
X137299670Y-89636000D03*
X137299670Y-86386000D03*
%TD*%
D17*
%TO.C,D19*%
X192087500Y-91218750D03*
X192087500Y-94518750D03*
%TD*%
D36*
%TO.C,C12*%
X142916589Y-60791411D03*
X143595411Y-60112589D03*
%TD*%
D17*
%TO.C,D66*%
X417512500Y-91218750D03*
X417512500Y-94518750D03*
%TD*%
D37*
%TO.C,R3*%
X446786000Y-47371000D03*
X446786000Y-46351000D03*
%TD*%
D17*
%TO.C,D44*%
X316103000Y-74296000D03*
X316103000Y-77596000D03*
%TD*%
%TO.C,D49*%
X325437500Y-91187000D03*
X325437500Y-94487000D03*
%TD*%
%TO.C,D31*%
X258953000Y-74296000D03*
X258953000Y-77596000D03*
%TD*%
D15*
%TO.C,D29*%
X243713000Y-49402000D03*
X243713000Y-46102000D03*
%TD*%
D17*
%TO.C,D35*%
X278003000Y-74296000D03*
X278003000Y-77596000D03*
%TD*%
D15*
%TO.C,D21*%
X206121000Y-49402000D03*
X206121000Y-46102000D03*
%TD*%
D38*
%TO.C,U1*%
X289971000Y-68260000D03*
X289971000Y-66360000D03*
X291846000Y-67310000D03*
%TD*%
D17*
%TO.C,D36*%
X268287500Y-91218750D03*
X268287500Y-94518750D03*
%TD*%
D37*
%TO.C,R8*%
X465963000Y-47244000D03*
X465963000Y-46224000D03*
%TD*%
D15*
%TO.C,D16*%
X187198000Y-49402000D03*
X187198000Y-46102000D03*
%TD*%
D17*
%TO.C,D13*%
X174752000Y-75185000D03*
X174752000Y-78485000D03*
%TD*%
D39*
%TO.C,Y2*%
X132387142Y-70814500D03*
D40*
X132387142Y-69614500D03*
X132387142Y-68414500D03*
%TD*%
D17*
%TO.C,D55*%
X368300000Y-53912500D03*
X368300000Y-57212500D03*
%TD*%
%TO.C,D9*%
X128651000Y-93219000D03*
X128651000Y-96519000D03*
%TD*%
D41*
%TO.C,U2*%
X153477051Y-75942280D03*
X153123498Y-75588727D03*
X152769944Y-75235173D03*
X152416391Y-74881620D03*
X154396290Y-72901721D03*
X154749843Y-73255274D03*
X155103397Y-73608828D03*
X155456950Y-73962381D03*
D42*
X153936670Y-74422000D03*
%TD*%
D17*
%TO.C,D61*%
X382587500Y-91218750D03*
X382587500Y-94518750D03*
%TD*%
M02*
