%TF.GenerationSoftware,KiCad,Pcbnew,7.0.2*%
%TF.CreationDate,2023-07-13T16:44:56+10:00*%
%TF.ProjectId,W1-AT PCB,57312d41-5420-4504-9342-2e6b69636164,rev?*%
%TF.SameCoordinates,Original*%
%TF.FileFunction,Soldermask,Top*%
%TF.FilePolarity,Negative*%
%FSLAX46Y46*%
G04 Gerber Fmt 4.6, Leading zero omitted, Abs format (unit mm)*
G04 Created by KiCad (PCBNEW 7.0.2) date 2023-07-13 16:44:56*
%MOMM*%
%LPD*%
G01*
G04 APERTURE LIST*
%ADD10C,1.750000*%
%ADD11C,4.000000*%
%ADD12C,2.500000*%
%ADD13C,3.048000*%
%ADD14C,3.987800*%
%ADD15R,1.700000X1.700000*%
%ADD16O,1.700000X1.700000*%
G04 APERTURE END LIST*
D10*
%TO.C,SW2*%
X112395000Y-42862500D03*
D11*
X117475000Y-42862500D03*
D10*
X122555000Y-42862500D03*
D12*
X113665000Y-40322500D03*
X120015000Y-37782500D03*
%TD*%
D10*
%TO.C,SW56*%
X355282500Y-61912500D03*
D11*
X360362500Y-61912500D03*
D10*
X365442500Y-61912500D03*
D12*
X356552500Y-59372500D03*
X362902500Y-56832500D03*
%TD*%
D13*
%TO.C,S1*%
X160305750Y-93027500D03*
D14*
X160305750Y-108237500D03*
D13*
X184181750Y-93027500D03*
D14*
X184181750Y-108237500D03*
%TD*%
D10*
%TO.C,SW33*%
X236220000Y-100012500D03*
D11*
X241300000Y-100012500D03*
D10*
X246380000Y-100012500D03*
D12*
X237490000Y-97472500D03*
X243840000Y-94932500D03*
%TD*%
D10*
%TO.C,SW49*%
X321945000Y-80962500D03*
D11*
X327025000Y-80962500D03*
D10*
X332105000Y-80962500D03*
D12*
X323215000Y-78422500D03*
X329565000Y-75882500D03*
%TD*%
D10*
%TO.C,SW78*%
X508000000Y-124142500D03*
D11*
X508000000Y-119062500D03*
D10*
X508000000Y-113982500D03*
D12*
X505460000Y-122872500D03*
X502920000Y-116522500D03*
%TD*%
D13*
%TO.C,S4*%
X405574500Y-35877500D03*
D14*
X405574500Y-51087500D03*
D13*
X429450500Y-35877500D03*
D14*
X429450500Y-51087500D03*
%TD*%
D10*
%TO.C,SW63*%
X369570000Y-119062500D03*
D11*
X374650000Y-119062500D03*
D10*
X379730000Y-119062500D03*
D12*
X370840000Y-116522500D03*
X377190000Y-113982500D03*
%TD*%
D10*
%TO.C,SW51*%
X326707500Y-42862500D03*
D11*
X331787500Y-42862500D03*
D10*
X336867500Y-42862500D03*
D12*
X327977500Y-40322500D03*
X334327500Y-37782500D03*
%TD*%
D10*
%TO.C,SW52*%
X336232500Y-61912500D03*
D11*
X341312500Y-61912500D03*
D10*
X346392500Y-61912500D03*
D12*
X337502500Y-59372500D03*
X343852500Y-56832500D03*
%TD*%
D10*
%TO.C,SW7*%
X131445000Y-42862500D03*
D11*
X136525000Y-42862500D03*
D10*
X141605000Y-42862500D03*
D12*
X132715000Y-40322500D03*
X139065000Y-37782500D03*
%TD*%
D11*
%TO.C,H5*%
X231769670Y-131570001D03*
%TD*%
%TO.C,H2*%
X461149670Y-131575379D03*
%TD*%
D10*
%TO.C,SW97*%
X455295000Y-119062500D03*
D11*
X460375000Y-119062500D03*
D10*
X465455000Y-119062500D03*
D12*
X456565000Y-116522500D03*
X462915000Y-113982500D03*
%TD*%
D10*
%TO.C,SW70*%
X417195000Y-61912500D03*
D11*
X422275000Y-61912500D03*
D10*
X427355000Y-61912500D03*
D12*
X418465000Y-59372500D03*
X424815000Y-56832500D03*
%TD*%
D10*
%TO.C,SW30*%
X231457500Y-42862500D03*
D11*
X236537500Y-42862500D03*
D10*
X241617500Y-42862500D03*
D12*
X232727500Y-40322500D03*
X239077500Y-37782500D03*
%TD*%
D10*
%TO.C,SW37*%
X255270000Y-100012500D03*
D11*
X260350000Y-100012500D03*
D10*
X265430000Y-100012500D03*
D12*
X256540000Y-97472500D03*
X262890000Y-94932500D03*
%TD*%
D10*
%TO.C,SW81*%
X483870000Y-80962500D03*
D11*
X488950000Y-80962500D03*
D10*
X494030000Y-80962500D03*
D12*
X485140000Y-78422500D03*
X491490000Y-75882500D03*
%TD*%
D10*
%TO.C,SW14*%
X162401250Y-80962500D03*
D11*
X167481250Y-80962500D03*
D10*
X172561250Y-80962500D03*
D12*
X163671250Y-78422500D03*
X170021250Y-75882500D03*
%TD*%
D11*
%TO.C,H7*%
X461169670Y-30340001D03*
%TD*%
D10*
%TO.C,SW31*%
X240982500Y-61912500D03*
D11*
X246062500Y-61912500D03*
D10*
X251142500Y-61912500D03*
D12*
X242252500Y-59372500D03*
X248602500Y-56832500D03*
%TD*%
D10*
%TO.C,SW40*%
X279082500Y-61912500D03*
D11*
X284162500Y-61912500D03*
D10*
X289242500Y-61912500D03*
D12*
X280352500Y-59372500D03*
X286702500Y-56832500D03*
%TD*%
D10*
%TO.C,SW6*%
X112395000Y-119062500D03*
D11*
X117475000Y-119062500D03*
D10*
X122555000Y-119062500D03*
D12*
X113665000Y-116522500D03*
X120015000Y-113982500D03*
%TD*%
D10*
%TO.C,SW93*%
X445770000Y-80962500D03*
D11*
X450850000Y-80962500D03*
D10*
X455930000Y-80962500D03*
D12*
X447040000Y-78422500D03*
X453390000Y-75882500D03*
%TD*%
D10*
%TO.C,SW19*%
X188595000Y-80962500D03*
D11*
X193675000Y-80962500D03*
D10*
X198755000Y-80962500D03*
D12*
X189865000Y-78422500D03*
X196215000Y-75882500D03*
%TD*%
D10*
%TO.C,SW92*%
X395763750Y-100012500D03*
D11*
X400843750Y-100012500D03*
D10*
X405923750Y-100012500D03*
D12*
X397033750Y-97472500D03*
X403383750Y-94932500D03*
%TD*%
D10*
%TO.C,SW18*%
X183832500Y-61912500D03*
D11*
X188912500Y-61912500D03*
D10*
X193992500Y-61912500D03*
D12*
X185102500Y-59372500D03*
X191452500Y-56832500D03*
%TD*%
D10*
%TO.C,SW58*%
X350520000Y-100012500D03*
D11*
X355600000Y-100012500D03*
D10*
X360680000Y-100012500D03*
D12*
X351790000Y-97472500D03*
X358140000Y-94932500D03*
%TD*%
D10*
%TO.C,SW3*%
X112395000Y-61912500D03*
D11*
X117475000Y-61912500D03*
D10*
X122555000Y-61912500D03*
D12*
X113665000Y-59372500D03*
X120015000Y-56832500D03*
%TD*%
D10*
%TO.C,SW83*%
X464820000Y-119062500D03*
D11*
X469900000Y-119062500D03*
D10*
X474980000Y-119062500D03*
D12*
X466090000Y-116522500D03*
X472440000Y-113982500D03*
%TD*%
D11*
%TO.C,H10*%
X355579670Y-131580001D03*
%TD*%
%TO.C,H11*%
X123819670Y-30315379D03*
%TD*%
D10*
%TO.C,SW41*%
X283845000Y-80962500D03*
D11*
X288925000Y-80962500D03*
D10*
X294005000Y-80962500D03*
D12*
X285115000Y-78422500D03*
X291465000Y-75882500D03*
%TD*%
D10*
%TO.C,SW16*%
X160020000Y-119062500D03*
D11*
X165100000Y-119062500D03*
D10*
X170180000Y-119062500D03*
D12*
X161290000Y-116522500D03*
X167640000Y-113982500D03*
%TD*%
D10*
%TO.C,SW45*%
X302895000Y-80962500D03*
D11*
X307975000Y-80962500D03*
D10*
X313055000Y-80962500D03*
D12*
X304165000Y-78422500D03*
X310515000Y-75882500D03*
%TD*%
D10*
%TO.C,SW44*%
X298132500Y-61912500D03*
D11*
X303212500Y-61912500D03*
D10*
X308292500Y-61912500D03*
D12*
X299402500Y-59372500D03*
X305752500Y-56832500D03*
%TD*%
D10*
%TO.C,SW24*%
X207645000Y-80962500D03*
D11*
X212725000Y-80962500D03*
D10*
X217805000Y-80962500D03*
D12*
X208915000Y-78422500D03*
X215265000Y-75882500D03*
%TD*%
D10*
%TO.C,SW35*%
X260032500Y-61912500D03*
D11*
X265112500Y-61912500D03*
D10*
X270192500Y-61912500D03*
D12*
X261302500Y-59372500D03*
X267652500Y-56832500D03*
%TD*%
D10*
%TO.C,SW10*%
X131445000Y-100012500D03*
D11*
X136525000Y-100012500D03*
D10*
X141605000Y-100012500D03*
D12*
X132715000Y-97472500D03*
X139065000Y-94932500D03*
%TD*%
D13*
%TO.C,S8*%
X514985000Y-59499500D03*
D14*
X499775000Y-59499500D03*
D13*
X514985000Y-83375500D03*
D14*
X499775000Y-83375500D03*
%TD*%
D10*
%TO.C,SW48*%
X317182500Y-61912500D03*
D11*
X322262500Y-61912500D03*
D10*
X327342500Y-61912500D03*
D12*
X318452500Y-59372500D03*
X324802500Y-56832500D03*
%TD*%
D10*
%TO.C,SW68*%
X405288750Y-100012500D03*
D11*
X410368750Y-100012500D03*
D10*
X415448750Y-100012500D03*
D12*
X406558750Y-97472500D03*
X412908750Y-94932500D03*
%TD*%
D10*
%TO.C,SW84*%
X502920000Y-42862500D03*
D11*
X508000000Y-42862500D03*
D10*
X513080000Y-42862500D03*
D12*
X504190000Y-40322500D03*
X510540000Y-37782500D03*
%TD*%
D13*
%TO.C,S5*%
X427037500Y-87947500D03*
D14*
X427037500Y-72737500D03*
D13*
X403161500Y-87947500D03*
D14*
X403161500Y-72737500D03*
%TD*%
D10*
%TO.C,SW77*%
X464820000Y-100012500D03*
D11*
X469900000Y-100012500D03*
D10*
X474980000Y-100012500D03*
D12*
X466090000Y-97472500D03*
X472440000Y-94932500D03*
%TD*%
D10*
%TO.C,SW74*%
X464820000Y-42862500D03*
D11*
X469900000Y-42862500D03*
D10*
X474980000Y-42862500D03*
D12*
X466090000Y-40322500D03*
X472440000Y-37782500D03*
%TD*%
D10*
%TO.C,SW86*%
X508000000Y-86042500D03*
D11*
X508000000Y-80962500D03*
D10*
X508000000Y-75882500D03*
D12*
X505460000Y-84772500D03*
X502920000Y-78422500D03*
%TD*%
D13*
%TO.C,S6*%
X398430750Y-93027500D03*
D14*
X398430750Y-108237500D03*
D13*
X422306750Y-93027500D03*
D14*
X422306750Y-108237500D03*
%TD*%
D10*
%TO.C,SW75*%
X464820000Y-61912500D03*
D11*
X469900000Y-61912500D03*
D10*
X474980000Y-61912500D03*
D12*
X466090000Y-59372500D03*
X472440000Y-56832500D03*
%TD*%
D10*
%TO.C,SW54*%
X331470000Y-100012500D03*
D11*
X336550000Y-100012500D03*
D10*
X341630000Y-100012500D03*
D12*
X332740000Y-97472500D03*
X339090000Y-94932500D03*
%TD*%
D13*
%TO.C,S7*%
X472313000Y-126047500D03*
D14*
X472313000Y-110837500D03*
D13*
X448437000Y-126047500D03*
D14*
X448437000Y-110837500D03*
%TD*%
D10*
%TO.C,SW50*%
X312420000Y-100012500D03*
D11*
X317500000Y-100012500D03*
D10*
X322580000Y-100012500D03*
D12*
X313690000Y-97472500D03*
X320040000Y-94932500D03*
%TD*%
D11*
%TO.C,H3*%
X130949670Y-131570001D03*
%TD*%
D10*
%TO.C,SW42*%
X274320000Y-100012500D03*
D11*
X279400000Y-100012500D03*
D10*
X284480000Y-100012500D03*
D12*
X275590000Y-97472500D03*
X281940000Y-94932500D03*
%TD*%
D10*
%TO.C,SW28*%
X226695000Y-80962500D03*
D11*
X231775000Y-80962500D03*
D10*
X236855000Y-80962500D03*
D12*
X227965000Y-78422500D03*
X234315000Y-75882500D03*
%TD*%
D10*
%TO.C,SW23*%
X202882500Y-61912500D03*
D11*
X207962500Y-61912500D03*
D10*
X213042500Y-61912500D03*
D12*
X204152500Y-59372500D03*
X210502500Y-56832500D03*
%TD*%
D10*
%TO.C,SW38*%
X288607500Y-119045597D03*
D11*
X293687500Y-119045597D03*
D10*
X298767500Y-119045597D03*
D12*
X289877500Y-116505597D03*
X296227500Y-113965597D03*
%TD*%
D10*
%TO.C,SW20*%
X179070000Y-100012500D03*
D11*
X184150000Y-100012500D03*
D10*
X189230000Y-100012500D03*
D12*
X180340000Y-97472500D03*
X186690000Y-94932500D03*
%TD*%
D10*
%TO.C,SW47*%
X307657500Y-42862500D03*
D11*
X312737500Y-42862500D03*
D10*
X317817500Y-42862500D03*
D12*
X308927500Y-40322500D03*
X315277500Y-37782500D03*
%TD*%
D10*
%TO.C,SW73*%
X417195000Y-119062500D03*
D11*
X422275000Y-119062500D03*
D10*
X427355000Y-119062500D03*
D12*
X418465000Y-116522500D03*
X424815000Y-113982500D03*
%TD*%
D10*
%TO.C,SW87*%
X508000000Y-114617500D03*
D11*
X508000000Y-109537500D03*
D10*
X508000000Y-104457500D03*
D12*
X505460000Y-113347500D03*
X502920000Y-106997500D03*
%TD*%
D10*
%TO.C,SW12*%
X155257500Y-42862500D03*
D11*
X160337500Y-42862500D03*
D10*
X165417500Y-42862500D03*
D12*
X156527500Y-40322500D03*
X162877500Y-37782500D03*
%TD*%
D11*
%TO.C,H8*%
X495284972Y-131565379D03*
%TD*%
D10*
%TO.C,SW62*%
X369570000Y-100012500D03*
D11*
X374650000Y-100012500D03*
D10*
X379730000Y-100012500D03*
D12*
X370840000Y-97472500D03*
X377190000Y-94932500D03*
%TD*%
D11*
%TO.C,H9*%
X404804972Y-131565379D03*
%TD*%
D10*
%TO.C,SW22*%
X193357500Y-42862500D03*
D11*
X198437500Y-42862500D03*
D10*
X203517500Y-42862500D03*
D12*
X194627500Y-40322500D03*
X200977500Y-37782500D03*
%TD*%
D10*
%TO.C,SW89*%
X157638750Y-80962500D03*
D11*
X162718750Y-80962500D03*
D10*
X167798750Y-80962500D03*
D12*
X158908750Y-78422500D03*
X165258750Y-75882500D03*
%TD*%
D11*
%TO.C,H14*%
X504809670Y-30330001D03*
%TD*%
D10*
%TO.C,SW76*%
X464820000Y-80962500D03*
D11*
X469900000Y-80962500D03*
D10*
X474980000Y-80962500D03*
D12*
X466090000Y-78422500D03*
X472440000Y-75882500D03*
%TD*%
D11*
%TO.C,H1*%
X417499670Y-30320001D03*
%TD*%
D10*
%TO.C,SW21*%
X207645000Y-119062500D03*
D11*
X212725000Y-119062500D03*
D10*
X217805000Y-119062500D03*
D12*
X208915000Y-116522500D03*
X215265000Y-113982500D03*
%TD*%
D10*
%TO.C,SW82*%
X483870000Y-100012500D03*
D11*
X488950000Y-100012500D03*
D10*
X494030000Y-100012500D03*
D12*
X485140000Y-97472500D03*
X491490000Y-94932500D03*
%TD*%
D13*
%TO.C,S9*%
X514985000Y-97599500D03*
D14*
X499775000Y-97599500D03*
D13*
X514985000Y-121475500D03*
D14*
X499775000Y-121475500D03*
%TD*%
D10*
%TO.C,SW91*%
X445770000Y-61912500D03*
D11*
X450850000Y-61912500D03*
D10*
X455930000Y-61912500D03*
D12*
X447040000Y-59372500D03*
X453390000Y-56832500D03*
%TD*%
D10*
%TO.C,SW65*%
X393382500Y-61912500D03*
D11*
X398462500Y-61912500D03*
D10*
X403542500Y-61912500D03*
D12*
X394652500Y-59372500D03*
X401002500Y-56832500D03*
%TD*%
D10*
%TO.C,SW96*%
X445770000Y-100012500D03*
D11*
X450850000Y-100012500D03*
D10*
X455930000Y-100012500D03*
D12*
X447040000Y-97472500D03*
X453390000Y-94932500D03*
%TD*%
D10*
%TO.C,SW69*%
X402907500Y-42862500D03*
D11*
X407987500Y-42862500D03*
D10*
X413067500Y-42862500D03*
D12*
X404177500Y-40322500D03*
X410527500Y-37782500D03*
%TD*%
D10*
%TO.C,SW34*%
X250507500Y-42862500D03*
D11*
X255587500Y-42862500D03*
D10*
X260667500Y-42862500D03*
D12*
X251777500Y-40322500D03*
X258127500Y-37782500D03*
%TD*%
D10*
%TO.C,SW79*%
X483870000Y-42862500D03*
D11*
X488950000Y-42862500D03*
D10*
X494030000Y-42862500D03*
D12*
X485140000Y-40322500D03*
X491490000Y-37782500D03*
%TD*%
D10*
%TO.C,SW60*%
X374332500Y-61912500D03*
D11*
X379412500Y-61912500D03*
D10*
X384492500Y-61912500D03*
D12*
X375602500Y-59372500D03*
X381952500Y-56832500D03*
%TD*%
D10*
%TO.C,SW15*%
X167163750Y-100012500D03*
D11*
X172243750Y-100012500D03*
D10*
X177323750Y-100012500D03*
D12*
X168433750Y-97472500D03*
X174783750Y-94932500D03*
%TD*%
D10*
%TO.C,SW39*%
X269557500Y-42862500D03*
D11*
X274637500Y-42862500D03*
D10*
X279717500Y-42862500D03*
D12*
X270827500Y-40322500D03*
X277177500Y-37782500D03*
%TD*%
D10*
%TO.C,SW67*%
X445770000Y-42862500D03*
D11*
X450850000Y-42862500D03*
D10*
X455930000Y-42862500D03*
D12*
X447040000Y-40322500D03*
X453390000Y-37782500D03*
%TD*%
D11*
%TO.C,H13*%
X328504972Y-30315379D03*
%TD*%
%TO.C,H4*%
X158739670Y-131585379D03*
%TD*%
D10*
%TO.C,SW72*%
X421894000Y-100012500D03*
D11*
X426974000Y-100012500D03*
D10*
X432054000Y-100012500D03*
D12*
X423164000Y-97472500D03*
X429514000Y-94932500D03*
%TD*%
D10*
%TO.C,SW27*%
X221932500Y-61912500D03*
D11*
X227012500Y-61912500D03*
D10*
X232092500Y-61912500D03*
D12*
X223202500Y-59372500D03*
X229552500Y-56832500D03*
%TD*%
D10*
%TO.C,SW95*%
X508000000Y-105092500D03*
D11*
X508000000Y-100012500D03*
D10*
X508000000Y-94932500D03*
D12*
X505460000Y-103822500D03*
X502920000Y-97472500D03*
%TD*%
D10*
%TO.C,SW5*%
X112395000Y-100012500D03*
D11*
X117475000Y-100012500D03*
D10*
X122555000Y-100012500D03*
D12*
X113665000Y-97472500D03*
X120015000Y-94932500D03*
%TD*%
D10*
%TO.C,SW80*%
X483870000Y-61912500D03*
D11*
X488950000Y-61912500D03*
D10*
X494030000Y-61912500D03*
D12*
X485140000Y-59372500D03*
X491490000Y-56832500D03*
%TD*%
D10*
%TO.C,SW94*%
X508000000Y-66992500D03*
D11*
X508000000Y-61912500D03*
D10*
X508000000Y-56832500D03*
D12*
X505460000Y-65722500D03*
X502920000Y-59372500D03*
%TD*%
D10*
%TO.C,SW26*%
X212407500Y-42862500D03*
D11*
X217487500Y-42862500D03*
D10*
X222567500Y-42862500D03*
D12*
X213677500Y-40322500D03*
X220027500Y-37782500D03*
%TD*%
D10*
%TO.C,SW4*%
X112375920Y-80962500D03*
D11*
X117455920Y-80962500D03*
D10*
X122535920Y-80962500D03*
D12*
X113645920Y-78422500D03*
X119995920Y-75882500D03*
%TD*%
D13*
%TO.C,S3*%
X350837500Y-126030597D03*
D14*
X350837500Y-110820597D03*
D13*
X236537500Y-126030597D03*
D14*
X236537500Y-110820597D03*
%TD*%
D10*
%TO.C,SW46*%
X293370000Y-100012500D03*
D11*
X298450000Y-100012500D03*
D10*
X303530000Y-100012500D03*
D12*
X294640000Y-97472500D03*
X300990000Y-94932500D03*
%TD*%
D10*
%TO.C,SW98*%
X445770000Y-119062500D03*
D11*
X450850000Y-119062500D03*
D10*
X455930000Y-119062500D03*
D12*
X447040000Y-116522500D03*
X453390000Y-113982500D03*
%TD*%
D10*
%TO.C,SW61*%
X379095000Y-80962500D03*
D11*
X384175000Y-80962500D03*
D10*
X389255000Y-80962500D03*
D12*
X380365000Y-78422500D03*
X386715000Y-75882500D03*
%TD*%
D10*
%TO.C,SW11*%
X131445000Y-119062500D03*
D11*
X136525000Y-119062500D03*
D10*
X141605000Y-119062500D03*
D12*
X132715000Y-116522500D03*
X139065000Y-113982500D03*
%TD*%
D10*
%TO.C,SW43*%
X288607500Y-42862500D03*
D11*
X293687500Y-42862500D03*
D10*
X298767500Y-42862500D03*
D12*
X289877500Y-40322500D03*
X296227500Y-37782500D03*
%TD*%
D11*
%TO.C,H12*%
X160329670Y-30325379D03*
%TD*%
D10*
%TO.C,SW85*%
X508000000Y-76517500D03*
D11*
X508000000Y-71437500D03*
D10*
X508000000Y-66357500D03*
D12*
X505460000Y-75247500D03*
X502920000Y-68897500D03*
%TD*%
D10*
%TO.C,SW53*%
X340995000Y-80962500D03*
D11*
X346075000Y-80962500D03*
D10*
X351155000Y-80962500D03*
D12*
X342265000Y-78422500D03*
X348615000Y-75882500D03*
%TD*%
D10*
%TO.C,SW32*%
X245745000Y-80962500D03*
D11*
X250825000Y-80962500D03*
D10*
X255905000Y-80962500D03*
D12*
X247015000Y-78422500D03*
X253365000Y-75882500D03*
%TD*%
D10*
%TO.C,SW36*%
X264795000Y-80962500D03*
D11*
X269875000Y-80962500D03*
D10*
X274955000Y-80962500D03*
D12*
X266065000Y-78422500D03*
X272415000Y-75882500D03*
%TD*%
D11*
%TO.C,H6*%
X239784972Y-30325379D03*
%TD*%
D10*
%TO.C,SW71*%
X410019500Y-80962500D03*
D11*
X415099500Y-80962500D03*
D10*
X420179500Y-80962500D03*
D12*
X411289500Y-78422500D03*
X417639500Y-75882500D03*
%TD*%
D10*
%TO.C,SW64*%
X383857500Y-42862500D03*
D11*
X388937500Y-42862500D03*
D10*
X394017500Y-42862500D03*
D12*
X385127500Y-40322500D03*
X391477500Y-37782500D03*
%TD*%
D10*
%TO.C,SW88*%
X483870000Y-119062500D03*
D11*
X488950000Y-119062500D03*
D10*
X494030000Y-119062500D03*
D12*
X485140000Y-116522500D03*
X491490000Y-113982500D03*
%TD*%
D10*
%TO.C,SW29*%
X217170000Y-100012500D03*
D11*
X222250000Y-100012500D03*
D10*
X227330000Y-100012500D03*
D12*
X218440000Y-97472500D03*
X224790000Y-94932500D03*
%TD*%
D10*
%TO.C,SW99*%
X421957500Y-42862500D03*
D11*
X427037500Y-42862500D03*
D10*
X432117500Y-42862500D03*
D12*
X423227500Y-40322500D03*
X429577500Y-37782500D03*
%TD*%
D10*
%TO.C,SW17*%
X174307500Y-42862500D03*
D11*
X179387500Y-42862500D03*
D10*
X184467500Y-42862500D03*
D12*
X175577500Y-40322500D03*
X181927500Y-37782500D03*
%TD*%
D10*
%TO.C,SW55*%
X345757500Y-42862500D03*
D11*
X350837500Y-42862500D03*
D10*
X355917500Y-42862500D03*
D12*
X347027500Y-40322500D03*
X353377500Y-37782500D03*
%TD*%
D10*
%TO.C,SW25*%
X198120000Y-100012500D03*
D11*
X203200000Y-100012500D03*
D10*
X208280000Y-100012500D03*
D12*
X199390000Y-97472500D03*
X205740000Y-94932500D03*
%TD*%
D10*
%TO.C,SW9*%
X131445000Y-80962500D03*
D11*
X136525000Y-80962500D03*
D10*
X141605000Y-80962500D03*
D12*
X132715000Y-78422500D03*
X139065000Y-75882500D03*
%TD*%
D10*
%TO.C,SW57*%
X360045000Y-80962500D03*
D11*
X365125000Y-80962500D03*
D10*
X370205000Y-80962500D03*
D12*
X361315000Y-78422500D03*
X367665000Y-75882500D03*
%TD*%
D10*
%TO.C,SW59*%
X364807500Y-42862500D03*
D11*
X369887500Y-42862500D03*
D10*
X374967500Y-42862500D03*
D12*
X366077500Y-40322500D03*
X372427500Y-37782500D03*
%TD*%
D10*
%TO.C,SW8*%
X131445000Y-61912500D03*
D11*
X136525000Y-61912500D03*
D10*
X141605000Y-61912500D03*
D12*
X132715000Y-59372500D03*
X139065000Y-56832500D03*
%TD*%
D10*
%TO.C,SW13*%
X160020000Y-61912500D03*
D11*
X165100000Y-61912500D03*
D10*
X170180000Y-61912500D03*
D12*
X161290000Y-59372500D03*
X167640000Y-56832500D03*
%TD*%
D10*
%TO.C,SW90*%
X157638750Y-100012500D03*
D11*
X162718750Y-100012500D03*
D10*
X167798750Y-100012500D03*
D12*
X158908750Y-97472500D03*
X165258750Y-94932500D03*
%TD*%
D10*
%TO.C,SW66*%
X412432500Y-42862500D03*
D11*
X417512500Y-42862500D03*
D10*
X422592500Y-42862500D03*
D12*
X413702500Y-40322500D03*
X420052500Y-37782500D03*
%TD*%
D15*
%TO.C,J2*%
X110121670Y-64008000D03*
D16*
X110121670Y-66548000D03*
X110121670Y-69088000D03*
X110121670Y-71628000D03*
X110121670Y-74168000D03*
%TD*%
M02*
