%TF.GenerationSoftware,KiCad,Pcbnew,7.0.2*%
%TF.CreationDate,2023-07-02T01:29:10+10:00*%
%TF.ProjectId,W1-AT PCB,57312d41-5420-4504-9342-2e6b69636164,rev?*%
%TF.SameCoordinates,Original*%
%TF.FileFunction,Legend,Top*%
%TF.FilePolarity,Positive*%
%FSLAX46Y46*%
G04 Gerber Fmt 4.6, Leading zero omitted, Abs format (unit mm)*
G04 Created by KiCad (PCBNEW 7.0.2) date 2023-07-02 01:29:10*
%MOMM*%
%LPD*%
G01*
G04 APERTURE LIST*
%ADD10C,0.100000*%
%ADD11C,1.750000*%
%ADD12C,4.000000*%
%ADD13C,2.500000*%
%ADD14C,3.048000*%
%ADD15C,3.987800*%
%ADD16R,1.700000X1.700000*%
%ADD17O,1.700000X1.700000*%
G04 APERTURE END LIST*
D10*
%TO.C,S1*%
X171938988Y-98303000D02*
X171996131Y-98336333D01*
X171996131Y-98336333D02*
X172091369Y-98336333D01*
X172091369Y-98336333D02*
X172129464Y-98303000D01*
X172129464Y-98303000D02*
X172148512Y-98269666D01*
X172148512Y-98269666D02*
X172167559Y-98203000D01*
X172167559Y-98203000D02*
X172167559Y-98136333D01*
X172167559Y-98136333D02*
X172148512Y-98069666D01*
X172148512Y-98069666D02*
X172129464Y-98036333D01*
X172129464Y-98036333D02*
X172091369Y-98003000D01*
X172091369Y-98003000D02*
X172015178Y-97969666D01*
X172015178Y-97969666D02*
X171977083Y-97936333D01*
X171977083Y-97936333D02*
X171958036Y-97903000D01*
X171958036Y-97903000D02*
X171938988Y-97836333D01*
X171938988Y-97836333D02*
X171938988Y-97769666D01*
X171938988Y-97769666D02*
X171958036Y-97703000D01*
X171958036Y-97703000D02*
X171977083Y-97669666D01*
X171977083Y-97669666D02*
X172015178Y-97636333D01*
X172015178Y-97636333D02*
X172110417Y-97636333D01*
X172110417Y-97636333D02*
X172167559Y-97669666D01*
X172548511Y-98336333D02*
X172319940Y-98336333D01*
X172434226Y-98336333D02*
X172434226Y-97636333D01*
X172434226Y-97636333D02*
X172396130Y-97736333D01*
X172396130Y-97736333D02*
X172358035Y-97803000D01*
X172358035Y-97803000D02*
X172319940Y-97836333D01*
%TO.C,S4*%
X417207738Y-41153000D02*
X417264881Y-41186333D01*
X417264881Y-41186333D02*
X417360119Y-41186333D01*
X417360119Y-41186333D02*
X417398214Y-41153000D01*
X417398214Y-41153000D02*
X417417262Y-41119666D01*
X417417262Y-41119666D02*
X417436309Y-41053000D01*
X417436309Y-41053000D02*
X417436309Y-40986333D01*
X417436309Y-40986333D02*
X417417262Y-40919666D01*
X417417262Y-40919666D02*
X417398214Y-40886333D01*
X417398214Y-40886333D02*
X417360119Y-40853000D01*
X417360119Y-40853000D02*
X417283928Y-40819666D01*
X417283928Y-40819666D02*
X417245833Y-40786333D01*
X417245833Y-40786333D02*
X417226786Y-40753000D01*
X417226786Y-40753000D02*
X417207738Y-40686333D01*
X417207738Y-40686333D02*
X417207738Y-40619666D01*
X417207738Y-40619666D02*
X417226786Y-40553000D01*
X417226786Y-40553000D02*
X417245833Y-40519666D01*
X417245833Y-40519666D02*
X417283928Y-40486333D01*
X417283928Y-40486333D02*
X417379167Y-40486333D01*
X417379167Y-40486333D02*
X417436309Y-40519666D01*
X417779166Y-40719666D02*
X417779166Y-41186333D01*
X417683928Y-40453000D02*
X417588690Y-40953000D01*
X417588690Y-40953000D02*
X417836309Y-40953000D01*
%TO.C,S8*%
X510290500Y-71742261D02*
X510323833Y-71685118D01*
X510323833Y-71685118D02*
X510323833Y-71589880D01*
X510323833Y-71589880D02*
X510290500Y-71551785D01*
X510290500Y-71551785D02*
X510257166Y-71532737D01*
X510257166Y-71532737D02*
X510190500Y-71513690D01*
X510190500Y-71513690D02*
X510123833Y-71513690D01*
X510123833Y-71513690D02*
X510057166Y-71532737D01*
X510057166Y-71532737D02*
X510023833Y-71551785D01*
X510023833Y-71551785D02*
X509990500Y-71589880D01*
X509990500Y-71589880D02*
X509957166Y-71666071D01*
X509957166Y-71666071D02*
X509923833Y-71704166D01*
X509923833Y-71704166D02*
X509890500Y-71723213D01*
X509890500Y-71723213D02*
X509823833Y-71742261D01*
X509823833Y-71742261D02*
X509757166Y-71742261D01*
X509757166Y-71742261D02*
X509690500Y-71723213D01*
X509690500Y-71723213D02*
X509657166Y-71704166D01*
X509657166Y-71704166D02*
X509623833Y-71666071D01*
X509623833Y-71666071D02*
X509623833Y-71570832D01*
X509623833Y-71570832D02*
X509657166Y-71513690D01*
X509923833Y-71285119D02*
X509890500Y-71323214D01*
X509890500Y-71323214D02*
X509857166Y-71342261D01*
X509857166Y-71342261D02*
X509790500Y-71361309D01*
X509790500Y-71361309D02*
X509757166Y-71361309D01*
X509757166Y-71361309D02*
X509690500Y-71342261D01*
X509690500Y-71342261D02*
X509657166Y-71323214D01*
X509657166Y-71323214D02*
X509623833Y-71285119D01*
X509623833Y-71285119D02*
X509623833Y-71208928D01*
X509623833Y-71208928D02*
X509657166Y-71170833D01*
X509657166Y-71170833D02*
X509690500Y-71151785D01*
X509690500Y-71151785D02*
X509757166Y-71132738D01*
X509757166Y-71132738D02*
X509790500Y-71132738D01*
X509790500Y-71132738D02*
X509857166Y-71151785D01*
X509857166Y-71151785D02*
X509890500Y-71170833D01*
X509890500Y-71170833D02*
X509923833Y-71208928D01*
X509923833Y-71208928D02*
X509923833Y-71285119D01*
X509923833Y-71285119D02*
X509957166Y-71323214D01*
X509957166Y-71323214D02*
X509990500Y-71342261D01*
X509990500Y-71342261D02*
X510057166Y-71361309D01*
X510057166Y-71361309D02*
X510190500Y-71361309D01*
X510190500Y-71361309D02*
X510257166Y-71342261D01*
X510257166Y-71342261D02*
X510290500Y-71323214D01*
X510290500Y-71323214D02*
X510323833Y-71285119D01*
X510323833Y-71285119D02*
X510323833Y-71208928D01*
X510323833Y-71208928D02*
X510290500Y-71170833D01*
X510290500Y-71170833D02*
X510257166Y-71151785D01*
X510257166Y-71151785D02*
X510190500Y-71132738D01*
X510190500Y-71132738D02*
X510057166Y-71132738D01*
X510057166Y-71132738D02*
X509990500Y-71151785D01*
X509990500Y-71151785D02*
X509957166Y-71170833D01*
X509957166Y-71170833D02*
X509923833Y-71208928D01*
%TO.C,SW68*%
X409644941Y-92303000D02*
X409702084Y-92336333D01*
X409702084Y-92336333D02*
X409797322Y-92336333D01*
X409797322Y-92336333D02*
X409835417Y-92303000D01*
X409835417Y-92303000D02*
X409854465Y-92269666D01*
X409854465Y-92269666D02*
X409873512Y-92203000D01*
X409873512Y-92203000D02*
X409873512Y-92136333D01*
X409873512Y-92136333D02*
X409854465Y-92069666D01*
X409854465Y-92069666D02*
X409835417Y-92036333D01*
X409835417Y-92036333D02*
X409797322Y-92003000D01*
X409797322Y-92003000D02*
X409721131Y-91969666D01*
X409721131Y-91969666D02*
X409683036Y-91936333D01*
X409683036Y-91936333D02*
X409663989Y-91903000D01*
X409663989Y-91903000D02*
X409644941Y-91836333D01*
X409644941Y-91836333D02*
X409644941Y-91769666D01*
X409644941Y-91769666D02*
X409663989Y-91703000D01*
X409663989Y-91703000D02*
X409683036Y-91669666D01*
X409683036Y-91669666D02*
X409721131Y-91636333D01*
X409721131Y-91636333D02*
X409816370Y-91636333D01*
X409816370Y-91636333D02*
X409873512Y-91669666D01*
X410006845Y-91636333D02*
X410102083Y-92336333D01*
X410102083Y-92336333D02*
X410178274Y-91836333D01*
X410178274Y-91836333D02*
X410254464Y-92336333D01*
X410254464Y-92336333D02*
X410349703Y-91636333D01*
X410673512Y-91636333D02*
X410597322Y-91636333D01*
X410597322Y-91636333D02*
X410559226Y-91669666D01*
X410559226Y-91669666D02*
X410540179Y-91703000D01*
X410540179Y-91703000D02*
X410502084Y-91803000D01*
X410502084Y-91803000D02*
X410483036Y-91936333D01*
X410483036Y-91936333D02*
X410483036Y-92203000D01*
X410483036Y-92203000D02*
X410502084Y-92269666D01*
X410502084Y-92269666D02*
X410521131Y-92303000D01*
X410521131Y-92303000D02*
X410559226Y-92336333D01*
X410559226Y-92336333D02*
X410635417Y-92336333D01*
X410635417Y-92336333D02*
X410673512Y-92303000D01*
X410673512Y-92303000D02*
X410692560Y-92269666D01*
X410692560Y-92269666D02*
X410711607Y-92203000D01*
X410711607Y-92203000D02*
X410711607Y-92036333D01*
X410711607Y-92036333D02*
X410692560Y-91969666D01*
X410692560Y-91969666D02*
X410673512Y-91936333D01*
X410673512Y-91936333D02*
X410635417Y-91903000D01*
X410635417Y-91903000D02*
X410559226Y-91903000D01*
X410559226Y-91903000D02*
X410521131Y-91936333D01*
X410521131Y-91936333D02*
X410502084Y-91969666D01*
X410502084Y-91969666D02*
X410483036Y-92036333D01*
X410940178Y-91936333D02*
X410902083Y-91903000D01*
X410902083Y-91903000D02*
X410883036Y-91869666D01*
X410883036Y-91869666D02*
X410863988Y-91803000D01*
X410863988Y-91803000D02*
X410863988Y-91769666D01*
X410863988Y-91769666D02*
X410883036Y-91703000D01*
X410883036Y-91703000D02*
X410902083Y-91669666D01*
X410902083Y-91669666D02*
X410940178Y-91636333D01*
X410940178Y-91636333D02*
X411016369Y-91636333D01*
X411016369Y-91636333D02*
X411054464Y-91669666D01*
X411054464Y-91669666D02*
X411073512Y-91703000D01*
X411073512Y-91703000D02*
X411092559Y-91769666D01*
X411092559Y-91769666D02*
X411092559Y-91803000D01*
X411092559Y-91803000D02*
X411073512Y-91869666D01*
X411073512Y-91869666D02*
X411054464Y-91903000D01*
X411054464Y-91903000D02*
X411016369Y-91936333D01*
X411016369Y-91936333D02*
X410940178Y-91936333D01*
X410940178Y-91936333D02*
X410902083Y-91969666D01*
X410902083Y-91969666D02*
X410883036Y-92003000D01*
X410883036Y-92003000D02*
X410863988Y-92069666D01*
X410863988Y-92069666D02*
X410863988Y-92203000D01*
X410863988Y-92203000D02*
X410883036Y-92269666D01*
X410883036Y-92269666D02*
X410902083Y-92303000D01*
X410902083Y-92303000D02*
X410940178Y-92336333D01*
X410940178Y-92336333D02*
X411016369Y-92336333D01*
X411016369Y-92336333D02*
X411054464Y-92303000D01*
X411054464Y-92303000D02*
X411073512Y-92269666D01*
X411073512Y-92269666D02*
X411092559Y-92203000D01*
X411092559Y-92203000D02*
X411092559Y-92069666D01*
X411092559Y-92069666D02*
X411073512Y-92003000D01*
X411073512Y-92003000D02*
X411054464Y-91969666D01*
X411054464Y-91969666D02*
X411016369Y-91936333D01*
%TO.C,S5*%
X414794738Y-83253000D02*
X414851881Y-83286333D01*
X414851881Y-83286333D02*
X414947119Y-83286333D01*
X414947119Y-83286333D02*
X414985214Y-83253000D01*
X414985214Y-83253000D02*
X415004262Y-83219666D01*
X415004262Y-83219666D02*
X415023309Y-83153000D01*
X415023309Y-83153000D02*
X415023309Y-83086333D01*
X415023309Y-83086333D02*
X415004262Y-83019666D01*
X415004262Y-83019666D02*
X414985214Y-82986333D01*
X414985214Y-82986333D02*
X414947119Y-82953000D01*
X414947119Y-82953000D02*
X414870928Y-82919666D01*
X414870928Y-82919666D02*
X414832833Y-82886333D01*
X414832833Y-82886333D02*
X414813786Y-82853000D01*
X414813786Y-82853000D02*
X414794738Y-82786333D01*
X414794738Y-82786333D02*
X414794738Y-82719666D01*
X414794738Y-82719666D02*
X414813786Y-82653000D01*
X414813786Y-82653000D02*
X414832833Y-82619666D01*
X414832833Y-82619666D02*
X414870928Y-82586333D01*
X414870928Y-82586333D02*
X414966167Y-82586333D01*
X414966167Y-82586333D02*
X415023309Y-82619666D01*
X415385214Y-82586333D02*
X415194738Y-82586333D01*
X415194738Y-82586333D02*
X415175690Y-82919666D01*
X415175690Y-82919666D02*
X415194738Y-82886333D01*
X415194738Y-82886333D02*
X415232833Y-82853000D01*
X415232833Y-82853000D02*
X415328071Y-82853000D01*
X415328071Y-82853000D02*
X415366166Y-82886333D01*
X415366166Y-82886333D02*
X415385214Y-82919666D01*
X415385214Y-82919666D02*
X415404261Y-82986333D01*
X415404261Y-82986333D02*
X415404261Y-83153000D01*
X415404261Y-83153000D02*
X415385214Y-83219666D01*
X415385214Y-83219666D02*
X415366166Y-83253000D01*
X415366166Y-83253000D02*
X415328071Y-83286333D01*
X415328071Y-83286333D02*
X415232833Y-83286333D01*
X415232833Y-83286333D02*
X415194738Y-83253000D01*
X415194738Y-83253000D02*
X415175690Y-83219666D01*
%TO.C,S6*%
X410063988Y-98303000D02*
X410121131Y-98336333D01*
X410121131Y-98336333D02*
X410216369Y-98336333D01*
X410216369Y-98336333D02*
X410254464Y-98303000D01*
X410254464Y-98303000D02*
X410273512Y-98269666D01*
X410273512Y-98269666D02*
X410292559Y-98203000D01*
X410292559Y-98203000D02*
X410292559Y-98136333D01*
X410292559Y-98136333D02*
X410273512Y-98069666D01*
X410273512Y-98069666D02*
X410254464Y-98036333D01*
X410254464Y-98036333D02*
X410216369Y-98003000D01*
X410216369Y-98003000D02*
X410140178Y-97969666D01*
X410140178Y-97969666D02*
X410102083Y-97936333D01*
X410102083Y-97936333D02*
X410083036Y-97903000D01*
X410083036Y-97903000D02*
X410063988Y-97836333D01*
X410063988Y-97836333D02*
X410063988Y-97769666D01*
X410063988Y-97769666D02*
X410083036Y-97703000D01*
X410083036Y-97703000D02*
X410102083Y-97669666D01*
X410102083Y-97669666D02*
X410140178Y-97636333D01*
X410140178Y-97636333D02*
X410235417Y-97636333D01*
X410235417Y-97636333D02*
X410292559Y-97669666D01*
X410635416Y-97636333D02*
X410559226Y-97636333D01*
X410559226Y-97636333D02*
X410521130Y-97669666D01*
X410521130Y-97669666D02*
X410502083Y-97703000D01*
X410502083Y-97703000D02*
X410463988Y-97803000D01*
X410463988Y-97803000D02*
X410444940Y-97936333D01*
X410444940Y-97936333D02*
X410444940Y-98203000D01*
X410444940Y-98203000D02*
X410463988Y-98269666D01*
X410463988Y-98269666D02*
X410483035Y-98303000D01*
X410483035Y-98303000D02*
X410521130Y-98336333D01*
X410521130Y-98336333D02*
X410597321Y-98336333D01*
X410597321Y-98336333D02*
X410635416Y-98303000D01*
X410635416Y-98303000D02*
X410654464Y-98269666D01*
X410654464Y-98269666D02*
X410673511Y-98203000D01*
X410673511Y-98203000D02*
X410673511Y-98036333D01*
X410673511Y-98036333D02*
X410654464Y-97969666D01*
X410654464Y-97969666D02*
X410635416Y-97936333D01*
X410635416Y-97936333D02*
X410597321Y-97903000D01*
X410597321Y-97903000D02*
X410521130Y-97903000D01*
X410521130Y-97903000D02*
X410483035Y-97936333D01*
X410483035Y-97936333D02*
X410463988Y-97969666D01*
X410463988Y-97969666D02*
X410444940Y-98036333D01*
%TO.C,S7*%
X460070238Y-121353000D02*
X460127381Y-121386333D01*
X460127381Y-121386333D02*
X460222619Y-121386333D01*
X460222619Y-121386333D02*
X460260714Y-121353000D01*
X460260714Y-121353000D02*
X460279762Y-121319666D01*
X460279762Y-121319666D02*
X460298809Y-121253000D01*
X460298809Y-121253000D02*
X460298809Y-121186333D01*
X460298809Y-121186333D02*
X460279762Y-121119666D01*
X460279762Y-121119666D02*
X460260714Y-121086333D01*
X460260714Y-121086333D02*
X460222619Y-121053000D01*
X460222619Y-121053000D02*
X460146428Y-121019666D01*
X460146428Y-121019666D02*
X460108333Y-120986333D01*
X460108333Y-120986333D02*
X460089286Y-120953000D01*
X460089286Y-120953000D02*
X460070238Y-120886333D01*
X460070238Y-120886333D02*
X460070238Y-120819666D01*
X460070238Y-120819666D02*
X460089286Y-120753000D01*
X460089286Y-120753000D02*
X460108333Y-120719666D01*
X460108333Y-120719666D02*
X460146428Y-120686333D01*
X460146428Y-120686333D02*
X460241667Y-120686333D01*
X460241667Y-120686333D02*
X460298809Y-120719666D01*
X460432142Y-120686333D02*
X460698809Y-120686333D01*
X460698809Y-120686333D02*
X460527380Y-121386333D01*
%TO.C,S9*%
X510290500Y-109842261D02*
X510323833Y-109785118D01*
X510323833Y-109785118D02*
X510323833Y-109689880D01*
X510323833Y-109689880D02*
X510290500Y-109651785D01*
X510290500Y-109651785D02*
X510257166Y-109632737D01*
X510257166Y-109632737D02*
X510190500Y-109613690D01*
X510190500Y-109613690D02*
X510123833Y-109613690D01*
X510123833Y-109613690D02*
X510057166Y-109632737D01*
X510057166Y-109632737D02*
X510023833Y-109651785D01*
X510023833Y-109651785D02*
X509990500Y-109689880D01*
X509990500Y-109689880D02*
X509957166Y-109766071D01*
X509957166Y-109766071D02*
X509923833Y-109804166D01*
X509923833Y-109804166D02*
X509890500Y-109823213D01*
X509890500Y-109823213D02*
X509823833Y-109842261D01*
X509823833Y-109842261D02*
X509757166Y-109842261D01*
X509757166Y-109842261D02*
X509690500Y-109823213D01*
X509690500Y-109823213D02*
X509657166Y-109804166D01*
X509657166Y-109804166D02*
X509623833Y-109766071D01*
X509623833Y-109766071D02*
X509623833Y-109670832D01*
X509623833Y-109670832D02*
X509657166Y-109613690D01*
X510323833Y-109423214D02*
X510323833Y-109347023D01*
X510323833Y-109347023D02*
X510290500Y-109308928D01*
X510290500Y-109308928D02*
X510257166Y-109289880D01*
X510257166Y-109289880D02*
X510157166Y-109251785D01*
X510157166Y-109251785D02*
X510023833Y-109232738D01*
X510023833Y-109232738D02*
X509757166Y-109232738D01*
X509757166Y-109232738D02*
X509690500Y-109251785D01*
X509690500Y-109251785D02*
X509657166Y-109270833D01*
X509657166Y-109270833D02*
X509623833Y-109308928D01*
X509623833Y-109308928D02*
X509623833Y-109385119D01*
X509623833Y-109385119D02*
X509657166Y-109423214D01*
X509657166Y-109423214D02*
X509690500Y-109442261D01*
X509690500Y-109442261D02*
X509757166Y-109461309D01*
X509757166Y-109461309D02*
X509923833Y-109461309D01*
X509923833Y-109461309D02*
X509990500Y-109442261D01*
X509990500Y-109442261D02*
X510023833Y-109423214D01*
X510023833Y-109423214D02*
X510057166Y-109385119D01*
X510057166Y-109385119D02*
X510057166Y-109308928D01*
X510057166Y-109308928D02*
X510023833Y-109270833D01*
X510023833Y-109270833D02*
X509990500Y-109251785D01*
X509990500Y-109251785D02*
X509923833Y-109232738D01*
%TO.C,S3*%
X293382738Y-121336097D02*
X293439881Y-121369430D01*
X293439881Y-121369430D02*
X293535119Y-121369430D01*
X293535119Y-121369430D02*
X293573214Y-121336097D01*
X293573214Y-121336097D02*
X293592262Y-121302763D01*
X293592262Y-121302763D02*
X293611309Y-121236097D01*
X293611309Y-121236097D02*
X293611309Y-121169430D01*
X293611309Y-121169430D02*
X293592262Y-121102763D01*
X293592262Y-121102763D02*
X293573214Y-121069430D01*
X293573214Y-121069430D02*
X293535119Y-121036097D01*
X293535119Y-121036097D02*
X293458928Y-121002763D01*
X293458928Y-121002763D02*
X293420833Y-120969430D01*
X293420833Y-120969430D02*
X293401786Y-120936097D01*
X293401786Y-120936097D02*
X293382738Y-120869430D01*
X293382738Y-120869430D02*
X293382738Y-120802763D01*
X293382738Y-120802763D02*
X293401786Y-120736097D01*
X293401786Y-120736097D02*
X293420833Y-120702763D01*
X293420833Y-120702763D02*
X293458928Y-120669430D01*
X293458928Y-120669430D02*
X293554167Y-120669430D01*
X293554167Y-120669430D02*
X293611309Y-120702763D01*
X293744642Y-120669430D02*
X293992261Y-120669430D01*
X293992261Y-120669430D02*
X293858928Y-120936097D01*
X293858928Y-120936097D02*
X293916071Y-120936097D01*
X293916071Y-120936097D02*
X293954166Y-120969430D01*
X293954166Y-120969430D02*
X293973214Y-121002763D01*
X293973214Y-121002763D02*
X293992261Y-121069430D01*
X293992261Y-121069430D02*
X293992261Y-121236097D01*
X293992261Y-121236097D02*
X293973214Y-121302763D01*
X293973214Y-121302763D02*
X293954166Y-121336097D01*
X293954166Y-121336097D02*
X293916071Y-121369430D01*
X293916071Y-121369430D02*
X293801785Y-121369430D01*
X293801785Y-121369430D02*
X293763690Y-121336097D01*
X293763690Y-121336097D02*
X293744642Y-121302763D01*
%TD*%
%LPC*%
D11*
%TO.C,SW2*%
X112395000Y-42862500D03*
D12*
X117475000Y-42862500D03*
D11*
X122555000Y-42862500D03*
D13*
X113665000Y-40322500D03*
X120015000Y-37782500D03*
%TD*%
D11*
%TO.C,SW56*%
X355282500Y-61912500D03*
D12*
X360362500Y-61912500D03*
D11*
X365442500Y-61912500D03*
D13*
X356552500Y-59372500D03*
X362902500Y-56832500D03*
%TD*%
D14*
%TO.C,S1*%
X160305750Y-93027500D03*
D15*
X160305750Y-108237500D03*
D14*
X184181750Y-93027500D03*
D15*
X184181750Y-108237500D03*
%TD*%
D11*
%TO.C,SW33*%
X236220000Y-100012500D03*
D12*
X241300000Y-100012500D03*
D11*
X246380000Y-100012500D03*
D13*
X237490000Y-97472500D03*
X243840000Y-94932500D03*
%TD*%
D11*
%TO.C,SW4*%
X112395000Y-80962500D03*
D12*
X117475000Y-80962500D03*
D11*
X122555000Y-80962500D03*
D13*
X113665000Y-78422500D03*
X120015000Y-75882500D03*
%TD*%
D11*
%TO.C,SW49*%
X321945000Y-80962500D03*
D12*
X327025000Y-80962500D03*
D11*
X332105000Y-80962500D03*
D13*
X323215000Y-78422500D03*
X329565000Y-75882500D03*
%TD*%
D11*
%TO.C,SW78*%
X508000000Y-124142500D03*
D12*
X508000000Y-119062500D03*
D11*
X508000000Y-113982500D03*
D13*
X505460000Y-122872500D03*
X502920000Y-116522500D03*
%TD*%
D14*
%TO.C,S4*%
X405574500Y-35877500D03*
D15*
X405574500Y-51087500D03*
D14*
X429450500Y-35877500D03*
D15*
X429450500Y-51087500D03*
%TD*%
D11*
%TO.C,SW63*%
X369570000Y-119062500D03*
D12*
X374650000Y-119062500D03*
D11*
X379730000Y-119062500D03*
D13*
X370840000Y-116522500D03*
X377190000Y-113982500D03*
%TD*%
D11*
%TO.C,SW51*%
X326707500Y-42862500D03*
D12*
X331787500Y-42862500D03*
D11*
X336867500Y-42862500D03*
D13*
X327977500Y-40322500D03*
X334327500Y-37782500D03*
%TD*%
D11*
%TO.C,SW52*%
X336232500Y-61912500D03*
D12*
X341312500Y-61912500D03*
D11*
X346392500Y-61912500D03*
D13*
X337502500Y-59372500D03*
X343852500Y-56832500D03*
%TD*%
D11*
%TO.C,SW7*%
X131445000Y-42862500D03*
D12*
X136525000Y-42862500D03*
D11*
X141605000Y-42862500D03*
D13*
X132715000Y-40322500D03*
X139065000Y-37782500D03*
%TD*%
D12*
%TO.C,H5*%
X231769670Y-131570001D03*
%TD*%
%TO.C,H2*%
X461149670Y-131575379D03*
%TD*%
D11*
%TO.C,SW97*%
X455295000Y-119062500D03*
D12*
X460375000Y-119062500D03*
D11*
X465455000Y-119062500D03*
D13*
X456565000Y-116522500D03*
X462915000Y-113982500D03*
%TD*%
D11*
%TO.C,SW70*%
X417195000Y-61912500D03*
D12*
X422275000Y-61912500D03*
D11*
X427355000Y-61912500D03*
D13*
X418465000Y-59372500D03*
X424815000Y-56832500D03*
%TD*%
D11*
%TO.C,SW30*%
X231457500Y-42862500D03*
D12*
X236537500Y-42862500D03*
D11*
X241617500Y-42862500D03*
D13*
X232727500Y-40322500D03*
X239077500Y-37782500D03*
%TD*%
D11*
%TO.C,SW37*%
X255270000Y-100012500D03*
D12*
X260350000Y-100012500D03*
D11*
X265430000Y-100012500D03*
D13*
X256540000Y-97472500D03*
X262890000Y-94932500D03*
%TD*%
D11*
%TO.C,SW81*%
X483870000Y-80962500D03*
D12*
X488950000Y-80962500D03*
D11*
X494030000Y-80962500D03*
D13*
X485140000Y-78422500D03*
X491490000Y-75882500D03*
%TD*%
D11*
%TO.C,SW14*%
X162401250Y-80962500D03*
D12*
X167481250Y-80962500D03*
D11*
X172561250Y-80962500D03*
D13*
X163671250Y-78422500D03*
X170021250Y-75882500D03*
%TD*%
D12*
%TO.C,H7*%
X461169670Y-30340001D03*
%TD*%
D11*
%TO.C,SW31*%
X240982500Y-61912500D03*
D12*
X246062500Y-61912500D03*
D11*
X251142500Y-61912500D03*
D13*
X242252500Y-59372500D03*
X248602500Y-56832500D03*
%TD*%
D11*
%TO.C,SW40*%
X279082500Y-61912500D03*
D12*
X284162500Y-61912500D03*
D11*
X289242500Y-61912500D03*
D13*
X280352500Y-59372500D03*
X286702500Y-56832500D03*
%TD*%
D11*
%TO.C,SW6*%
X112395000Y-119062500D03*
D12*
X117475000Y-119062500D03*
D11*
X122555000Y-119062500D03*
D13*
X113665000Y-116522500D03*
X120015000Y-113982500D03*
%TD*%
D11*
%TO.C,SW93*%
X445770000Y-80962500D03*
D12*
X450850000Y-80962500D03*
D11*
X455930000Y-80962500D03*
D13*
X447040000Y-78422500D03*
X453390000Y-75882500D03*
%TD*%
D11*
%TO.C,SW19*%
X188595000Y-80962500D03*
D12*
X193675000Y-80962500D03*
D11*
X198755000Y-80962500D03*
D13*
X189865000Y-78422500D03*
X196215000Y-75882500D03*
%TD*%
D11*
%TO.C,SW92*%
X395763750Y-100012500D03*
D12*
X400843750Y-100012500D03*
D11*
X405923750Y-100012500D03*
D13*
X397033750Y-97472500D03*
X403383750Y-94932500D03*
%TD*%
D11*
%TO.C,SW18*%
X183832500Y-61912500D03*
D12*
X188912500Y-61912500D03*
D11*
X193992500Y-61912500D03*
D13*
X185102500Y-59372500D03*
X191452500Y-56832500D03*
%TD*%
D11*
%TO.C,SW58*%
X350520000Y-100012500D03*
D12*
X355600000Y-100012500D03*
D11*
X360680000Y-100012500D03*
D13*
X351790000Y-97472500D03*
X358140000Y-94932500D03*
%TD*%
D11*
%TO.C,SW3*%
X112395000Y-61912500D03*
D12*
X117475000Y-61912500D03*
D11*
X122555000Y-61912500D03*
D13*
X113665000Y-59372500D03*
X120015000Y-56832500D03*
%TD*%
D11*
%TO.C,SW83*%
X464820000Y-119062500D03*
D12*
X469900000Y-119062500D03*
D11*
X474980000Y-119062500D03*
D13*
X466090000Y-116522500D03*
X472440000Y-113982500D03*
%TD*%
D12*
%TO.C,H10*%
X355579670Y-131580001D03*
%TD*%
%TO.C,H11*%
X123819670Y-30315379D03*
%TD*%
D11*
%TO.C,SW41*%
X283845000Y-80962500D03*
D12*
X288925000Y-80962500D03*
D11*
X294005000Y-80962500D03*
D13*
X285115000Y-78422500D03*
X291465000Y-75882500D03*
%TD*%
D11*
%TO.C,SW16*%
X160020000Y-119062500D03*
D12*
X165100000Y-119062500D03*
D11*
X170180000Y-119062500D03*
D13*
X161290000Y-116522500D03*
X167640000Y-113982500D03*
%TD*%
D11*
%TO.C,SW45*%
X302895000Y-80962500D03*
D12*
X307975000Y-80962500D03*
D11*
X313055000Y-80962500D03*
D13*
X304165000Y-78422500D03*
X310515000Y-75882500D03*
%TD*%
D11*
%TO.C,SW44*%
X298132500Y-61912500D03*
D12*
X303212500Y-61912500D03*
D11*
X308292500Y-61912500D03*
D13*
X299402500Y-59372500D03*
X305752500Y-56832500D03*
%TD*%
D11*
%TO.C,SW24*%
X207645000Y-80962500D03*
D12*
X212725000Y-80962500D03*
D11*
X217805000Y-80962500D03*
D13*
X208915000Y-78422500D03*
X215265000Y-75882500D03*
%TD*%
D11*
%TO.C,SW35*%
X260032500Y-61912500D03*
D12*
X265112500Y-61912500D03*
D11*
X270192500Y-61912500D03*
D13*
X261302500Y-59372500D03*
X267652500Y-56832500D03*
%TD*%
D11*
%TO.C,SW10*%
X131445000Y-100012500D03*
D12*
X136525000Y-100012500D03*
D11*
X141605000Y-100012500D03*
D13*
X132715000Y-97472500D03*
X139065000Y-94932500D03*
%TD*%
D14*
%TO.C,S8*%
X514985000Y-59499500D03*
D15*
X499775000Y-59499500D03*
D14*
X514985000Y-83375500D03*
D15*
X499775000Y-83375500D03*
%TD*%
D11*
%TO.C,SW48*%
X317182500Y-61912500D03*
D12*
X322262500Y-61912500D03*
D11*
X327342500Y-61912500D03*
D13*
X318452500Y-59372500D03*
X324802500Y-56832500D03*
%TD*%
D11*
%TO.C,SW68*%
X405288750Y-100012500D03*
D12*
X410368750Y-100012500D03*
D11*
X415448750Y-100012500D03*
D13*
X406558750Y-97472500D03*
X412908750Y-94932500D03*
%TD*%
D11*
%TO.C,SW84*%
X502920000Y-42862500D03*
D12*
X508000000Y-42862500D03*
D11*
X513080000Y-42862500D03*
D13*
X504190000Y-40322500D03*
X510540000Y-37782500D03*
%TD*%
D14*
%TO.C,S5*%
X427037500Y-87947500D03*
D15*
X427037500Y-72737500D03*
D14*
X403161500Y-87947500D03*
D15*
X403161500Y-72737500D03*
%TD*%
D11*
%TO.C,SW77*%
X464820000Y-100012500D03*
D12*
X469900000Y-100012500D03*
D11*
X474980000Y-100012500D03*
D13*
X466090000Y-97472500D03*
X472440000Y-94932500D03*
%TD*%
D11*
%TO.C,SW74*%
X464820000Y-42862500D03*
D12*
X469900000Y-42862500D03*
D11*
X474980000Y-42862500D03*
D13*
X466090000Y-40322500D03*
X472440000Y-37782500D03*
%TD*%
D11*
%TO.C,SW86*%
X508000000Y-86042500D03*
D12*
X508000000Y-80962500D03*
D11*
X508000000Y-75882500D03*
D13*
X505460000Y-84772500D03*
X502920000Y-78422500D03*
%TD*%
D14*
%TO.C,S6*%
X398430750Y-93027500D03*
D15*
X398430750Y-108237500D03*
D14*
X422306750Y-93027500D03*
D15*
X422306750Y-108237500D03*
%TD*%
D11*
%TO.C,SW75*%
X464820000Y-61912500D03*
D12*
X469900000Y-61912500D03*
D11*
X474980000Y-61912500D03*
D13*
X466090000Y-59372500D03*
X472440000Y-56832500D03*
%TD*%
D11*
%TO.C,SW54*%
X331470000Y-100012500D03*
D12*
X336550000Y-100012500D03*
D11*
X341630000Y-100012500D03*
D13*
X332740000Y-97472500D03*
X339090000Y-94932500D03*
%TD*%
D14*
%TO.C,S7*%
X472313000Y-126047500D03*
D15*
X472313000Y-110837500D03*
D14*
X448437000Y-126047500D03*
D15*
X448437000Y-110837500D03*
%TD*%
D11*
%TO.C,SW50*%
X312420000Y-100012500D03*
D12*
X317500000Y-100012500D03*
D11*
X322580000Y-100012500D03*
D13*
X313690000Y-97472500D03*
X320040000Y-94932500D03*
%TD*%
D12*
%TO.C,H3*%
X130949670Y-131570001D03*
%TD*%
D11*
%TO.C,SW42*%
X274320000Y-100012500D03*
D12*
X279400000Y-100012500D03*
D11*
X284480000Y-100012500D03*
D13*
X275590000Y-97472500D03*
X281940000Y-94932500D03*
%TD*%
D11*
%TO.C,SW28*%
X226695000Y-80962500D03*
D12*
X231775000Y-80962500D03*
D11*
X236855000Y-80962500D03*
D13*
X227965000Y-78422500D03*
X234315000Y-75882500D03*
%TD*%
D11*
%TO.C,SW23*%
X202882500Y-61912500D03*
D12*
X207962500Y-61912500D03*
D11*
X213042500Y-61912500D03*
D13*
X204152500Y-59372500D03*
X210502500Y-56832500D03*
%TD*%
D11*
%TO.C,SW38*%
X288607500Y-119045597D03*
D12*
X293687500Y-119045597D03*
D11*
X298767500Y-119045597D03*
D13*
X289877500Y-116505597D03*
X296227500Y-113965597D03*
%TD*%
D11*
%TO.C,SW20*%
X179070000Y-100012500D03*
D12*
X184150000Y-100012500D03*
D11*
X189230000Y-100012500D03*
D13*
X180340000Y-97472500D03*
X186690000Y-94932500D03*
%TD*%
D11*
%TO.C,SW47*%
X307657500Y-42862500D03*
D12*
X312737500Y-42862500D03*
D11*
X317817500Y-42862500D03*
D13*
X308927500Y-40322500D03*
X315277500Y-37782500D03*
%TD*%
D11*
%TO.C,SW73*%
X417195000Y-119062500D03*
D12*
X422275000Y-119062500D03*
D11*
X427355000Y-119062500D03*
D13*
X418465000Y-116522500D03*
X424815000Y-113982500D03*
%TD*%
D11*
%TO.C,SW87*%
X508000000Y-114617500D03*
D12*
X508000000Y-109537500D03*
D11*
X508000000Y-104457500D03*
D13*
X505460000Y-113347500D03*
X502920000Y-106997500D03*
%TD*%
D11*
%TO.C,SW12*%
X155257500Y-42862500D03*
D12*
X160337500Y-42862500D03*
D11*
X165417500Y-42862500D03*
D13*
X156527500Y-40322500D03*
X162877500Y-37782500D03*
%TD*%
D12*
%TO.C,H8*%
X495284972Y-131565379D03*
%TD*%
D11*
%TO.C,SW62*%
X369570000Y-100012500D03*
D12*
X374650000Y-100012500D03*
D11*
X379730000Y-100012500D03*
D13*
X370840000Y-97472500D03*
X377190000Y-94932500D03*
%TD*%
D12*
%TO.C,H9*%
X404804972Y-131565379D03*
%TD*%
D11*
%TO.C,SW22*%
X193357500Y-42862500D03*
D12*
X198437500Y-42862500D03*
D11*
X203517500Y-42862500D03*
D13*
X194627500Y-40322500D03*
X200977500Y-37782500D03*
%TD*%
D11*
%TO.C,SW89*%
X157638750Y-80962500D03*
D12*
X162718750Y-80962500D03*
D11*
X167798750Y-80962500D03*
D13*
X158908750Y-78422500D03*
X165258750Y-75882500D03*
%TD*%
D12*
%TO.C,H14*%
X504809670Y-30330001D03*
%TD*%
D11*
%TO.C,SW76*%
X464820000Y-80962500D03*
D12*
X469900000Y-80962500D03*
D11*
X474980000Y-80962500D03*
D13*
X466090000Y-78422500D03*
X472440000Y-75882500D03*
%TD*%
D12*
%TO.C,H1*%
X417499670Y-30320001D03*
%TD*%
D11*
%TO.C,SW21*%
X207645000Y-119062500D03*
D12*
X212725000Y-119062500D03*
D11*
X217805000Y-119062500D03*
D13*
X208915000Y-116522500D03*
X215265000Y-113982500D03*
%TD*%
D11*
%TO.C,SW82*%
X483870000Y-100012500D03*
D12*
X488950000Y-100012500D03*
D11*
X494030000Y-100012500D03*
D13*
X485140000Y-97472500D03*
X491490000Y-94932500D03*
%TD*%
D14*
%TO.C,S9*%
X514985000Y-97599500D03*
D15*
X499775000Y-97599500D03*
D14*
X514985000Y-121475500D03*
D15*
X499775000Y-121475500D03*
%TD*%
D11*
%TO.C,SW91*%
X445770000Y-61912500D03*
D12*
X450850000Y-61912500D03*
D11*
X455930000Y-61912500D03*
D13*
X447040000Y-59372500D03*
X453390000Y-56832500D03*
%TD*%
D11*
%TO.C,SW65*%
X393382500Y-61912500D03*
D12*
X398462500Y-61912500D03*
D11*
X403542500Y-61912500D03*
D13*
X394652500Y-59372500D03*
X401002500Y-56832500D03*
%TD*%
D11*
%TO.C,SW96*%
X445770000Y-100012500D03*
D12*
X450850000Y-100012500D03*
D11*
X455930000Y-100012500D03*
D13*
X447040000Y-97472500D03*
X453390000Y-94932500D03*
%TD*%
D11*
%TO.C,SW69*%
X402907500Y-42862500D03*
D12*
X407987500Y-42862500D03*
D11*
X413067500Y-42862500D03*
D13*
X404177500Y-40322500D03*
X410527500Y-37782500D03*
%TD*%
D11*
%TO.C,SW34*%
X250507500Y-42862500D03*
D12*
X255587500Y-42862500D03*
D11*
X260667500Y-42862500D03*
D13*
X251777500Y-40322500D03*
X258127500Y-37782500D03*
%TD*%
D11*
%TO.C,SW79*%
X483870000Y-42862500D03*
D12*
X488950000Y-42862500D03*
D11*
X494030000Y-42862500D03*
D13*
X485140000Y-40322500D03*
X491490000Y-37782500D03*
%TD*%
D11*
%TO.C,SW60*%
X374332500Y-61912500D03*
D12*
X379412500Y-61912500D03*
D11*
X384492500Y-61912500D03*
D13*
X375602500Y-59372500D03*
X381952500Y-56832500D03*
%TD*%
D11*
%TO.C,SW15*%
X167163750Y-100012500D03*
D12*
X172243750Y-100012500D03*
D11*
X177323750Y-100012500D03*
D13*
X168433750Y-97472500D03*
X174783750Y-94932500D03*
%TD*%
D11*
%TO.C,SW39*%
X269557500Y-42862500D03*
D12*
X274637500Y-42862500D03*
D11*
X279717500Y-42862500D03*
D13*
X270827500Y-40322500D03*
X277177500Y-37782500D03*
%TD*%
D11*
%TO.C,SW67*%
X445770000Y-42862500D03*
D12*
X450850000Y-42862500D03*
D11*
X455930000Y-42862500D03*
D13*
X447040000Y-40322500D03*
X453390000Y-37782500D03*
%TD*%
D12*
%TO.C,H13*%
X328504972Y-30315379D03*
%TD*%
%TO.C,H4*%
X158739670Y-131585379D03*
%TD*%
D11*
%TO.C,SW72*%
X421894000Y-100012500D03*
D12*
X426974000Y-100012500D03*
D11*
X432054000Y-100012500D03*
D13*
X423164000Y-97472500D03*
X429514000Y-94932500D03*
%TD*%
D11*
%TO.C,SW27*%
X221932500Y-61912500D03*
D12*
X227012500Y-61912500D03*
D11*
X232092500Y-61912500D03*
D13*
X223202500Y-59372500D03*
X229552500Y-56832500D03*
%TD*%
D11*
%TO.C,SW95*%
X508000000Y-105092500D03*
D12*
X508000000Y-100012500D03*
D11*
X508000000Y-94932500D03*
D13*
X505460000Y-103822500D03*
X502920000Y-97472500D03*
%TD*%
D11*
%TO.C,SW5*%
X112395000Y-100012500D03*
D12*
X117475000Y-100012500D03*
D11*
X122555000Y-100012500D03*
D13*
X113665000Y-97472500D03*
X120015000Y-94932500D03*
%TD*%
D11*
%TO.C,SW80*%
X483870000Y-61912500D03*
D12*
X488950000Y-61912500D03*
D11*
X494030000Y-61912500D03*
D13*
X485140000Y-59372500D03*
X491490000Y-56832500D03*
%TD*%
D11*
%TO.C,SW94*%
X508000000Y-66992500D03*
D12*
X508000000Y-61912500D03*
D11*
X508000000Y-56832500D03*
D13*
X505460000Y-65722500D03*
X502920000Y-59372500D03*
%TD*%
D11*
%TO.C,SW26*%
X212407500Y-42862500D03*
D12*
X217487500Y-42862500D03*
D11*
X222567500Y-42862500D03*
D13*
X213677500Y-40322500D03*
X220027500Y-37782500D03*
%TD*%
D14*
%TO.C,S3*%
X350837500Y-126030597D03*
D15*
X350837500Y-110820597D03*
D14*
X236537500Y-126030597D03*
D15*
X236537500Y-110820597D03*
%TD*%
D11*
%TO.C,SW46*%
X293370000Y-100012500D03*
D12*
X298450000Y-100012500D03*
D11*
X303530000Y-100012500D03*
D13*
X294640000Y-97472500D03*
X300990000Y-94932500D03*
%TD*%
D11*
%TO.C,SW98*%
X445770000Y-119062500D03*
D12*
X450850000Y-119062500D03*
D11*
X455930000Y-119062500D03*
D13*
X447040000Y-116522500D03*
X453390000Y-113982500D03*
%TD*%
D11*
%TO.C,SW61*%
X379095000Y-80962500D03*
D12*
X384175000Y-80962500D03*
D11*
X389255000Y-80962500D03*
D13*
X380365000Y-78422500D03*
X386715000Y-75882500D03*
%TD*%
D11*
%TO.C,SW11*%
X131445000Y-119062500D03*
D12*
X136525000Y-119062500D03*
D11*
X141605000Y-119062500D03*
D13*
X132715000Y-116522500D03*
X139065000Y-113982500D03*
%TD*%
D11*
%TO.C,SW43*%
X288607500Y-42862500D03*
D12*
X293687500Y-42862500D03*
D11*
X298767500Y-42862500D03*
D13*
X289877500Y-40322500D03*
X296227500Y-37782500D03*
%TD*%
D12*
%TO.C,H12*%
X160329670Y-30325379D03*
%TD*%
D11*
%TO.C,SW85*%
X508000000Y-76517500D03*
D12*
X508000000Y-71437500D03*
D11*
X508000000Y-66357500D03*
D13*
X505460000Y-75247500D03*
X502920000Y-68897500D03*
%TD*%
D11*
%TO.C,SW53*%
X340995000Y-80962500D03*
D12*
X346075000Y-80962500D03*
D11*
X351155000Y-80962500D03*
D13*
X342265000Y-78422500D03*
X348615000Y-75882500D03*
%TD*%
D11*
%TO.C,SW32*%
X245745000Y-80962500D03*
D12*
X250825000Y-80962500D03*
D11*
X255905000Y-80962500D03*
D13*
X247015000Y-78422500D03*
X253365000Y-75882500D03*
%TD*%
D11*
%TO.C,SW36*%
X264795000Y-80962500D03*
D12*
X269875000Y-80962500D03*
D11*
X274955000Y-80962500D03*
D13*
X266065000Y-78422500D03*
X272415000Y-75882500D03*
%TD*%
D12*
%TO.C,H6*%
X239784972Y-30325379D03*
%TD*%
D11*
%TO.C,SW71*%
X410019500Y-80962500D03*
D12*
X415099500Y-80962500D03*
D11*
X420179500Y-80962500D03*
D13*
X411289500Y-78422500D03*
X417639500Y-75882500D03*
%TD*%
D11*
%TO.C,SW64*%
X383857500Y-42862500D03*
D12*
X388937500Y-42862500D03*
D11*
X394017500Y-42862500D03*
D13*
X385127500Y-40322500D03*
X391477500Y-37782500D03*
%TD*%
D11*
%TO.C,SW88*%
X483870000Y-119062500D03*
D12*
X488950000Y-119062500D03*
D11*
X494030000Y-119062500D03*
D13*
X485140000Y-116522500D03*
X491490000Y-113982500D03*
%TD*%
D11*
%TO.C,SW29*%
X217170000Y-100012500D03*
D12*
X222250000Y-100012500D03*
D11*
X227330000Y-100012500D03*
D13*
X218440000Y-97472500D03*
X224790000Y-94932500D03*
%TD*%
D11*
%TO.C,SW99*%
X421957500Y-42862500D03*
D12*
X427037500Y-42862500D03*
D11*
X432117500Y-42862500D03*
D13*
X423227500Y-40322500D03*
X429577500Y-37782500D03*
%TD*%
D11*
%TO.C,SW17*%
X174307500Y-42862500D03*
D12*
X179387500Y-42862500D03*
D11*
X184467500Y-42862500D03*
D13*
X175577500Y-40322500D03*
X181927500Y-37782500D03*
%TD*%
D11*
%TO.C,SW55*%
X345757500Y-42862500D03*
D12*
X350837500Y-42862500D03*
D11*
X355917500Y-42862500D03*
D13*
X347027500Y-40322500D03*
X353377500Y-37782500D03*
%TD*%
D11*
%TO.C,SW25*%
X198120000Y-100012500D03*
D12*
X203200000Y-100012500D03*
D11*
X208280000Y-100012500D03*
D13*
X199390000Y-97472500D03*
X205740000Y-94932500D03*
%TD*%
D11*
%TO.C,SW9*%
X131445000Y-80962500D03*
D12*
X136525000Y-80962500D03*
D11*
X141605000Y-80962500D03*
D13*
X132715000Y-78422500D03*
X139065000Y-75882500D03*
%TD*%
D11*
%TO.C,SW57*%
X360045000Y-80962500D03*
D12*
X365125000Y-80962500D03*
D11*
X370205000Y-80962500D03*
D13*
X361315000Y-78422500D03*
X367665000Y-75882500D03*
%TD*%
D11*
%TO.C,SW59*%
X364807500Y-42862500D03*
D12*
X369887500Y-42862500D03*
D11*
X374967500Y-42862500D03*
D13*
X366077500Y-40322500D03*
X372427500Y-37782500D03*
%TD*%
D11*
%TO.C,SW8*%
X131445000Y-61912500D03*
D12*
X136525000Y-61912500D03*
D11*
X141605000Y-61912500D03*
D13*
X132715000Y-59372500D03*
X139065000Y-56832500D03*
%TD*%
D11*
%TO.C,SW13*%
X160020000Y-61912500D03*
D12*
X165100000Y-61912500D03*
D11*
X170180000Y-61912500D03*
D13*
X161290000Y-59372500D03*
X167640000Y-56832500D03*
%TD*%
D11*
%TO.C,SW90*%
X157638750Y-100012500D03*
D12*
X162718750Y-100012500D03*
D11*
X167798750Y-100012500D03*
D13*
X158908750Y-97472500D03*
X165258750Y-94932500D03*
%TD*%
D11*
%TO.C,SW66*%
X412432500Y-42862500D03*
D12*
X417512500Y-42862500D03*
D11*
X422592500Y-42862500D03*
D13*
X413702500Y-40322500D03*
X420052500Y-37782500D03*
%TD*%
D16*
%TO.C,J2*%
X110363000Y-64897000D03*
D17*
X110363000Y-67437000D03*
X110363000Y-69977000D03*
X110363000Y-72517000D03*
X110363000Y-75057000D03*
%TD*%
%LPD*%
M02*
