M48
; DRILL file {KiCad 7.0.2} date Wed Jul 26 10:20:05 2023
; FORMAT={-:-/ absolute / inch / decimal}
; #@! TF.CreationDate,2023-07-26T10:20:05+10:00
; #@! TF.GenerationSoftware,Kicad,Pcbnew,7.0.2
; #@! TF.FileFunction,NonPlated,1,2,NPTH
FMAT,2
INCH
; #@! TA.AperFunction,NonPlated,NPTH,ComponentDrill
T1C0.0689
; #@! TA.AperFunction,NonPlated,NPTH,ComponentDrill
T2C0.1570
%
G90
G05
T1
X-0.2008Y-1.5
X-0.2008Y-2.25
X-0.2008Y-3.0
X-0.2Y0.0
X-0.2Y-0.75
X0.1992Y-1.5
X0.1992Y-2.25
X0.1992Y-3.0
X0.2Y0.0
X0.2Y-0.75
X0.55Y0.0
X0.55Y-0.75
X0.55Y-1.5
X0.55Y-2.25
X0.55Y-3.0
X0.95Y0.0
X0.95Y-0.75
X0.95Y-1.5
X0.95Y-2.25
X0.95Y-3.0
X1.4875Y0.0
X1.5813Y-1.5
X1.5813Y-2.25
X1.675Y-0.75
X1.675Y-3.0
X1.7688Y-1.5
X1.8875Y0.0
X1.9563Y-2.25
X1.9812Y-1.5
X1.9812Y-2.25
X2.075Y-0.75
X2.075Y-3.0
X2.1687Y-1.5
X2.2375Y0.0
X2.3562Y-2.25
X2.425Y-2.25
X2.6125Y-0.75
X2.6375Y0.0
X2.8Y-1.5
X2.825Y-2.25
X2.9875Y0.0
X3.0125Y-0.75
X3.175Y-2.25
X3.2Y-1.5
X3.3625Y-0.75
X3.3875Y0.0
X3.55Y-1.5
X3.55Y-3.0
X3.575Y-2.25
X3.7375Y0.0
X3.7625Y-0.75
X3.925Y-2.25
X3.95Y-1.5
X3.95Y-3.0
X4.1125Y-0.75
X4.1375Y0.0
X4.3Y-1.5
X4.325Y-2.25
X4.4875Y0.0
X4.5125Y-0.75
X4.675Y-2.25
X4.7Y-1.5
X4.8625Y-0.75
X4.8875Y0.0
X5.05Y-1.5
X5.075Y-2.25
X5.2375Y0.0
X5.2625Y-0.75
X5.425Y-2.25
X5.45Y-1.5
X5.6125Y-0.75
X5.6375Y0.0
X5.8Y-1.5
X5.825Y-2.25
X5.9875Y0.0
X6.0125Y-0.75
X6.175Y-2.25
X6.2Y-1.5
X6.3625Y-0.75
X6.3875Y0.0
X6.55Y-1.5
X6.575Y-2.25
X6.7375Y0.0
X6.7375Y-2.9993
X6.7625Y-0.75
X6.925Y-2.25
X6.95Y-1.5
X7.1125Y-0.75
X7.1375Y0.0
X7.1375Y-2.9993
X7.3Y-1.5
X7.325Y-2.25
X7.4875Y0.0
X7.5125Y-0.75
X7.675Y-2.25
X7.7Y-1.5
X7.8625Y-0.75
X7.8875Y0.0
X8.05Y-1.5
X8.075Y-2.25
X8.2375Y0.0
X8.2625Y-0.75
X8.425Y-2.25
X8.45Y-1.5
X8.6125Y-0.75
X8.6375Y0.0
X8.8Y-1.5
X8.825Y-2.25
X8.9875Y0.0
X9.0125Y-0.75
X9.175Y-2.25
X9.2Y-1.5
X9.3625Y-0.75
X9.3875Y0.0
X9.55Y-1.5
X9.575Y-2.25
X9.7375Y0.0
X9.7625Y-0.75
X9.925Y-2.25
X9.925Y-3.0
X9.95Y-1.5
X10.1125Y-0.75
X10.1375Y0.0
X10.3Y-1.5
X10.325Y-2.25
X10.325Y-3.0
X10.4875Y0.0
X10.5125Y-0.75
X10.7Y-1.5
X10.8625Y-0.75
X10.8875Y0.0
X10.9562Y-2.25
X11.2375Y0.0
X11.2625Y-0.75
X11.3312Y-2.25
X11.3562Y-2.25
X11.5175Y-1.5
X11.6125Y0.0
X11.6375Y0.0
X11.7312Y-2.25
X11.7992Y-0.75
X11.7992Y-3.0
X11.9175Y-1.5
X11.9867Y0.0
X11.9867Y-2.25
X12.0125Y0.0
X12.1992Y-0.75
X12.1992Y-3.0
X12.3867Y0.0
X12.3867Y-2.25
X12.925Y0.0
X12.925Y-0.75
X12.925Y-1.5
X12.925Y-2.25
X12.925Y-3.0
X13.3Y-3.0
X13.325Y0.0
X13.325Y-0.75
X13.325Y-1.5
X13.325Y-2.25
X13.325Y-3.0
X13.675Y0.0
X13.675Y-0.75
X13.675Y-1.5
X13.675Y-2.25
X13.675Y-3.0
X13.7Y-3.0
X14.075Y0.0
X14.075Y-0.75
X14.075Y-1.5
X14.075Y-2.25
X14.075Y-3.0
X14.425Y0.0
X14.425Y-0.75
X14.425Y-1.5
X14.425Y-2.25
X14.425Y-3.0
X14.825Y0.0
X14.825Y-0.75
X14.825Y-1.5
X14.825Y-2.25
X14.825Y-3.0
X15.175Y0.0
X15.375Y-0.55
X15.375Y-0.925
X15.375Y-0.95
X15.375Y-1.3
X15.375Y-1.325
X15.375Y-1.7
X15.375Y-2.05
X15.375Y-2.425
X15.375Y-2.45
X15.375Y-2.8
X15.375Y-2.825
X15.375Y-3.2
X15.575Y0.0
T2
X-0.0008Y-1.5
X-0.0008Y-2.25
X-0.0008Y-3.0
X0.0Y0.0
X0.0Y-0.75
X0.75Y0.0
X0.75Y-0.75
X0.75Y-1.5
X0.75Y-2.25
X0.75Y-3.0
X1.6875Y0.0
X1.6875Y-2.575
X1.7812Y-1.5
X1.7812Y-2.25
X1.875Y-0.75
X1.875Y-3.0
X1.9688Y-1.5
X2.1562Y-2.25
X2.4375Y0.0
X2.625Y-2.25
X2.625Y-2.575
X2.8125Y-0.75
X3.0Y-1.5
X3.1875Y0.0
X3.375Y-2.25
X3.5625Y-0.75
X3.75Y-1.5
X3.75Y-3.0
X3.9375Y0.0
X4.125Y-2.25
X4.3125Y-0.75
X4.5Y-1.5
X4.6875Y0.0
X4.6875Y-2.6743
X4.875Y-2.25
X5.0625Y-0.75
X5.25Y-1.5
X5.4375Y0.0
X5.625Y-2.25
X5.8125Y-0.75
X6.0Y-1.5
X6.1875Y0.0
X6.375Y-2.25
X6.5625Y-0.75
X6.75Y-1.5
X6.9375Y0.0
X6.9375Y-2.9993
X7.125Y-2.25
X7.3125Y-0.75
X7.5Y-1.5
X7.6875Y0.0
X7.875Y-2.25
X8.0625Y-0.75
X8.25Y-1.5
X8.4375Y0.0
X8.625Y-2.25
X8.8125Y-0.75
X9.0Y-1.5
X9.1875Y0.0
X9.1875Y-2.6743
X9.375Y-2.25
X9.5625Y-0.75
X9.75Y-1.5
X9.9375Y0.0
X10.125Y-2.25
X10.125Y-3.0
X10.3125Y-0.75
X10.5Y-1.5
X10.6875Y0.0
X11.0617Y-2.575
X11.0625Y-0.75
X11.1562Y-2.25
X11.2492Y-1.175
X11.343Y-0.325
X11.4375Y0.0
X11.5312Y-2.25
X11.7175Y-1.5
X11.8125Y0.0
X11.9992Y-0.75
X11.9992Y-2.575
X11.9992Y-3.0
X12.1867Y0.0
X12.1867Y-1.175
X12.1867Y-2.25
X12.2805Y-0.325
X13.0312Y-2.675
X13.125Y0.0
X13.125Y-0.75
X13.125Y-1.5
X13.125Y-2.25
X13.125Y-3.0
X13.5Y-3.0
X13.875Y0.0
X13.875Y-0.75
X13.875Y-1.5
X13.875Y-2.25
X13.875Y-3.0
X13.9688Y-2.675
X14.625Y0.0
X14.625Y-0.75
X14.625Y-1.5
X14.625Y-2.25
X14.625Y-3.0
X15.05Y-0.6562
X15.05Y-1.5938
X15.05Y-2.1562
X15.05Y-3.0938
X15.375Y0.0
X15.375Y-0.75
X15.375Y-1.125
X15.375Y-1.5
X15.375Y-2.25
X15.375Y-2.625
X15.375Y-3.0
T0
M30
